<svg width="2213" height="700" viewBox="0 0 2213 700" fill="none" xmlns="http://www.w3.org/2000/svg">

  <style>
:root {
    --black: black;
}

@media (prefers-color-scheme: dark) {
  :root {
    --black: white;
  }
}
    @keyframes fadeIn-1 {
      from { opacity: 0; }
      to { opacity: 1; }
    }

    .delayed-fill-1
     {
      opacity: 0;
      animation: fadeIn-1 0.01s forwards .5s;
    }

    .delayed-fill-2
     {
      opacity: 0;
      animation: fadeIn-1 0.01s forwards .6s;
    }

    .delayed-fill-4
     {
      opacity: 0;
      animation: fadeIn-1 0.01s forwards 2.4s;
    }

    .delayed-fill-5
     {
      opacity: 0;
      animation: fadeIn-1 0.01s forwards 3s;
    }

    .delayed-fill-6
     {
      opacity: 0;
      animation: fadeIn-1 0.01s forwards 3.1s;
    }










    @keyframes fadeIn-2 {
      0% { opacity: 0; }
      20% { opacity: 1; }
      40% { opacity: 0; }
      60% { opacity: 1; }
      80% { opacity: 0; }
      100% { opacity: 1; }
    }

    .delayed-fill-3
     {
      opacity: 0;
      animation: fadeIn-2 1.5s forwards .8s;
    }


    .delayed-fill-7
     {
      opacity: 0;
      animation: fadeIn-2 1.5s forwards 3.2s;
    }










    .delayed-fill-8
     {
      opacity: 0;
      animation: fadeIn-1 0.01s forwards 4.7s;
    }

    .delayed-fill-9
     {
      opacity: 0;
      animation: fadeIn-1 0.01s forwards 4.8s;
    }

    .delayed-fill-10
     {
      opacity: 0;
      animation: fadeIn-1 0.01s forwards 4.9s;
    }

    .delayed-fill-11
     {
      opacity: 0;
      animation: fadeIn-1 0.01s forwards 4.9s;
    }

    .delayed-fill-12
     {
      opacity: 0;
      animation: fadeIn-1 0.01s forwards 5s;
    }

    .delayed-fill-13
     {
      opacity: 0;
      animation: fadeIn-1 0.01s forwards 5.1s;
    }
 </style>

<path class="delayed-fill-1" d="M1.76385 277V0.722656H89.1886C107.607 0.722656 123.502 4.12882 136.875 10.9411C150.499 17.7534 161.096 27.3411 168.666 39.7042C176.235 51.815 180.02 66.1966 180.02 82.8489C180.02 101.015 175.352 117.037 166.016 130.914C156.933 144.791 144.57 154.631 128.927 160.434L183.804 277H130.819L82.7547 167.246H49.0716V277H1.76385ZM49.0716 125.615H89.1886C102.561 125.615 113.032 121.957 120.601 114.64C128.17 107.323 131.955 97.2305 131.955 84.3628C131.955 71.2427 128.17 61.0243 120.601 53.7073C113.032 46.1381 102.561 42.3535 89.1886 42.3535H49.0716V125.615Z" fill="var(--black)"/>

<path class="delayed-fill-2" d="M313.469 280.785C286.472 280.785 265.278 273.468 249.887 258.834C234.749 243.948 227.179 223.763 227.179 198.28V0.722656H274.866V197.901C274.866 211.021 278.146 221.24 284.706 228.557C291.266 235.874 300.853 239.532 313.469 239.532C325.832 239.532 335.293 235.874 341.853 228.557C348.666 221.24 352.072 211.021 352.072 197.901V0.722656H399.758V198.28C399.758 223.763 392.189 243.948 377.05 258.834C361.912 273.468 340.718 280.785 313.469 280.785Z" fill="var(--black)"/>

<path class="delayed-fill-3" d="M496.875 23.8088L613.82 136.591V159.298L496.118 272.837L467.355 242.181L564.241 147.944L466.977 54.8427L496.875 23.8088Z" fill="var(--black)" fill-opacity="0.25"/>

<path class="delayed-fill-4" d="M910.617 277V231.963L1021.51 44.6243H913.266V0.722656H1073.73V45.7596L962.466 233.098H1077.9V277H910.617Z" fill="var(--black)"/>

<path class="delayed-fill-5" d="M86.5394 699.785C59.5424 699.785 38.3485 692.468 22.9577 677.834C7.81924 662.948 0.25 642.763 0.25 617.28V419.723H47.9362V616.901C47.9362 630.021 51.2162 640.24 57.7762 647.557C64.3362 654.874 73.9239 658.532 86.5394 658.532C98.9024 658.532 108.364 654.874 114.924 647.557C121.736 640.24 125.142 630.021 125.142 616.901V419.723H172.829V617.28C172.829 642.763 165.259 662.948 150.121 677.834C134.983 692.468 113.789 699.785 86.5394 699.785Z" fill="var(--black)"/>

<path class="delayed-fill-6" d="M213.176 696L282.813 419.723H343.746L413.761 696H365.318L350.18 629.012H276.758L261.619 696H213.176ZM285.463 590.409H341.475L324.823 516.23C322.047 503.867 319.65 492.766 317.632 482.926C315.613 472.833 314.226 465.517 313.469 460.975C312.712 465.517 311.324 472.833 309.306 482.926C307.54 492.766 305.143 503.741 302.115 515.852L285.463 590.409Z" fill="var(--black)"/>

<path class="delayed-fill-7" d="M496.875 442.809L613.82 555.591V578.298L496.118 691.837L467.355 661.181L564.241 566.944L466.977 473.843L496.875 442.809Z" fill="var(--black)" fill-opacity="0.25"/>

<path class="delayed-fill-8" d="M995.771 699.785C978.109 699.785 962.592 696.505 949.22 689.945C936.1 683.132 925.881 673.671 918.565 661.56C911.5 649.197 907.968 634.689 907.968 618.037V497.686C907.968 480.781 911.5 466.273 918.565 454.163C925.881 442.052 936.1 432.717 949.22 426.156C962.592 419.344 978.109 415.938 995.771 415.938C1013.68 415.938 1029.08 419.344 1041.94 426.156C1055.06 432.717 1065.28 442.052 1072.6 454.163C1079.92 466.273 1083.57 480.781 1083.57 497.686H1035.89C1035.89 484.566 1032.36 474.6 1025.29 467.787C1018.48 460.975 1008.64 457.569 995.771 457.569C982.903 457.569 972.937 460.975 965.872 467.787C958.808 474.6 955.275 484.44 955.275 497.307V618.037C955.275 630.905 958.808 640.871 965.872 647.935C972.937 654.748 982.903 658.154 995.771 658.154C1008.64 658.154 1018.48 654.748 1025.29 647.935C1032.36 640.871 1035.89 630.905 1035.89 618.037H1083.57C1083.57 634.437 1079.92 648.818 1072.6 661.181C1065.28 673.545 1055.06 683.132 1041.94 689.945C1029.08 696.505 1013.68 699.785 995.771 699.785Z" fill="var(--black)"/>

<path class="delayed-fill-9" d="M1243.89 696C1223.96 696 1208.32 690.449 1196.96 679.348C1185.86 668.246 1180.31 652.981 1180.31 633.554V530.612H1123.92V487.846H1180.31V429.184H1228V487.846H1307.85V530.612H1228V633.554C1228 646.674 1234.43 653.234 1247.3 653.234H1304.07V696H1243.89Z" fill="var(--black)"/>

<path class="delayed-fill-10" d="M1370.15 696V487.846H1414.81V527.584H1426.54L1412.54 551.806C1412.54 529.35 1417.59 512.446 1427.68 501.092C1437.77 489.738 1452.66 484.061 1472.34 484.061C1494.79 484.061 1512.45 491 1525.32 504.877C1538.19 518.754 1544.62 537.929 1544.62 562.403V577.541H1495.05V565.809C1495.05 552.437 1491.51 542.092 1484.45 534.775C1477.64 527.458 1468.17 523.8 1456.06 523.8C1443.7 523.8 1434.11 527.458 1427.3 534.775C1420.74 542.092 1417.46 552.437 1417.46 565.809V696H1370.15Z" fill="var(--black)"/>

<path class="delayed-fill-11" d="M1706.84 696C1693.21 696 1681.23 693.225 1670.88 687.674C1660.79 682.123 1652.84 674.301 1647.04 664.209C1641.24 653.865 1638.33 642.006 1638.33 628.634V462.489H1571.72V419.723H1685.64V628.634C1685.64 636.203 1687.79 642.258 1692.08 646.8C1696.62 651.089 1702.67 653.234 1710.24 653.234H1773.07V696H1706.84Z" fill="var(--black)"/>

<path class="delayed-fill-12" d="M1841.42 593.058V549.157H1962.53V593.058H1841.42Z" fill="var(--black)"/>

<path class="delayed-fill-13" d="M2045.26 696V650.963L2156.15 463.624H2047.91V419.723H2208.38V464.76L2097.11 652.098H2212.54V696H2045.26Z" fill="var(--black)"/>

</svg>
