<svg width="800" height="800" viewBox="0 0 800 800" fill="none" xmlns="http://www.w3.org/2000/svg">
<g clip-path="url(#clip0_136_1094)">
<path d="M498.021 44.7395C503.402 41.2253 509.059 38.1034 514.973 35.4946C524.341 31.3717 528.591 20.4332 524.466 11.0673C520.335 1.69956 509.4 -2.55018 500.035 1.57859C483.607 8.81369 468.981 18.9132 456.081 30.4195C304.168 -15.6545 164.675 4.03907 141.019 76.3628C129.649 111.143 120.67 143.297 142.695 176.96C113.501 228.604 120.547 279.91 129.007 341.433C129.663 346.231 130.338 351.098 130.993 356.034C132.773 369.291 121.175 389.743 109.955 409.521C93.0853 439.236 75.657 469.968 96.9526 484.481C133.349 509.289 139.676 558.112 145.797 605.355C147.247 616.574 148.755 628.174 150.634 639.454C153.877 658.912 170.291 668.371 200.822 668.371C214.404 668.371 228.9 666.695 242.931 665.072C254.956 663.684 266.308 662.369 275.405 662.369C280.486 662.369 284.457 662.777 287.541 663.612C324.22 673.552 356.267 747.721 367.855 792.137C368.79 795.744 371.565 798.58 375.149 799.598C376.095 799.867 377.063 800 378.019 800C380.69 800 383.301 798.983 385.28 797.091L573.291 617.661C576.206 614.884 577.273 610.687 576.054 606.855C559.449 554.916 593.948 504.223 624.391 459.482C637.673 439.96 650.221 421.521 658.801 403.359C670.549 378.503 676.296 351.552 677.349 324.401C693.691 308.257 701.669 286.101 709.453 262.284C732.282 192.499 639.148 98.5052 498.021 44.7395Z" fill="black"/>
<path d="M498.02 44.7395C503.402 41.2253 509.058 38.1034 514.972 35.4946C524.34 31.3717 528.59 20.4332 524.465 11.0673C520.334 1.69956 509.4 -2.55018 500.034 1.57859C483.606 8.81369 468.98 18.9132 456.081 30.4195C304.167 -15.6545 164.674 4.03907 141.018 76.3628C129.648 111.143 120.669 143.297 142.694 176.96C160.648 218.371 650.873 351.712 677.348 324.401C693.69 308.257 701.668 286.101 709.452 262.284C732.281 192.499 639.148 98.5052 498.02 44.7395Z" fill="#FF0000"/>
</g>
<defs>
<clipPath id="clip0_136_1094">
<rect width="800" height="800" fill="white"/>
</clipPath>
</defs>
</svg>
