<svg width="137" height="137" viewBox="0 0 137 137" fill="none" xmlns="http://www.w3.org/2000/svg">

<style>
/* Скрываем все элементы изначально */
.rrr {
    opacity: 0;
    animation: show-step 0.5s steps(1) forwards;
}

/* Устанавливаем задержку для каждого элемента */
.rrr:nth-of-type(1) {
    animation-delay: 0s;
}

.rrr:nth-of-type(2) {
    animation-delay: 0.05s;
}

.rrr:nth-of-type(3) {
    animation-delay: 0.1s;
}

.rrr:nth-of-type(4) {
    animation-delay: 0.15s;
}

.rrr:nth-of-type(5) {
    animation-delay: 0.2s;
}

.rrr:nth-of-type(6) {
    animation-delay: 0.25s;
}

.rrr:nth-of-type(7) {
    animation-delay: 0.3s;
}

.rrr:nth-of-type(8) {
    animation-delay: 0.35s;
}

.rrr:nth-of-type(9) {
    animation-delay: 0.4s;
}.rrr:nth-of-type(1) {
    animation-delay: 0s;
}

.rrr:nth-of-type(2) {
    animation-delay: 0.02s;
}

.rrr:nth-of-type(3) {
    animation-delay: 0.04s;
}

.rrr:nth-of-type(4) {
    animation-delay: 0.06s;
}

.rrr:nth-of-type(5) {
    animation-delay: 0.08s;
}

.rrr:nth-of-type(6) {
    animation-delay: 0.1s;
}

.rrr:nth-of-type(7) {
    animation-delay: 0.12s;
}

.rrr:nth-of-type(8) {
    animation-delay: 0.14s;
}

.rrr:nth-of-type(9) {
    animation-delay: 0.16s;
}

.rrr:nth-of-type(10) {
    animation-delay: 0.18s;
}

.rrr:nth-of-type(11) {
    animation-delay: 0.2s;
}

.rrr:nth-of-type(12) {
    animation-delay: 0.22s;
}

.rrr:nth-of-type(13) {
    animation-delay: 0.24s;
}

.rrr:nth-of-type(14) {
    animation-delay: 0.26s;
}

.rrr:nth-of-type(15) {
    animation-delay: 0.28s;
}

.rrr:nth-of-type(16) {
    animation-delay: 0.3s;
}

.rrr:nth-of-type(17) {
    animation-delay: 0.32s;
}

.rrr:nth-of-type(18) {
    animation-delay: 0.34s;
}

.rrr:nth-of-type(19) {
    animation-delay: 0.36s;
}

.rrr:nth-of-type(20) {
    animation-delay: 0.38s;
}

.rrr:nth-of-type(21) {
    animation-delay: 0.4s;
}

.rrr:nth-of-type(22) {
    animation-delay: 0.42s;
}

.rrr:nth-of-type(23) {
    animation-delay: 0.44s;
}

.rrr:nth-of-type(24) {
    animation-delay: 0.46s;
}

/* Продолжайте для остальных элементов, увеличивая задержку... */

/* Убедитесь, что последний элемент остаётся видимым */
.rrr:last-of-type {
    animation-fill-mode: forwards;
}

/* Анимация, которая отображает каждый элемент */
@keyframes show-step {
    0% {
        opacity: 0;
    }
    100% {
        opacity: 1;
    }
}

</style>

<g class="rrr">
<path opacity="0.09" d="M68.5303 28.1094C57.8703 28.1094 47.6303 32.3489 40.0903 39.8877C32.5603 47.4266 28.3203 57.6623 28.3203 68.3234C28.3203 78.9845 32.5603 89.2203 40.0903 96.7593C47.6303 104.298 57.8703 108.537 68.5303 108.537C79.1903 108.537 89.4302 104.298 96.9702 96.7593C104.5 89.2203 108.74 78.9845 108.74 68.3234C108.74 57.6623 104.5 47.4266 96.9702 39.8877C89.4302 32.3489 79.1903 28.1094 68.5303 28.1094Z" fill="url(#paint0_linear_163_1230)"/>
</g>

<g class="rrr">
<path opacity="0.45" d="M68.5287 21.1797C56.0287 21.1797 44.0287 26.1497 35.1887 34.9877C26.3587 43.8257 21.3887 55.8254 21.3887 68.3237C21.3887 80.822 26.3587 92.8217 35.1887 101.66C44.0287 110.498 56.0287 115.468 68.5287 115.468C81.0287 115.468 93.0287 110.498 101.869 101.66C110.699 92.8217 115.669 80.822 115.669 68.3237C115.669 55.8254 110.699 43.8257 101.869 34.9877C93.0287 26.1497 81.0287 21.1797 68.5287 21.1797Z" fill="url(#paint1_linear_163_1230)"/>
</g>

<g class="rrr">
<path opacity="0.78" d="M68.5287 15.4375C54.5087 15.4375 41.0487 21.0132 31.1287 30.9282C21.2187 40.8432 15.6387 54.3051 15.6387 68.3264C15.6387 82.3478 21.2187 95.8096 31.1287 105.724C41.0487 115.639 54.5087 121.215 68.5287 121.215C82.5487 121.215 96.0087 115.639 105.929 105.724C115.839 95.8096 121.419 82.3478 121.419 68.3264C121.419 54.3051 115.839 40.8432 105.929 30.9282C96.0087 21.0132 82.5487 15.4375 68.5287 15.4375Z" fill="url(#paint2_linear_163_1230)"/>
</g>

<g class="rrr">
<path opacity="0.92" d="M68.5286 10.7812C53.2686 10.7812 38.6286 16.848 27.8386 27.6363C17.0486 38.4246 10.9785 53.0723 10.9785 68.3287C10.9785 83.585 17.0486 98.2327 27.8386 109.021C38.6286 119.81 53.2686 125.876 68.5286 125.876C83.7886 125.876 98.4285 119.81 109.219 109.021C120.009 98.2327 126.079 83.585 126.079 68.3287C126.079 53.0723 120.009 38.4246 109.219 27.6363C98.4285 16.848 83.7886 10.7812 68.5286 10.7812Z" fill="url(#paint3_linear_163_1230)"/>
<path fill-rule="evenodd" clip-rule="evenodd" d="M35.1594 115.211C35.4694 112.906 35.7194 110.873 35.8694 109.251C35.9494 108.455 35.8494 107.434 35.7694 106.986C35.6994 106.538 35.5395 105.9 34.9495 105.428C34.2695 104.868 33.1994 104.75 32.7194 104.758C31.4794 104.78 29.8595 105.169 25.6895 106.752C26.3795 107.525 27.0995 108.282 27.8395 109.02C30.1195 111.299 32.5694 113.367 35.1594 115.211Z" fill="white"/>
</g>

<g class="rrr">
<path opacity="0.98" d="M68.5286 7.10938C52.2986 7.10938 36.7185 13.5632 25.2385 25.0396C13.7685 36.5161 7.30859 52.0981 7.30859 68.3275C7.30859 84.557 13.7685 100.139 25.2385 111.616C36.7185 123.092 52.2986 129.546 68.5286 129.546C84.7586 129.546 100.339 123.092 111.819 111.616C123.289 100.139 129.749 84.557 129.749 68.3275C129.749 52.0981 123.289 36.5161 111.819 25.0396C100.339 13.5632 84.7586 7.10938 68.5286 7.10938Z" fill="url(#paint4_linear_163_1230)"/>
<path fill-rule="evenodd" clip-rule="evenodd" d="M40.8895 122.954C42.2395 114.648 43.4295 106.532 43.8895 101.764C43.9695 100.917 43.8595 99.8308 43.7795 99.3548C43.6995 98.8788 43.5295 98.1998 42.9095 97.6968C42.1795 97.1008 41.0496 96.9758 40.5396 96.9848C38.3096 97.0248 34.9295 98.1778 19.2695 104.675C21.0095 107.042 22.9395 109.293 25.0295 111.406C25.6095 111.049 25.9496 110.86 26.0396 110.839C26.4196 110.753 26.9496 110.644 27.3096 110.963C27.6696 111.28 27.6296 111.883 27.5896 112.044C27.5496 112.209 27.2696 112.584 26.7896 113.114C31.0396 117.071 35.7895 120.373 40.8895 122.954Z" fill="white"/>
</g>

<g class="rrr">
<path d="M68.5293 4.32812C51.5593 4.32812 35.2693 11.0751 23.2793 23.0731C11.2793 35.0711 4.5293 51.3611 4.5293 68.3281C4.5293 85.2951 11.2793 101.585 23.2793 113.583C35.2693 125.581 51.5593 132.328 68.5293 132.328C85.4993 132.328 101.789 125.581 113.779 113.583C125.779 101.585 132.529 85.2951 132.529 68.3281C132.529 51.3611 125.779 35.0711 113.779 23.0731C101.789 11.0751 85.4993 4.32812 68.5293 4.32812Z" fill="url(#paint5_linear_163_1230)"/>
<path fill-rule="evenodd" clip-rule="evenodd" d="M48.9689 129.267C51.1589 116.843 53.9989 99.4026 54.7689 91.2748C54.8589 90.3888 54.7489 89.2538 54.6689 88.7558C54.5789 88.2578 54.3989 87.5478 53.7589 87.0228C52.9889 86.3998 51.8089 86.2688 51.2789 86.2778C48.8689 86.3208 45.1789 87.6048 27.3989 94.9978C24.2989 96.2884 19.649 98.2676 13.459 100.935C15.529 104.437 17.949 107.753 20.679 110.83C30.549 104.214 35.6989 100.858 36.1189 100.762C36.5189 100.672 37.069 100.558 37.439 100.891C37.819 101.223 37.7789 101.853 37.7389 102.022C37.5289 102.943 29.859 110.149 24.689 114.959C31.669 121.522 39.9889 126.382 48.9689 129.267Z" fill="white"/>
</g>

<g class="rrr">
<path d="M68.5291 2.33594C51.0391 2.33594 34.239 9.29294 21.869 21.6643C9.49902 34.0357 2.53906 50.8326 2.53906 68.3277C2.53906 85.8227 9.49902 102.62 21.869 114.991C34.239 127.363 51.0391 134.32 68.5291 134.32C86.0291 134.32 102.819 127.363 115.189 114.991C127.559 102.62 134.519 85.8227 134.519 68.3277C134.519 50.8326 127.559 34.0357 115.189 21.6643C102.819 9.29294 86.0291 2.33594 68.5291 2.33594Z" fill="url(#paint6_linear_163_1230)"/>
<path fill-rule="evenodd" clip-rule="evenodd" d="M56.229 133.163C56.889 132.109 57.449 130.586 57.849 128.45C60.039 116.762 64.3391 91.4394 65.3291 81.0045C65.4191 80.0909 65.309 78.9206 65.219 78.4071C65.129 77.8936 64.9491 77.1615 64.2791 76.6202C63.4891 75.9778 62.269 75.8427 61.719 75.852C59.239 75.8963 55.429 77.2203 37.109 84.8433C31.929 86.9979 22.5691 91.0128 9.03906 96.8876C11.2491 101.49 13.989 105.842 17.239 109.848C17.569 109.643 17.909 109.422 18.259 109.185C36.229 97.0516 45.5091 90.9187 46.0891 90.7867C46.4991 90.6939 47.0691 90.5764 47.4591 90.9197C47.8491 91.2621 47.809 91.9117 47.769 92.0859C47.519 93.1474 37.6591 102.317 32.5391 107.069C30.9491 108.554 29.8091 109.607 29.5791 109.847C29.0691 110.385 28.5391 110.893 28.0291 111.382C24.8991 114.399 22.5491 116.662 28.1591 120.358C30.8591 122.136 33.0191 123.606 35.1691 125.074C35.7391 125.458 36.299 125.842 36.879 126.231C42.909 129.531 49.439 131.875 56.229 133.163Z" fill="white"/>
</g>

<g class="rrr">
<path d="M68.5283 1.03125C50.6883 1.03125 33.5584 8.12534 20.9484 20.7405C8.32836 33.3556 1.23828 50.4836 1.23828 68.3234C1.23828 86.1632 8.32836 103.291 20.9484 115.906C33.5584 128.521 50.6883 135.615 68.5283 135.615C86.3683 135.615 103.498 128.521 116.108 115.906C128.728 103.291 135.818 86.1632 135.818 68.3234C135.818 50.4836 128.728 33.3556 116.108 20.7405C103.498 8.12534 86.3683 1.03125 68.5283 1.03125Z" fill="url(#paint7_linear_163_1230)"/>
<path fill-rule="evenodd" clip-rule="evenodd" d="M10.2673 101.997C13.3473 102.931 16.8174 103.82 18.7874 103.862C20.9674 103.909 23.3974 103.01 26.0874 101.166C44.4174 88.7938 53.8773 82.5398 54.4673 82.4052C54.8873 82.3106 55.4674 82.1908 55.8574 82.5409C56.2574 82.89 56.2172 83.5524 56.1772 83.7301C55.9172 84.8124 45.8675 94.1624 40.6475 99.0082C39.0275 100.522 37.8675 101.596 37.6375 101.841C37.1075 102.389 36.5674 102.907 36.0474 103.405C32.8574 106.482 30.4673 108.79 36.1873 112.558C38.9373 114.372 41.1374 115.871 43.3374 117.367C45.7274 118.996 48.1173 120.622 51.1973 122.646C51.9873 123.162 52.7373 123.699 53.4773 124.221C56.2673 126.208 58.7674 127.993 61.8574 127.708C63.6574 127.543 65.5173 125.853 66.4573 120.81C68.6873 108.892 73.0674 83.0708 74.0874 72.4302C74.1674 71.4987 74.0573 70.3053 73.9673 69.7817C73.8773 69.258 73.6973 68.5115 73.0173 67.9595C72.2073 67.3045 70.9672 67.1667 70.4072 67.1762C67.8772 67.2214 63.9874 68.5714 45.3074 76.3447C38.7574 79.0669 25.6774 84.7016 6.05737 93.2477C6.04737 93.2519 6.03734 93.2562 6.02734 93.2604C7.22734 96.2678 8.64733 99.1882 10.2673 101.997Z" fill="white"/>
</g>

<g class="rrr">
<path d="M68.5293 0.328125C50.4993 0.328125 33.1892 7.49682 20.4492 20.2447C7.69922 32.9925 0.529297 50.3007 0.529297 68.3281C0.529297 86.3555 7.69922 103.664 20.4492 116.411C33.1892 129.159 50.4993 136.328 68.5293 136.328C86.5593 136.328 103.869 129.159 116.609 116.411C129.359 103.664 136.529 86.3555 136.529 68.3281C136.529 50.3007 129.359 32.9925 116.609 20.2447C103.869 7.49682 86.5593 0.328125 68.5293 0.328125Z" fill="url(#paint8_linear_163_1230)"/>
<path d="M12.2298 86.6861C32.0598 78.0501 45.2799 72.3562 51.8899 69.6053C70.7699 61.7503 74.6998 60.386 77.2598 60.3403C77.8198 60.3308 79.0799 60.47 79.8899 61.1319C80.5799 61.6897 80.7699 62.4441 80.8599 62.9732C80.9499 63.5023 81.0598 64.7083 80.9698 65.6497C79.9498 76.4022 75.5198 102.495 73.2698 114.538C72.3098 119.634 70.4399 121.343 68.6199 121.509C64.6699 121.873 61.6699 118.9 57.8499 116.393C51.8599 112.47 48.4797 110.028 42.6697 106.2C35.9597 101.776 40.3099 99.3432 44.1399 95.3699C45.1399 94.3297 62.5399 78.5038 62.8699 77.0683C62.9199 76.8888 62.9598 76.2194 62.5598 75.8667C62.1598 75.5128 61.5699 75.634 61.1499 75.7296C60.5499 75.8656 50.9898 82.1853 32.4698 94.6878C29.7498 96.5512 27.2999 97.4602 25.0899 97.4122C22.6699 97.3602 17.9998 96.0393 14.5198 94.9109C10.2598 93.5265 6.87971 92.7944 7.16971 90.4431C7.32971 89.2191 9.00976 87.9664 12.2298 86.6861Z" fill="white"/>
</g>

<g class="rrr">
<path d="M68.5303 0.109375C50.4503 0.109375 33.0803 7.30065 20.3003 20.0886C7.51029 32.8766 0.320312 50.2392 0.320312 68.3233C0.320312 86.4075 7.51029 103.77 20.3003 116.558C33.0803 129.346 50.4503 136.537 68.5303 136.537C86.6103 136.537 103.98 129.346 116.76 116.558C129.55 103.77 136.74 86.4075 136.74 68.3233C136.74 50.2392 129.55 32.8766 116.76 20.0886C103.98 7.30065 86.6103 0.109375 68.5303 0.109375Z" fill="url(#paint9_linear_163_1230)"/>
<path d="M17.3122 81.4915C37.1922 72.8283 50.4523 67.1165 57.0923 64.357C76.0323 56.4772 79.9722 55.1088 82.5322 55.063C83.1022 55.0534 84.3621 55.193 85.1821 55.857C85.8721 56.4166 86.0623 57.1732 86.1523 57.704C86.2423 58.2348 86.3522 59.4445 86.2622 60.3889C85.2422 71.1752 80.7922 97.3502 78.5322 109.431C77.5822 114.543 75.7023 116.257 73.8723 116.424C69.9123 116.789 66.9022 113.807 63.0722 111.292C57.0622 107.356 53.6723 104.907 47.8423 101.067C41.1123 96.6291 45.4722 94.189 49.3122 90.2028C50.3222 89.1593 67.7723 73.2836 68.1123 71.8436C68.1523 71.6635 68.1922 70.9919 67.7922 70.638C67.3922 70.2831 66.8023 70.4047 66.3823 70.5006C65.7823 70.6371 56.1823 76.9766 37.6123 89.5184C34.8823 91.3879 32.4221 92.2993 30.2121 92.2513C27.7721 92.1991 23.0923 90.8742 19.6023 89.7422C15.3323 88.3534 11.9422 87.6192 12.2322 85.2605C12.3922 84.0326 14.0822 82.7759 17.3122 81.4915Z" fill="white"/>
</g>

<g class="rrr">
<path d="M68.53 0.296875C50.49 0.296875 33.1799 7.46898 20.4199 20.2231C7.66992 32.9771 0.5 50.2936 0.5 68.3298C0.5 86.366 7.66992 103.683 20.4199 116.437C33.1799 129.191 50.49 136.363 68.53 136.363C86.57 136.363 103.88 129.191 116.64 116.437C129.39 103.683 136.56 86.366 136.56 68.3298C136.56 50.2936 129.39 32.9771 116.64 20.2231C103.88 7.46898 86.57 0.296875 68.53 0.296875Z" fill="url(#paint10_linear_163_1230)"/>
<path d="M21.4692 77.4371C41.2992 68.7969 54.5193 63.1002 61.1393 60.3481C80.0393 52.4892 83.9592 51.1243 86.5192 51.0786C87.0792 51.069 88.3391 51.2083 89.1591 51.8705C89.8491 52.4286 90.0293 53.1834 90.1193 53.7127C90.2193 54.2421 90.3292 55.4486 90.2392 56.3905C89.2092 67.1482 84.7792 93.2537 82.5292 105.303C81.5792 110.401 79.6993 112.11 77.8793 112.277C73.9293 112.641 70.9293 109.667 67.0993 107.159C61.1193 103.233 57.7291 100.79 51.9191 96.9601C45.1991 92.534 49.5593 90.1008 53.3893 86.1251C54.3893 85.0844 71.7993 69.2508 72.1293 67.8147C72.1693 67.635 72.2093 66.9653 71.8193 66.6124C71.4193 66.2584 70.8291 66.3796 70.4091 66.4753C69.8091 66.6114 60.2392 72.9342 41.7092 85.4427C38.9992 87.3072 36.5393 88.2161 34.3293 88.1682C31.8993 88.1161 27.2292 86.7948 23.7592 85.6659C19.4992 84.2808 16.1091 83.5484 16.4091 81.1959C16.5591 79.9713 18.2492 78.718 21.4692 77.4371Z" fill="white"/>
</g>

<g class="rrr">
<path d="M68.5288 0.773438C50.6188 0.773438 33.4288 7.8953 20.7588 20.5598C8.09879 33.2244 0.96875 50.4194 0.96875 68.329C0.96875 86.2386 8.09879 103.434 20.7588 116.098C33.4288 128.763 50.6188 135.884 68.5288 135.884C86.4388 135.884 103.629 128.763 116.299 116.098C128.959 103.434 136.089 86.2386 136.089 68.329C136.089 50.4194 128.959 33.2244 116.299 20.5598C103.629 7.8953 86.4388 0.773438 68.5288 0.773438Z" fill="url(#paint11_linear_163_1230)"/>
<path d="M24.8589 74.303C44.5589 65.7234 57.6888 60.0667 64.2588 57.3338C83.0188 49.5301 86.9188 48.1748 89.4588 48.1294C90.0188 48.1199 91.2689 48.2582 92.0789 48.9158C92.7589 49.4699 92.9488 50.2194 93.0388 50.7451C93.1288 51.2707 93.239 52.4688 93.149 53.404C92.139 64.0862 87.7388 90.0086 85.4988 101.974C84.5488 107.036 82.6889 108.733 80.8789 108.899C76.9589 109.26 73.9787 106.307 70.1787 103.817C64.2387 99.9177 60.8789 97.4927 55.0989 93.6893C48.4289 89.294 52.7589 86.8778 56.5589 82.93C57.5489 81.8966 74.8387 66.1741 75.1687 64.7481C75.2187 64.5697 75.2589 63.9047 74.8589 63.5542C74.4589 63.2027 73.8788 63.3231 73.4588 63.4181C72.8688 63.5532 63.3688 69.8315 44.9688 82.2523C42.2688 84.1037 39.829 85.0063 37.639 84.9588C35.229 84.9071 30.5889 83.595 27.1389 82.474C22.9089 81.0986 19.5389 80.3713 19.8389 78.0354C19.9889 76.8194 21.6689 75.5749 24.8589 74.303Z" fill="white"/>
</g>

<g class="rrr">
<path d="M68.5283 1.44531C50.7983 1.44531 33.7783 8.49597 21.2383 21.0341C8.69828 33.5721 1.64844 50.5953 1.64844 68.326C1.64844 86.0567 8.69828 103.08 21.2383 115.618C33.7783 128.156 50.7983 135.206 68.5283 135.206C86.2583 135.206 103.278 128.156 115.818 115.618C128.358 103.08 135.408 86.0567 135.408 68.326C135.408 50.5953 128.358 33.5721 115.818 21.0341C103.278 8.49597 86.2583 1.44531 68.5283 1.44531Z" fill="url(#paint12_linear_163_1230)"/>
<path d="M27.597 71.9399C47.097 63.4461 60.097 57.8459 66.607 55.1403C85.177 47.4146 89.0369 46.0728 91.5569 46.0278C92.1069 46.0184 93.347 46.1553 94.147 46.8064C94.817 47.355 95.007 48.097 95.097 48.6174C95.187 49.1378 95.2968 50.3239 95.2068 51.2498C94.1968 61.8253 89.847 87.4886 87.627 99.3337C86.697 104.346 84.8469 106.026 83.0569 106.19C79.1769 106.548 76.2268 103.624 72.4668 101.159C66.5768 97.2987 63.2569 94.8977 57.5369 91.1326C50.9369 86.7811 55.2168 84.3891 58.9768 80.4808C59.9668 79.4577 77.0768 63.8923 77.4068 62.4805C77.4468 62.3039 77.487 61.6455 77.097 61.2986C76.707 60.9506 76.1268 61.0697 75.7168 61.1638C75.1268 61.2975 65.7169 67.5133 47.5069 79.8099C44.8369 81.6428 42.4169 82.5363 40.2469 82.4893C37.8569 82.4381 33.267 81.1391 29.857 80.0293C25.667 78.6677 22.337 77.9477 22.627 75.6351C22.777 74.4312 24.437 73.1992 27.597 71.9399Z" fill="white"/>
</g>

<g class="rrr">
<path d="M68.53 2.21875C51 2.21875 34.18 9.18788 21.79 21.5809C9.39004 33.9739 2.41992 50.8002 2.41992 68.3258C2.41992 85.8513 9.39004 102.678 21.79 115.071C34.18 127.464 51 134.433 68.53 134.433C86.06 134.433 102.88 127.464 115.27 115.071C127.67 102.678 134.64 85.8513 134.64 68.3258C134.64 50.8002 127.67 33.9739 115.27 21.5809C102.88 9.18788 86.06 2.21875 68.53 2.21875Z" fill="url(#paint13_linear_163_1230)"/>
<path d="M29.7698 70.2065C49.0398 61.8109 61.8898 56.2755 68.3198 53.6013C86.6798 45.9649 90.4897 44.6386 92.9797 44.5942C93.5297 44.5849 94.7498 44.7202 95.5398 45.3637C96.2098 45.906 96.3897 46.6394 96.4797 47.1538C96.5697 47.6682 96.6798 48.8405 96.5898 49.7557C95.5998 60.2089 91.2898 85.5754 89.0998 97.2837C88.1798 102.238 86.3498 103.899 84.5798 104.061C80.7498 104.414 77.8298 101.524 74.1098 99.0867C68.2898 95.2725 65.0098 92.8988 59.3598 89.1772C52.8298 84.8761 57.0598 82.5117 60.7798 78.6486C61.7598 77.6374 78.6697 62.252 78.9997 60.8565C79.0397 60.682 79.0797 60.0312 78.6897 59.6883C78.2997 59.3443 77.7298 59.4621 77.3198 59.555C76.7398 59.6873 67.4397 65.8311 49.4397 77.9855C46.7997 79.7972 44.4098 80.6804 42.2698 80.6339C39.9098 80.5833 35.3697 79.2993 31.9897 78.2024C27.8497 76.8565 24.5598 76.1448 24.8498 73.859C24.9998 72.669 26.6398 71.4512 29.7698 70.2065Z" fill="white"/>
</g>

<g class="rrr">
<path d="M68.5293 2.99219C51.2093 2.99219 34.5793 9.87979 22.3293 22.1277C10.0793 34.3757 3.19922 51.0051 3.19922 68.3255C3.19922 85.646 10.0793 102.276 22.3293 114.524C34.5793 126.772 51.2093 133.659 68.5293 133.659C85.8493 133.659 102.479 126.772 114.729 114.524C126.979 102.276 133.859 85.646 133.859 68.3255C133.859 51.0051 126.979 34.3757 114.729 22.1277C102.479 9.87979 85.8493 2.99219 68.5293 2.99219Z" fill="url(#paint14_linear_163_1230)"/>
<path d="M31.4099 68.9927C50.4599 60.6953 63.16 55.2247 69.51 52.5818C87.66 45.0347 91.4301 43.724 93.8801 43.6801C94.4201 43.6709 95.6299 43.8046 96.4199 44.4406C97.0799 44.9766 97.2601 45.7014 97.3501 46.2097C97.4301 46.7181 97.5399 47.8767 97.4499 48.7812C96.4699 59.112 92.22 84.1817 90.05 95.7528C89.14 100.649 87.3301 102.29 85.5901 102.45C81.7901 102.799 78.91 99.9432 75.24 97.5352C69.49 93.7652 66.2399 91.4194 60.6599 87.7413C54.2099 83.4905 58.3901 81.1539 62.0701 77.3359C63.0301 76.3366 79.7401 61.1312 80.0701 59.7521C80.1101 59.5796 80.15 58.9364 79.76 58.5975C79.38 58.2576 78.8199 58.374 78.4099 58.4658C77.8299 58.5965 68.6501 64.6684 50.8501 76.6806C48.2501 78.4711 45.88 79.3439 43.77 79.298C41.43 79.248 36.9501 77.9791 33.6101 76.8949C29.5201 75.5648 26.27 74.8614 26.55 72.6023C26.7 71.4263 28.3199 70.2228 31.4099 68.9927Z" fill="white"/>
</g>

<g class="rrr">
<path d="M68.5291 3.67188C51.3891 3.67188 34.9291 10.4883 22.8091 22.6097C10.6891 34.7312 3.86914 51.1888 3.86914 68.3303C3.86914 85.4719 10.6891 101.929 22.8091 114.051C34.9291 126.172 51.3891 132.989 68.5291 132.989C85.6691 132.989 102.129 126.172 114.249 114.051C126.369 101.929 133.189 85.4719 133.189 68.3303C133.189 51.1888 126.369 34.7312 114.249 22.6097C102.129 10.4883 85.6691 3.67188 68.5291 3.67188Z" fill="url(#paint15_linear_163_1230)"/>
<path d="M32.5692 68.2156C51.4192 60.004 63.9892 54.5898 70.2792 51.9742C88.2292 44.5052 91.9693 43.2079 94.3993 43.1645C94.9293 43.1554 96.1293 43.2878 96.8993 43.9172C97.5593 44.4476 97.7392 45.1649 97.8192 45.668C97.9092 46.1711 98.0191 47.3178 97.9291 48.2129C96.9591 58.437 92.7493 83.2477 90.6093 94.6993C89.6993 99.5446 87.9191 101.17 86.1891 101.328C82.4291 101.674 79.5791 98.8466 75.9391 96.4636C70.2491 92.7323 67.0392 90.4106 61.5092 86.7705C55.1292 82.5637 59.2691 80.2512 62.9091 76.4727C63.8591 75.4836 80.3991 60.4354 80.7191 59.0705C80.7591 58.8997 80.7991 58.2633 80.4191 57.9278C80.0391 57.5914 79.4892 57.7066 79.0792 57.7975C78.5092 57.9268 69.4192 63.936 51.8092 75.8241C49.2292 77.5961 46.8892 78.4599 44.7992 78.4145C42.4892 78.365 38.0492 77.1092 34.7492 76.0362C30.6992 74.7198 27.4792 74.0237 27.7592 71.788C27.9092 70.6241 29.5092 69.433 32.5692 68.2156Z" fill="white"/>
</g>

<g class="rrr">
<path d="M68.5295 4.14844C51.5095 4.14844 35.1797 10.9145 23.1497 22.9465C11.1097 34.9784 4.34961 51.3145 4.34961 68.3295C4.34961 85.3445 11.1097 101.681 23.1497 113.713C35.1797 125.745 51.5095 132.511 68.5295 132.511C85.5395 132.511 101.879 125.745 113.909 113.713C125.939 101.681 132.709 85.3445 132.709 68.3295C132.709 51.3145 125.939 34.9784 113.909 22.9465C101.879 10.9145 85.5395 4.14844 68.5295 4.14844Z" fill="url(#paint16_linear_163_1230)"/>
<path d="M33.2698 67.7845C51.9798 59.6335 64.4497 54.2594 70.6997 51.663C88.5197 44.2491 92.2199 42.9615 94.6399 42.9184C95.1699 42.9093 96.3499 43.0407 97.1199 43.6655C97.7699 44.192 97.9498 44.904 98.0398 45.4034C98.1198 45.9028 98.2299 47.041 98.1399 47.9295C97.1799 58.0781 92.9999 82.7056 90.8699 94.0727C89.9699 98.8821 88.1997 100.495 86.4897 100.652C82.7597 100.995 79.9298 98.1891 76.3198 95.8236C70.6698 92.1202 67.4797 89.8157 61.9997 86.2025C55.6597 82.0267 59.7699 79.7312 63.3799 75.9806C64.3199 74.9989 80.7498 60.0617 81.0598 58.7069C81.0998 58.5374 81.1398 57.9056 80.7698 57.5727C80.3898 57.2388 79.8397 57.3531 79.4397 57.4433C78.8697 57.5717 69.8498 63.5365 52.3598 75.3368C49.7998 77.0958 47.4799 77.9532 45.3999 77.9081C43.1099 77.8589 38.7097 76.6124 35.4297 75.5474C31.4097 74.2407 28.2097 73.5498 28.4897 71.3305C28.6397 70.1753 30.2298 68.9929 33.2698 67.7845Z" fill="white"/>
</g>

<g class="rrr">
<path d="M68.5293 4.32812C51.5593 4.32812 35.2693 11.0751 23.2793 23.0731C11.2793 35.0711 4.5293 51.3611 4.5293 68.3281C4.5293 85.2951 11.2793 101.585 23.2793 113.583C35.2693 125.581 51.5593 132.328 68.5293 132.328C85.4993 132.328 101.789 125.581 113.779 113.583C125.779 101.585 132.529 85.2951 132.529 68.3281C132.529 51.3611 125.779 35.0711 113.779 23.0731C101.789 11.0751 85.4993 4.32812 68.5293 4.32812Z" fill="url(#paint17_linear_163_1230)"/>
<path d="M33.4998 67.6519C52.1598 59.5239 64.5999 54.1649 70.8199 51.5759C88.5999 44.1829 92.2897 42.8989 94.6997 42.8559C95.2297 42.8469 96.4097 42.9779 97.1797 43.6009C97.8297 44.1259 97.9999 44.8359 98.0899 45.3339C98.1699 45.8319 98.2797 46.9669 98.1997 47.8529C97.2297 57.9729 93.0597 82.5309 90.9397 93.8659C90.0497 98.6621 88.2799 100.27 86.5699 100.427C82.8499 100.769 80.0297 97.9711 76.4297 95.6119C70.7997 91.9189 67.6199 89.6209 62.1499 86.0179C55.8299 81.8539 59.9298 79.5649 63.5298 75.8249C64.4698 74.8459 80.8497 59.9509 81.1597 58.5999C81.1997 58.4309 81.2399 57.8009 80.8699 57.4689C80.4899 57.1359 79.9398 57.2499 79.5398 57.3399C78.9798 57.4679 69.9798 63.4159 52.5398 75.1829C49.9898 76.9369 47.6799 77.7919 45.5999 77.7469C43.3199 77.6979 38.9197 76.4549 35.6597 75.3929C31.6497 74.0899 28.4598 73.4009 28.7398 71.1879C28.8798 70.0359 30.4698 68.8569 33.4998 67.6519Z" fill="white"/>
</g>

<g class="rrr">
<path d="M68.5293 4.32812C51.5593 4.32812 35.2693 11.0751 23.2793 23.0731C11.2793 35.0711 4.5293 51.3611 4.5293 68.3281C4.5293 85.2951 11.2793 101.585 23.2793 113.583C35.2693 125.581 51.5593 132.328 68.5293 132.328C85.4993 132.328 101.789 125.581 113.779 113.583C125.779 101.585 132.529 85.2951 132.529 68.3281C132.529 51.3611 125.779 35.0711 113.779 23.0731C101.789 11.0751 85.4993 4.32812 68.5293 4.32812Z" fill="url(#paint18_linear_163_1230)"/>
<path d="M33.4998 67.6519C52.1598 59.5239 64.5999 54.1649 70.8199 51.5759C88.5999 44.1829 92.2897 42.8989 94.6997 42.8559C95.2297 42.8469 96.4097 42.9779 97.1797 43.6009C97.8297 44.1259 97.9999 44.8359 98.0899 45.3339C98.1699 45.8319 98.2797 46.9669 98.1997 47.8529C97.2297 57.9729 93.0597 82.5309 90.9397 93.8659C90.0497 98.6621 88.2799 100.27 86.5699 100.427C82.8499 100.769 80.0297 97.9711 76.4297 95.6119C70.7997 91.9189 67.6199 89.6209 62.1499 86.0179C55.8299 81.8539 59.9298 79.5649 63.5298 75.8249C64.4698 74.8459 80.8497 59.9509 81.1597 58.5999C81.1997 58.4309 81.2399 57.8009 80.8699 57.4689C80.4899 57.1359 79.9398 57.2499 79.5398 57.3399C78.9798 57.4679 69.9798 63.4159 52.5398 75.1829C49.9898 76.9369 47.6799 77.7919 45.5999 77.7469C43.3199 77.6979 38.9197 76.4549 35.6597 75.3929C31.6497 74.0899 28.4598 73.4009 28.7398 71.1879C28.8798 70.0359 30.4698 68.8569 33.4998 67.6519Z" fill="white"/>
</g>

<g class="rrr">
<path d="M68.5293 4.32812C51.5593 4.32812 35.2693 11.0751 23.2793 23.0731C11.2793 35.0711 4.5293 51.3611 4.5293 68.3281C4.5293 85.2951 11.2793 101.585 23.2793 113.583C35.2693 125.581 51.5593 132.328 68.5293 132.328C85.4993 132.328 101.789 125.581 113.779 113.583C125.779 101.585 132.529 85.2951 132.529 68.3281C132.529 51.3611 125.779 35.0711 113.779 23.0731C101.789 11.0751 85.4993 4.32812 68.5293 4.32812Z" fill="url(#paint19_linear_163_1230)"/>
<path d="M33.4998 67.6519C52.1598 59.5239 64.5999 54.1649 70.8199 51.5759C88.5999 44.1829 92.2897 42.8989 94.6997 42.8559C95.2297 42.8469 96.4097 42.9779 97.1797 43.6009C97.8297 44.1259 97.9999 44.8359 98.0899 45.3339C98.1699 45.8319 98.2797 46.9669 98.1997 47.8529C97.2297 57.9729 93.0597 82.5309 90.9397 93.8659C90.0497 98.6621 88.2799 100.27 86.5699 100.427C82.8499 100.769 80.0297 97.9711 76.4297 95.6119C70.7997 91.9189 67.6199 89.6209 62.1499 86.0179C55.8299 81.8539 59.9298 79.5649 63.5298 75.8249C64.4698 74.8459 80.8497 59.9509 81.1597 58.5999C81.1997 58.4309 81.2399 57.8009 80.8699 57.4689C80.4899 57.1359 79.9398 57.2499 79.5398 57.3399C78.9798 57.4679 69.9798 63.4159 52.5398 75.1829C49.9898 76.9369 47.6799 77.7919 45.5999 77.7469C43.3199 77.6979 38.9197 76.4549 35.6597 75.3929C31.6497 74.0899 28.4598 73.4009 28.7398 71.1879C28.8798 70.0359 30.4698 68.8569 33.4998 67.6519Z" fill="white"/>
</g>

<g class="rrr">
<path d="M68.5293 4.32812C51.5593 4.32812 35.2693 11.0751 23.2793 23.0731C11.2793 35.0711 4.5293 51.3611 4.5293 68.3281C4.5293 85.2951 11.2793 101.585 23.2793 113.583C35.2693 125.581 51.5593 132.328 68.5293 132.328C85.4993 132.328 101.789 125.581 113.779 113.583C125.779 101.585 132.529 85.2951 132.529 68.3281C132.529 51.3611 125.779 35.0711 113.779 23.0731C101.789 11.0751 85.4993 4.32812 68.5293 4.32812Z" fill="url(#paint20_linear_163_1230)"/>
<path d="M33.4998 67.6519C52.1598 59.5239 64.5999 54.1649 70.8199 51.5759C88.5999 44.1829 92.2897 42.8989 94.6997 42.8559C95.2297 42.8469 96.4097 42.9779 97.1797 43.6009C97.8297 44.1259 97.9999 44.8359 98.0899 45.3339C98.1699 45.8319 98.2797 46.9669 98.1997 47.8529C97.2297 57.9729 93.0597 82.5309 90.9397 93.8659C90.0497 98.6621 88.2799 100.27 86.5699 100.427C82.8499 100.769 80.0297 97.9711 76.4297 95.6119C70.7997 91.9189 67.6199 89.6209 62.1499 86.0179C55.8299 81.8539 59.9298 79.5649 63.5298 75.8249C64.4698 74.8459 80.8497 59.9509 81.1597 58.5999C81.1997 58.4309 81.2399 57.8009 80.8699 57.4689C80.4899 57.1359 79.9398 57.2499 79.5398 57.3399C78.9798 57.4679 69.9798 63.4159 52.5398 75.1829C49.9898 76.9369 47.6799 77.7919 45.5999 77.7469C43.3199 77.6979 38.9197 76.4549 35.6597 75.3929C31.6497 74.0899 28.4598 73.4009 28.7398 71.1879C28.8798 70.0359 30.4698 68.8569 33.4998 67.6519Z" fill="white"/>
</g>

<g class="rrr">
<path d="M68.5293 4.32812C51.5593 4.32812 35.2693 11.0751 23.2793 23.0731C11.2793 35.0711 4.5293 51.3611 4.5293 68.3281C4.5293 85.2951 11.2793 101.585 23.2793 113.583C35.2693 125.581 51.5593 132.328 68.5293 132.328C85.4993 132.328 101.789 125.581 113.779 113.583C125.779 101.585 132.529 85.2951 132.529 68.3281C132.529 51.3611 125.779 35.0711 113.779 23.0731C101.789 11.0751 85.4993 4.32812 68.5293 4.32812Z" fill="url(#paint21_linear_163_1230)"/>
<path d="M33.4998 67.6519C52.1598 59.5239 64.5999 54.1649 70.8199 51.5759C88.5999 44.1829 92.2897 42.8989 94.6997 42.8559C95.2297 42.8469 96.4097 42.9779 97.1797 43.6009C97.8297 44.1259 97.9999 44.8359 98.0899 45.3339C98.1699 45.8319 98.2797 46.9669 98.1997 47.8529C97.2297 57.9729 93.06 82.5309 90.94 93.8659C90.05 98.6621 88.2799 100.27 86.5699 100.427C82.8499 100.769 80.0297 97.9711 76.4297 95.6119C70.7997 91.9189 67.6199 89.6209 62.1499 86.0179C55.8299 81.8539 59.9298 79.5649 63.5298 75.8249C64.4698 74.8459 80.8497 59.9509 81.1597 58.5999C81.1997 58.4309 81.2397 57.8009 80.8697 57.4689C80.4897 57.1359 79.9396 57.2499 79.5396 57.3399C78.9796 57.4679 69.9798 63.4159 52.5398 75.1829C49.9898 76.9369 47.6799 77.7919 45.5999 77.7469C43.3199 77.6979 38.9197 76.4549 35.6597 75.3929C31.6497 74.0899 28.4598 73.4009 28.7398 71.1879C28.8798 70.0359 30.4698 68.8569 33.4998 67.6519Z" fill="white"/>
</g>

<g class="rrr">
<path d="M68.5293 4.32812C51.5593 4.32812 35.2693 11.0751 23.2793 23.0731C11.2793 35.0711 4.5293 51.3611 4.5293 68.3281C4.5293 85.2951 11.2793 101.585 23.2793 113.583C35.2693 125.581 51.5593 132.328 68.5293 132.328C85.4993 132.328 101.789 125.581 113.779 113.583C125.779 101.585 132.529 85.2951 132.529 68.3281C132.529 51.3611 125.779 35.0711 113.779 23.0731C101.789 11.0751 85.4993 4.32812 68.5293 4.32812Z" fill="url(#paint22_linear_163_1230)"/>
<path d="M33.5 67.6519C52.16 59.5239 64.5999 54.1649 70.8199 51.5759C88.5999 44.1829 92.2897 42.8989 94.6997 42.8559C95.2297 42.8469 96.4097 42.9779 97.1797 43.6009C97.8197 44.1259 97.9999 44.8359 98.0899 45.3339C98.1699 45.8319 98.28 46.9669 98.19 47.8529C97.23 57.9729 93.06 82.5309 90.94 93.8659C90.05 98.6621 88.2799 100.27 86.5699 100.427C82.8499 100.769 80.0297 97.9711 76.4297 95.6119C70.7997 91.9189 67.6199 89.6209 62.1499 86.0179C55.8299 81.8539 59.9298 79.5649 63.5298 75.8249C64.4698 74.8459 80.8497 59.9509 81.1597 58.5999C81.1997 58.4309 81.2399 57.8009 80.8599 57.4689C80.4899 57.1359 79.9396 57.2499 79.5396 57.3399C78.9696 57.4679 69.9796 63.4159 52.5396 75.1829C49.9896 76.9369 47.6796 77.7919 45.5996 77.7469C43.3196 77.6979 38.9199 76.4549 35.6499 75.3929C31.6499 74.0899 28.4598 73.4009 28.7398 71.1879C28.8798 70.0359 30.47 68.8569 33.5 67.6519Z" fill="white"/>
</g>

<g class="rrr">
<path d="M68.5293 4.32812C51.5593 4.32812 35.2693 11.0751 23.2793 23.0731C11.2793 35.0711 4.5293 51.3611 4.5293 68.3281C4.5293 85.2951 11.2793 101.585 23.2793 113.583C35.2693 125.581 51.5593 132.328 68.5293 132.328C85.4993 132.328 101.789 125.581 113.779 113.583C125.779 101.585 132.529 85.2951 132.529 68.3281C132.529 51.3611 125.779 35.0711 113.779 23.0731C101.789 11.0751 85.4993 4.32812 68.5293 4.32812Z" fill="url(#paint23_linear_163_1230)"/>
<path d="M33.5 67.6519C52.16 59.5239 64.5999 54.1649 70.8199 51.5759C88.5999 44.1829 92.2897 42.8989 94.6997 42.8559C95.2297 42.8469 96.4097 42.9779 97.1797 43.6009C97.8197 44.1259 97.9999 44.8359 98.0899 45.3339C98.1699 45.8319 98.28 46.9669 98.19 47.8529C97.23 57.9729 93.06 82.5309 90.94 93.8659C90.05 98.6621 88.2799 100.27 86.5699 100.427C82.8499 100.769 80.0297 97.9711 76.4297 95.6119C70.7997 91.9189 67.6199 89.6209 62.1499 86.0179C55.8299 81.8539 59.9298 79.5649 63.5298 75.8249C64.4698 74.8459 80.8497 59.9509 81.1597 58.5999C81.1997 58.4309 81.2399 57.8009 80.8599 57.4689C80.4899 57.1359 79.9396 57.2499 79.5396 57.3399C78.9696 57.4679 69.9796 63.4159 52.5396 75.1829C49.9896 76.9369 47.6796 77.7919 45.5996 77.7469C43.3196 77.6979 38.9199 76.4549 35.6499 75.3929C31.6499 74.0899 28.4598 73.4009 28.7398 71.1879C28.8798 70.0359 30.47 68.8569 33.5 67.6519Z" fill="white"/>
</g>





<defs>
<linearGradient id="paint0_linear_163_1230" x1="68.5303" y1="28.1094" x2="68.5303" y2="108.537" gradientUnits="userSpaceOnUse">
<stop stop-color="#2AABEE"/>
<stop offset="1" stop-color="#229ED9"/>
</linearGradient>
<linearGradient id="paint1_linear_163_1230" x1="68.5287" y1="21.1797" x2="68.5287" y2="115.468" gradientUnits="userSpaceOnUse">
<stop stop-color="#2AABEE"/>
<stop offset="1" stop-color="#229ED9"/>
</linearGradient>
<linearGradient id="paint2_linear_163_1230" x1="68.5287" y1="15.4375" x2="68.5287" y2="121.215" gradientUnits="userSpaceOnUse">
<stop stop-color="#2AABEE"/>
<stop offset="1" stop-color="#229ED9"/>
</linearGradient>
<linearGradient id="paint3_linear_163_1230" x1="68.5286" y1="10.7813" x2="68.5286" y2="125.876" gradientUnits="userSpaceOnUse">
<stop stop-color="#2AABEE"/>
<stop offset="1" stop-color="#229ED9"/>
</linearGradient>
<linearGradient id="paint4_linear_163_1230" x1="68.5286" y1="7.10938" x2="68.5286" y2="129.546" gradientUnits="userSpaceOnUse">
<stop stop-color="#2AABEE"/>
<stop offset="1" stop-color="#229ED9"/>
</linearGradient>
<linearGradient id="paint5_linear_163_1230" x1="68.5293" y1="4.32813" x2="68.5293" y2="132.328" gradientUnits="userSpaceOnUse">
<stop stop-color="#2AABEE"/>
<stop offset="1" stop-color="#229ED9"/>
</linearGradient>
<linearGradient id="paint6_linear_163_1230" x1="68.5291" y1="2.33594" x2="68.5291" y2="134.32" gradientUnits="userSpaceOnUse">
<stop stop-color="#2AABEE"/>
<stop offset="1" stop-color="#229ED9"/>
</linearGradient>
<linearGradient id="paint7_linear_163_1230" x1="68.5283" y1="1.03125" x2="68.5283" y2="135.615" gradientUnits="userSpaceOnUse">
<stop stop-color="#2AABEE"/>
<stop offset="1" stop-color="#229ED9"/>
</linearGradient>
<linearGradient id="paint8_linear_163_1230" x1="68.5293" y1="0.328125" x2="68.5293" y2="136.328" gradientUnits="userSpaceOnUse">
<stop stop-color="#2AABEE"/>
<stop offset="1" stop-color="#229ED9"/>
</linearGradient>
<linearGradient id="paint9_linear_163_1230" x1="68.5303" y1="0.109375" x2="68.5303" y2="136.537" gradientUnits="userSpaceOnUse">
<stop stop-color="#2AABEE"/>
<stop offset="1" stop-color="#229ED9"/>
</linearGradient>
<linearGradient id="paint10_linear_163_1230" x1="68.53" y1="0.296875" x2="68.53" y2="136.363" gradientUnits="userSpaceOnUse">
<stop stop-color="#2AABEE"/>
<stop offset="1" stop-color="#229ED9"/>
</linearGradient>
<linearGradient id="paint11_linear_163_1230" x1="68.5288" y1="0.773438" x2="68.5288" y2="135.884" gradientUnits="userSpaceOnUse">
<stop stop-color="#2AABEE"/>
<stop offset="1" stop-color="#229ED9"/>
</linearGradient>
<linearGradient id="paint12_linear_163_1230" x1="68.5283" y1="1.44531" x2="68.5283" y2="135.206" gradientUnits="userSpaceOnUse">
<stop stop-color="#2AABEE"/>
<stop offset="1" stop-color="#229ED9"/>
</linearGradient>
<linearGradient id="paint13_linear_163_1230" x1="68.53" y1="2.21875" x2="68.53" y2="134.433" gradientUnits="userSpaceOnUse">
<stop stop-color="#2AABEE"/>
<stop offset="1" stop-color="#229ED9"/>
</linearGradient>
<linearGradient id="paint14_linear_163_1230" x1="68.5293" y1="2.99219" x2="68.5293" y2="133.659" gradientUnits="userSpaceOnUse">
<stop stop-color="#2AABEE"/>
<stop offset="1" stop-color="#229ED9"/>
</linearGradient>
<linearGradient id="paint15_linear_163_1230" x1="68.5291" y1="3.67188" x2="68.5291" y2="132.989" gradientUnits="userSpaceOnUse">
<stop stop-color="#2AABEE"/>
<stop offset="1" stop-color="#229ED9"/>
</linearGradient>
<linearGradient id="paint16_linear_163_1230" x1="68.5295" y1="4.14844" x2="68.5295" y2="132.511" gradientUnits="userSpaceOnUse">
<stop stop-color="#2AABEE"/>
<stop offset="1" stop-color="#229ED9"/>
</linearGradient>
<linearGradient id="paint17_linear_163_1230" x1="68.5293" y1="4.32813" x2="68.5293" y2="132.328" gradientUnits="userSpaceOnUse">
<stop stop-color="#2AABEE"/>
<stop offset="1" stop-color="#229ED9"/>
</linearGradient>
<linearGradient id="paint18_linear_163_1230" x1="68.5293" y1="4.32813" x2="68.5293" y2="132.328" gradientUnits="userSpaceOnUse">
<stop stop-color="#2AABEE"/>
<stop offset="1" stop-color="#229ED9"/>
</linearGradient>
<linearGradient id="paint19_linear_163_1230" x1="68.5293" y1="4.32813" x2="68.5293" y2="132.328" gradientUnits="userSpaceOnUse">
<stop stop-color="#2AABEE"/>
<stop offset="1" stop-color="#229ED9"/>
</linearGradient>
<linearGradient id="paint20_linear_163_1230" x1="68.5293" y1="4.32813" x2="68.5293" y2="132.328" gradientUnits="userSpaceOnUse">
<stop stop-color="#2AABEE"/>
<stop offset="1" stop-color="#229ED9"/>
</linearGradient>
<linearGradient id="paint21_linear_163_1230" x1="68.5293" y1="4.32813" x2="68.5293" y2="132.328" gradientUnits="userSpaceOnUse">
<stop stop-color="#2AABEE"/>
<stop offset="1" stop-color="#229ED9"/>
</linearGradient>
<linearGradient id="paint22_linear_163_1230" x1="68.5293" y1="4.32813" x2="68.5293" y2="132.328" gradientUnits="userSpaceOnUse">
<stop stop-color="#2AABEE"/>
<stop offset="1" stop-color="#229ED9"/>
</linearGradient>
<linearGradient id="paint23_linear_163_1230" x1="68.5293" y1="4.32813" x2="68.5293" y2="132.328" gradientUnits="userSpaceOnUse">
<stop stop-color="#2AABEE"/>
<stop offset="1" stop-color="#229ED9"/>
</linearGradient>
</defs>
</svg>
