<svg version="1.1" id="Layer_1" xmlns="http://www.w3.org/2000/svg" xmlns:xlink="http://www.w3.org/1999/xlink" x="0px" y="0px"
	 viewBox="0 0 96 24" style="enable-background:new 0 0 96 24;" xml:space="preserve">
<style type="text/css">
	.st0{fill:none;}
	.st1{fill:#FFFFFF;}
</style>
<g>
	<g>
		<path d="M15,20h3c1.1,0,2-0.9,2-2v-3c0-0.6,0.4-1,1-1s1,0.4,1,1v3c0,2.2-1.8,4-4,4H6c-2.2,0-4-1.8-4-4v-3c0-0.6,0.4-1,1-1
			s1,0.4,1,1v3c0,1.1,0.9,2,2,2h3c0.6,0,1,0.4,1,1s-0.4,1-1,1h6c-0.6,0-1-0.4-1-1S14.4,20,15,20z M4,9c0,0.6-0.4,1-1,1S2,9.6,2,9V6
			c0-2.2,1.8-4,4-4h3c0.6,0,1,0.4,1,1S9.6,4,9,4H6C4.9,4,4,4.9,4,6V9z M20,9V6c0-1.1-0.9-2-2-2h-3c-0.6,0-1-0.4-1-1s0.4-1,1-1h3
			c2.2,0,4,1.8,4,4v3c0,0.6-0.4,1-1,1S20,9.6,20,9z"/>
		<rect class="st0" width="24" height="24"/>
	</g>
	<g>
		<path d="M45,11h-2.2h-0.1H29.2c0.1-0.1,0.3-0.3,0.4-0.4l1-1l0,0l2-2c0.4-0.4,0.4-1,0-1.4s-1-0.4-1.4,0L30.3,7l0,0l-2.1,2.1
			c-2.8,2.8-2.8,2.8-0.2,5.5c0.3,0.3,0.6,0.7,1,1.1l2.1,2.1c0.4,0.4,1,0.4,1.4,0s0.4-1,0-1.4l-0.8-0.8c0,0,0,0,0-0.1l-2.1-2.1
			c-0.2-0.2-0.3-0.3-0.4-0.4h13.5h0.1H45c0.6,0,1-0.4,1-1C46,11.4,45.6,11,45,11z"/>
		<rect x="24" class="st0" width="24" height="24"/>
	</g>
</g>
<g>
	<g>
		<path class="st1" d="M63,20h3c1.1,0,2-0.9,2-2v-3c0-0.6,0.4-1,1-1s1,0.4,1,1v3c0,2.2-1.8,4-4,4H54c-2.2,0-4-1.8-4-4v-3
			c0-0.6,0.4-1,1-1s1,0.4,1,1v3c0,1.1,0.9,2,2,2h3c0.6,0,1,0.4,1,1s-0.4,1-1,1h6c-0.6,0-1-0.4-1-1S62.4,20,63,20z M52,9
			c0,0.6-0.4,1-1,1s-1-0.4-1-1V6c0-2.2,1.8-4,4-4h3c0.6,0,1,0.4,1,1s-0.4,1-1,1h-3c-1.1,0-2,0.9-2,2V9z M68,9V6c0-1.1-0.9-2-2-2h-3
			c-0.6,0-1-0.4-1-1s0.4-1,1-1h3c2.2,0,4,1.8,4,4v3c0,0.6-0.4,1-1,1S68,9.6,68,9z"/>
		<rect x="48" class="st0" width="24" height="24"/>
	</g>
	<g>
		<path class="st1" d="M93,11h-2.2h-0.1H77.2c0.1-0.1,0.3-0.3,0.4-0.4l1-1l0,0l2-2c0.4-0.4,0.4-1,0-1.4s-1-0.4-1.4,0L78.3,7l0,0
			l-2.1,2.1c-2.8,2.8-2.8,2.8-0.2,5.5c0.3,0.3,0.6,0.7,1,1.1l2.1,2.1c0.4,0.4,1,0.4,1.4,0s0.4-1,0-1.4l-0.8-0.8c0,0,0,0,0-0.1
			l-2.1-2.1c-0.2-0.2-0.3-0.3-0.4-0.4h13.5h0.1H93c0.6,0,1-0.4,1-1C94,11.4,93.6,11,93,11z"/>
		<rect x="72" class="st0" width="24" height="24"/>
	</g>
</g>
</svg>
