<svg width="665" height="87" viewBox="0 0 665 87" fill="none" xmlns="http://www.w3.org/2000/svg">
<path d="M176.168 87.005C169.528 87.005 163.368 85.925 157.688 83.765C152.088 81.605 147.208 78.565 143.048 74.645C138.968 70.725 135.768 66.125 133.448 60.845C131.208 55.565 130.088 49.805 130.088 43.565C130.088 37.325 131.208 31.565 133.448 26.285C135.768 21.005 139.008 16.405 143.168 12.485C147.328 8.565 152.208 5.52499 157.808 3.36499C163.408 1.205 169.488 0.125 176.048 0.125C182.688 0.125 188.768 1.205 194.288 3.36499C199.888 5.52499 204.728 8.565 208.808 12.485C212.968 16.405 216.208 21.005 218.528 26.285C220.848 31.485 222.008 37.245 222.008 43.565C222.008 49.805 220.848 55.605 218.528 60.965C216.208 66.245 212.968 70.845 208.808 74.765C204.728 78.605 199.888 81.605 194.288 83.765C188.768 85.925 182.728 87.005 176.168 87.005ZM176.048 70.445C179.808 70.445 183.248 69.805 186.368 68.525C189.568 67.245 192.368 65.405 194.768 63.005C197.168 60.605 199.008 57.765 200.288 54.485C201.648 51.205 202.328 47.565 202.328 43.565C202.328 39.565 201.648 35.925 200.288 32.645C199.008 29.365 197.168 26.525 194.768 24.125C192.448 21.725 189.688 19.885 186.488 18.605C183.288 17.325 179.808 16.685 176.048 16.685C172.288 16.685 168.808 17.325 165.608 18.605C162.488 19.885 159.728 21.725 157.328 24.125C154.928 26.525 153.048 29.365 151.688 32.645C150.408 35.925 149.768 39.565 149.768 43.565C149.768 47.485 150.408 51.125 151.688 54.485C153.048 57.765 154.888 60.605 157.208 63.005C159.608 65.405 162.408 67.245 165.608 68.525C168.808 69.805 172.288 70.445 176.048 70.445Z" fill="#00A3FF"/>
<path d="M301.088 85.5654V1.56543H320.528V85.5654H301.088Z" fill="#00A3FF"/>
<path d="M391.98 72.0272V42.2441H410.205V72.0272H391.98Z" fill="#00A3FF"/>
<path d="M0.962891 85.565V1.565H20.4029V85.565H0.962891Z" fill="black"/>
<path d="M40.3379 85.565V1.565H56.4179L105.978 62.045H98.1779V1.565H117.378V85.565H101.418L51.7379 25.085H59.5379V85.565H40.3379Z" fill="black"/>
<path d="M137.252 85.565V1.565H153.332L202.892 62.045H195.092V1.565H214.292V85.565H198.332L148.652 25.085H156.452V85.565H137.252Z" fill="black"/>
<path d="M274.966 87.005C268.326 87.005 262.166 85.925 256.486 83.765C250.886 81.605 246.006 78.565 241.846 74.645C237.766 70.725 234.566 66.125 232.246 60.845C230.006 55.565 228.886 49.805 228.886 43.565C228.886 37.325 230.006 31.565 232.246 26.285C234.566 21.005 237.806 16.405 241.966 12.485C246.126 8.565 251.006 5.52499 256.606 3.36499C262.206 1.205 268.286 0.125 274.846 0.125C281.486 0.125 287.566 1.205 293.086 3.36499C298.686 5.52499 303.526 8.565 307.606 12.485C311.766 16.405 315.006 21.005 317.326 26.285C319.646 31.485 320.806 37.245 320.806 43.565C320.806 49.805 319.646 55.605 317.326 60.965C315.006 66.245 311.766 70.845 307.606 74.765C303.526 78.605 298.686 81.605 293.086 83.765C287.566 85.925 281.526 87.005 274.966 87.005ZM274.846 70.445C278.606 70.445 282.046 69.805 285.166 68.525C288.366 67.245 291.166 65.405 293.566 63.005C295.966 60.605 297.806 57.765 299.086 54.485C300.446 51.205 301.126 47.565 301.126 43.565C301.126 39.565 300.446 35.925 299.086 32.645C297.806 29.365 295.966 26.525 293.566 24.125C291.246 21.725 288.486 19.885 285.286 18.605C282.086 17.325 278.606 16.685 274.846 16.685C271.086 16.685 267.606 17.325 264.406 18.605C261.286 19.885 258.526 21.725 256.126 24.125C253.726 26.525 251.846 29.365 250.486 32.645C249.206 35.925 248.566 39.565 248.566 43.565C248.566 47.485 249.206 51.125 250.486 54.485C251.846 57.765 253.686 60.605 256.006 63.005C258.406 65.405 261.206 67.245 264.406 68.525C267.606 69.805 271.086 70.445 274.846 70.445Z" fill="black"/>
<path d="M375.616 87.005C369.136 87.005 363.096 85.965 357.496 83.885C351.976 81.725 347.176 78.685 343.096 74.765C339.016 70.845 335.816 66.245 333.496 60.965C331.256 55.685 330.136 49.885 330.136 43.565C330.136 37.245 331.256 31.445 333.496 26.165C335.816 20.885 339.016 16.285 343.096 12.365C347.256 8.445 352.096 5.445 357.616 3.36499C363.136 1.205 369.176 0.125 375.736 0.125C383.016 0.125 389.576 1.405 395.416 3.965C401.336 6.445 406.296 10.125 410.296 15.005L397.816 26.525C394.936 23.245 391.736 20.805 388.216 19.205C384.696 17.525 380.856 16.685 376.696 16.685C372.776 16.685 369.176 17.325 365.896 18.605C362.616 19.885 359.776 21.725 357.376 24.125C354.976 26.525 353.096 29.365 351.736 32.645C350.456 35.925 349.816 39.565 349.816 43.565C349.816 47.565 350.456 51.205 351.736 54.485C353.096 57.765 354.976 60.605 357.376 63.005C359.776 65.405 362.616 67.245 365.896 68.525C369.176 69.805 372.776 70.445 376.696 70.445C380.856 70.445 384.696 69.645 388.216 68.045C391.736 66.365 394.936 63.845 397.816 60.485L410.296 72.005C406.296 76.885 401.336 80.605 395.416 83.165C389.576 85.725 382.976 87.005 375.616 87.005Z" fill="black"/>
<path d="M441.304 35.405H481.744V50.525H441.304V35.405ZM442.744 69.965H488.464V85.565H423.424V1.565H486.904V17.165H442.744V69.965Z" fill="black"/>
<path d="M503.932 85.565V1.565H520.012L569.572 62.045H561.772V1.565H580.972V85.565H565.012L515.332 25.085H523.132V85.565H503.932Z" fill="black"/>
<path d="M618.246 85.565V17.405H591.366V1.565H664.566V17.405H637.686V85.565H618.246Z" fill="black"/>
</svg>
