<svg width="1774" height="858" viewBox="0 0 1774 858" fill="none" xmlns="http://www.w3.org/2000/svg">
<path d="M100.612 391.124H0.433594L130.552 5.47566H254.645L384.763 391.124H284.585L194.011 102.641H190.998L100.612 391.124ZM87.2421 239.35H296.637V310.153H87.2421V239.35Z" fill="black"/>
<path d="M481.029 483.958V318.438H507.58C516.493 312.412 524.652 304.001 532.059 293.205C539.466 282.284 545.805 266.968 551.078 247.259C556.35 227.424 560.117 201.25 562.376 168.736L574.428 5.47566H838.243V318.438H879.67V483.77H790.037V391.124H570.662V483.958H481.029ZM614.537 318.438H748.61V81.1741H658.035L652.009 168.736C650.377 193.215 647.741 214.808 644.1 233.513C640.46 252.218 636.129 268.537 631.107 282.472C626.086 296.281 620.562 308.27 614.537 318.438Z" fill="black"/>
<path d="M1286.41 198.3C1286.41 240.731 1278.25 276.697 1261.93 306.198C1245.61 335.699 1223.51 358.108 1195.64 373.423C1167.9 388.738 1136.77 396.396 1102.25 396.396C1067.6 396.396 1036.4 388.676 1008.66 373.235C980.915 357.794 958.883 335.385 942.563 306.01C926.369 276.509 918.272 240.605 918.272 198.3C918.272 155.868 926.369 119.902 942.563 90.4011C958.883 60.9 980.915 38.4918 1008.66 23.1763C1036.4 7.86085 1067.6 0.203125 1102.25 0.203125C1136.77 0.203125 1167.9 7.86085 1195.64 23.1763C1223.51 38.4918 1245.61 60.9 1261.93 90.4011C1278.25 119.902 1286.41 155.868 1286.41 198.3ZM1191.13 198.3C1191.13 173.192 1187.55 151.977 1180.39 134.653C1173.36 117.329 1163.19 104.21 1149.89 95.297C1136.71 86.3839 1120.83 81.9274 1102.25 81.9274C1083.79 81.9274 1067.91 86.3839 1054.6 95.297C1041.3 104.21 1031.07 117.329 1023.91 134.653C1016.88 151.977 1013.37 173.192 1013.37 198.3C1013.37 223.407 1016.88 244.623 1023.91 261.947C1031.07 279.271 1041.3 292.389 1054.6 301.302C1067.91 310.215 1083.79 314.672 1102.25 314.672C1120.83 314.672 1136.71 310.215 1149.89 301.302C1163.19 292.389 1173.36 279.271 1180.39 261.947C1187.55 244.623 1191.13 223.407 1191.13 198.3Z" fill="black"/>
<path d="M1340.83 5.47566H1456.26L1554.18 244.246H1558.7L1656.61 5.47566H1772.05V391.124H1681.28V154.236H1678.08L1585.44 388.676H1527.44L1434.79 152.918H1431.59V391.124H1340.83V5.47566Z" fill="black"/>
<path d="M181.549 667.015V855.124H136.726V703.387H66.9201V855.124H22.0973V667.015H181.549Z" fill="black"/>
<path d="M394.32 761.069C394.32 781.766 390.34 799.309 382.379 813.699C374.419 828.089 363.642 839.019 350.048 846.49C336.516 853.96 321.33 857.695 304.491 857.695C287.59 857.695 272.374 853.93 258.841 846.398C245.308 838.866 234.562 827.936 226.602 813.607C218.702 799.218 214.753 781.705 214.753 761.069C214.753 740.372 218.702 722.829 226.602 708.439C234.562 694.049 245.308 683.119 258.841 675.648C272.374 668.178 287.59 664.443 304.491 664.443C321.33 664.443 336.516 668.178 350.048 675.648C363.642 683.119 374.419 694.049 382.379 708.439C390.34 722.829 394.32 740.372 394.32 761.069ZM347.844 761.069C347.844 748.822 346.099 738.474 342.608 730.024C339.179 721.574 334.219 715.175 327.729 710.827C321.299 706.48 313.553 704.306 304.491 704.306C295.489 704.306 287.743 706.48 281.252 710.827C274.762 715.175 269.771 721.574 266.281 730.024C262.852 738.474 261.137 748.822 261.137 761.069C261.137 773.316 262.852 783.664 266.281 792.114C269.771 800.565 274.762 806.964 281.252 811.311C287.743 815.659 295.489 817.833 304.491 817.833C313.553 817.833 321.299 815.659 327.729 811.311C334.219 806.964 339.179 800.565 342.608 792.114C346.099 783.664 347.844 773.316 347.844 761.069Z" fill="black"/>
<path d="M535.769 855.124L476.618 777.051H466.33V855.124H420.865V667.015H466.33V740.035H473.587L531.82 667.015H588.675L516.205 755.834L592.441 855.124H535.769Z" fill="black"/>
<path d="M649.732 855.124H600.868L664.336 667.015H724.866L788.334 855.124H739.47L695.29 714.409H693.82L649.732 855.124ZM643.211 781.092H745.348V815.628H643.211V781.092Z" fill="black"/>
<path d="M962.528 667.015V855.124H918.624V667.015H962.528ZM801.882 855.124L860.299 755.558L803.535 667.015H859.564L899.611 742.515H982.735L1021.31 667.015H1077.06L1022.32 755.007L1079.27 855.124H1024.62L988.521 784.399H893.457L856.165 855.124H801.882Z" fill="black"/>
<path d="M1101.08 855.124V667.015H1232.25V703.938H1146.55V742.515H1225.54V779.531H1146.55V818.2H1232.25V855.124H1101.08Z" fill="black"/>
<path d="M1254.57 703.938V667.015H1413.56V703.938H1356.52V855.124H1311.7V703.938H1254.57Z" fill="black"/>
<path d="M1597.92 735.167H1552C1551.39 730.452 1550.13 726.197 1548.23 722.4C1546.34 718.604 1543.82 715.358 1540.7 712.664C1537.58 709.97 1533.87 707.919 1529.59 706.51C1525.36 705.041 1520.68 704.306 1515.53 704.306C1506.41 704.306 1498.54 706.541 1491.93 711.011C1485.38 715.481 1480.33 721.941 1476.77 730.391C1473.28 738.841 1471.54 749.067 1471.54 761.069C1471.54 773.561 1473.31 784.032 1476.87 792.482C1480.48 800.871 1485.53 807.209 1492.02 811.495C1498.57 815.72 1506.32 817.833 1515.26 817.833C1520.28 817.833 1524.84 817.19 1528.94 815.904C1533.11 814.618 1536.75 812.75 1539.87 810.301C1543.06 807.79 1545.66 804.759 1547.68 801.208C1549.76 797.595 1551.2 793.523 1552 788.992L1597.92 789.267C1597.13 797.595 1594.71 805.8 1590.67 813.883C1586.69 821.966 1581.21 829.344 1574.23 836.019C1567.25 842.632 1558.73 847.898 1548.69 851.817C1538.71 855.736 1527.26 857.695 1514.34 857.695C1497.32 857.695 1482.07 853.96 1468.6 846.49C1455.19 838.958 1444.6 827.997 1436.82 813.607C1429.04 799.218 1425.15 781.705 1425.15 761.069C1425.15 740.372 1429.1 722.829 1437 708.439C1444.9 694.049 1455.59 683.119 1469.06 675.648C1482.53 668.178 1497.62 664.443 1514.34 664.443C1525.73 664.443 1536.26 666.035 1545.94 669.219C1555.61 672.342 1564.12 676.934 1571.47 682.997C1578.82 688.997 1584.79 696.376 1589.38 705.132C1593.97 713.889 1596.82 723.9 1597.92 735.167Z" fill="black"/>
<path d="M1773.84 855.124H1728.47V703.663H1706.05C1699.26 703.663 1693.53 704.643 1688.88 706.602C1684.23 708.5 1680.67 711.378 1678.22 715.236C1675.84 719.032 1674.64 723.839 1674.64 729.656C1674.64 735.474 1675.84 740.25 1678.22 743.985C1680.61 747.659 1684.13 750.415 1688.79 752.252C1693.5 754.027 1699.23 754.915 1705.96 754.915H1746.65V790.737H1697.6C1683.28 790.737 1670.85 788.379 1660.31 783.664C1649.84 778.888 1641.76 771.969 1636.06 762.906C1630.37 753.782 1627.52 742.699 1627.52 729.656C1627.52 716.797 1630.31 705.683 1635.88 696.315C1641.45 686.885 1649.38 679.659 1659.67 674.638C1669.96 669.556 1682.14 667.015 1696.23 667.015H1773.84V855.124ZM1667.94 769.152H1716.62L1670.78 855.124H1621.09L1667.94 769.152Z" fill="black"/>
</svg>
