<svg width="3040" height="1567" viewBox="0 0 3040 1567" fill="none" xmlns="http://www.w3.org/2000/svg">
<path d="M14 1276.34C464.412 644.38 1068.14 538.334 1115.27 644.38C1155.79 735.546 593.169 668.414 864.409 568.124C967.548 529.988 684.301 663.677 645.706 612.217C617.532 569.252 864.409 483.568 775.991 507.606C681.936 541.46 291.922 663.677 645.706 457.839C710.031 393.514 66.7865 702.272 549.22 393.515C896.572 171.21 1156.68 354.225 1478.4 348.726C1570.86 347.145 1649.81 294.089 1732.79 258.433C1831.14 216.172 1977.22 187.678 2060.84 297.028C2075.6 316.324 1855.01 316.324 1732.79 554.324" stroke="#0156B8" stroke-width="26.86" stroke-linecap="round"/>
<path d="M1887.17 264.863C1912.9 264.864 1887.17 264.864 1912.9 264.865" stroke="#0156B8" stroke-width="26.86" stroke-linecap="round"/>
<path d="M1726.36 567.192C1687.76 670.111 954.462 1615.68 921.941 1546.14C911.006 1504.93 1118.02 1143.08 1100.12 1138.82C1076.68 1133.25 755.057 1583.52 684.3 1551.36C619.975 1512.76 980.192 1106.22 960.894 1091.61C922.379 1062.44 684.343 1398.36 658.57 1364.81C626.409 1339.08 898.434 1067.72 883.708 1049.62C872.261 1035.56 761.49 1146.11 738.329 1126.83C690.733 1062.49 1085.58 752.229 1314.68 818.057C1543.78 883.885 1855.01 1390.54 1887.17 1268.33C1900.03 1210.44 1887.17 1184.71 1900.03 1184.71C1919.33 1184.71 1955.04 1376.49 2030.92 1384.07C2080.12 1388.99 2027.65 1259.42 2035.98 1297.51C2042 1325.03 2130.72 1466.41 2169.01 1461.3C2248.99 1450.64 2156.33 1086.28 2119.54 1091.61C2059.84 1105.58 2255.87 1545.1 2299.78 1499.9C2422.94 1373.12 2129.87 851.918 2041.55 728.003C1842.14 502.866 1712.88 579.947 1771.38 573.623C2240.95 586.488 2755.55 657.244 3025.71 612.219" stroke="#FFD900" stroke-width="26.86" stroke-linecap="round"/>
<path d="M2033.79 414.994C2062.87 249.415 2157.4 60.2852 2341.21 26.8646C2433.94 10.0053 2354.08 151.717 2244.72 62.2485" stroke="#0156B8" stroke-width="26.86" stroke-linecap="round"/>
<path d="M2117.36 194.678C2125.83 226.838 2131.43 314.959 2176.19 296.142C2281.51 251.859 2151.44 209.999 2116.08 194.105C2093.5 183.959 2032.45 173.456 2045.32 136.215C2081.95 30.1792 2107.99 159.074 2117.36 194.678Z" stroke="#0156B8" stroke-width="26.86" stroke-linecap="round"/>
<path d="M2195.75 102.024C2202.68 130.48 2207.26 208.451 2243.87 191.801C2330.03 152.619 2223.62 115.58 2194.7 101.517C2176.23 92.5402 2126.29 83.2463 2136.81 50.2953C2166.78 -43.5275 2188.09 70.5207 2195.75 102.024Z" stroke="#0156B8" stroke-width="26.86" stroke-linecap="round"/>
</svg>
