<svg width="2856" height="1667" viewBox="0 0 2856 1667" fill="none" xmlns="http://www.w3.org/2000/svg">
<path d="M146.926 1341.9C98.2206 1341.9 39.0092 1361.64 83.9378 1405.41C204.514 1522.85 8.69546 1558.13 18.3471 1494.68C24.4677 1454.45 76.07 1440.51 108.014 1426.88C387.109 1307.81 442.526 1133.95 422.433 1146.43C384.776 1169.82 174.109 1412.71 274.333 1450.43C339.504 1474.96 572.321 1392.87 561.733 1339.93C551.145 1286.99 405.805 1440.95 508.792 1445.81C583.667 1449.34 565.986 1330.74 567.539 1338.12C596.136 1473.96 703.015 1363.92 703.015 1366.69C703.015 1441.88 674.466 1618.09 584.848 1647.4C529.124 1665.63 610.077 1542.42 621.938 1526.05C661.984 1470.76 723.541 1379.05 788.908 1350.36C871.581 1314.06 867.788 1470.49 741.734 1466.99" stroke="black" stroke-width="35.18" stroke-linecap="round"/>

<path d="M741.736 1466.99C858.599 1490.36 1034.15 1423.08 1060.97 1307.3C1076.37 1240.79 1096.26 1174.19 1163.18 1143.56C1193.68 1129.6 1223 1130.07 1253.91 1121.24C1312.2 1104.59 1164.46 1148.79 1006.76 1044.59C851.565 942.038 952.999 687.296 784.089 609.337C732.079 578.709 732.222 658.988 699.383 651.69C678.56 647.063 742.346 568.858 720.559 577.573C667.618 598.749 629.142 459.857 742.346 437.078C865.46 412.305 1205.73 495.55 1210.92 651.351C1212.1 686.506 1133.5 641.102 1149.89 480.064C1184.19 239.947 1713.87 69.5692 1898.7 32.8134C1937.02 25.1922 1981.65 14.4324 2020.93 20.1801C2149.45 38.9884 1661.35 403.648 1664.08 282.197C1672.03 245.096 1851.97 237.872 1869.33 270.22C1892.48 313.362 1817.9 351.219 1790.09 369.81C1730.36 409.726 1660.61 442.511 1587.95 447.25C1497.24 453.166 1599.39 344.631 1747.62 437.078C1922.87 524.291 1504.5 584.787 1429.97 556.396C1419.76 552.506 1504.09 461.102 1610.6 610.006C1715.86 768.161 1317.55 655.176 1370.4 626.347C1426.96 595.498 1546.81 791.716 1523.8 837.733C1465.39 954.55 1157.65 629.182 1370.4 916.397C1412.01 972.573 1737.03 1414.05 1629.63 1375.06C1597.75 1360.74 1480.75 1235.12 1515.76 1217.71C1538.81 1206.26 1587.32 1370.81 1545.13 1377.85C1485.04 1387.86 1387.62 1181.1 1419.39 1159.93C1455.91 1154.22 1502.23 1346.92 1431.92 1316.98C1335.85 1276.06 1351.33 1147.27 1302.48 1073.99" stroke="black" stroke-width="35.18" stroke-linecap="round"/>

<path d="M1620.56 1286.98C1702.94 1365.67 1845.57 1563.89 1985.98 1505.82C2030.7 1487.32 2079.33 1382.28 2061.45 1382.28C2033.5 1382.28 1988.8 1486.22 2061.45 1489.74C2114.16 1492.29 2171.87 1379.81 2139.39 1371.69C2097.03 1361.1 2128.8 1678.75 2282.95 1330.92" stroke="black" stroke-width="35.18" stroke-linecap="round"/>

<path d="M2436.51 1366.36C2361.74 1350.52 2215.92 1467.47 2319.39 1488.16C2425.27 1509.34 2538.44 1319.16 2478.21 1368C2404.09 1424.63 2424.92 1479.24 2452.1 1488.75C2526.23 1514.7 2601.82 1413.24 2637.33 1364.06C2647.47 1350.03 2567.58 1477.94 2631.1 1481.04C2707.13 1484.75 2678.52 1367.81 2721.17 1338.14C2724.56 1335.78 2730.4 1336.83 2734.13 1336.83C2776.72 1336.83 2795.83 1337.23 2838.21 1338.14" stroke="black" stroke-width="35.18" stroke-linecap="round"/>

<path d="M215.308 1257.35C305.873 1258.49 397.084 1250.15 487.541 1245.77" stroke="black" stroke-width="35.18" stroke-linecap="round"/>
</svg>
