<svg width="2856" height="1667" viewBox="0 0 2856 1667" fill="none" xmlns="http://www.w3.org/2000/svg">
<path d="M146.926 1341.34C98.2206 1341.34 39.0092 1361.09 83.9378 1404.85C92.1971 1412.9 98.9718 1420.55 104.43 1427.82M104.43 1427.82C178.651 1526.66 9.35658 1553.22 18.3471 1494.13C24.2437 1455.37 72.3529 1441.01 104.43 1427.82ZM104.43 1427.82C105.649 1427.32 106.844 1426.82 108.014 1426.32C174.458 1397.98 228.225 1366.52 271.314 1335.22M271.314 1335.22C409.216 1235.03 437.742 1136.36 422.433 1145.87C399.659 1160.02 313.608 1254.44 271.314 1335.22ZM271.314 1335.22C243.673 1388.01 234.721 1434.97 274.333 1449.88C311.354 1463.81 402.473 1443.34 472.341 1413.35M472.341 1413.35C525.467 1390.55 566.307 1362.24 561.733 1339.37C554.143 1301.42 477.303 1369.8 472.341 1413.35ZM472.341 1413.35C470.381 1430.55 479.633 1443.88 508.792 1445.26C583.667 1448.79 565.986 1330.19 567.539 1337.57C596.136 1473.4 703.015 1363.36 703.015 1366.13C703.015 1381.82 701.773 1401.89 698.994 1424.11M698.994 1424.11C688.45 1508.43 655.774 1623.65 584.848 1646.85C529.124 1665.07 610.077 1541.87 621.938 1525.49C642.675 1496.86 669.18 1458.47 698.994 1424.11ZM698.994 1424.11C726.757 1392.12 757.39 1363.64 788.908 1349.8C871.581 1313.51 867.788 1469.93 741.734 1466.43M215.307 1256.79C305.872 1257.93 397.084 1249.6 487.54 1245.21M1707.17 415.52C1736.31 402.587 1764.14 386.594 1790.09 369.255C1817.9 350.665 1892.48 312.807 1869.33 269.665C1864.17 260.048 1844.64 253.928 1819.53 251.052M1707.17 415.52C1669.22 432.362 1629.05 444.015 1587.95 446.695C1505.77 452.055 1581.89 363.467 1707.17 415.52ZM1707.17 415.52C1720.16 420.92 1733.69 427.834 1747.62 436.523C1869.87 497.362 1703.25 545.2 1565.99 558.931M741.736 1466.43C858.599 1489.81 1034.15 1422.52 1060.97 1306.74C1076.37 1240.23 1096.26 1173.63 1163.18 1143C1193.68 1129.04 1223 1129.52 1253.91 1120.69C1312.2 1104.03 1164.46 1148.24 1006.76 1044.04C851.565 941.483 952.999 686.741 784.089 608.782C732.079 578.154 732.222 658.433 699.383 651.136C678.56 646.508 742.346 568.303 720.559 577.018C667.618 598.194 629.142 459.302 742.346 436.523C833.369 418.207 1043.09 458.936 1148.34 544.379M1458.14 676.939C1551.94 701.52 1674.72 705.806 1610.6 609.451C1595.19 587.915 1580.25 571.406 1565.99 558.931M1458.14 676.939C1397.98 661.172 1349.75 637.057 1370.4 625.792C1393.71 613.079 1427.76 638.929 1458.14 676.939ZM1458.14 676.939C1501.48 731.16 1537.33 810.125 1523.8 837.178C1465.39 953.996 1157.65 628.627 1370.4 915.842C1412.01 972.018 1737.03 1413.49 1629.63 1374.5C1615.72 1368.26 1585.62 1340.84 1559.01 1310.46M1565.99 558.931C1506.49 564.884 1452.51 564.427 1429.97 555.841C1421.24 552.514 1481.68 485.156 1565.99 558.931ZM1819.53 251.052C1760.18 244.254 1669.67 255.572 1664.08 281.642C1663.01 329.078 1736.82 302.358 1819.53 251.052ZM1819.53 251.052C1948.57 170.998 2099.26 31.0874 2020.93 19.6252C1981.65 13.8775 1937.02 24.6372 1898.7 32.2584C1713.87 69.0143 1184.19 239.392 1149.89 479.509C1147.43 503.702 1147.11 525.286 1148.34 544.379M1148.34 544.379C1155.32 652.371 1211.92 680.669 1210.92 650.796C1209.57 610.185 1185.45 574.503 1148.34 544.379ZM1559.01 1310.46C1524.6 1271.19 1496.02 1226.98 1515.76 1217.16C1529.19 1210.48 1551.28 1263.6 1559.01 1310.46ZM1559.01 1310.46C1564.55 1344.01 1562.73 1374.36 1545.13 1377.29C1520.32 1381.43 1489.15 1348.61 1463.33 1307.16M1463.33 1307.16C1481.61 1268.78 1447.58 1154.97 1419.39 1159.37C1400.74 1171.81 1426.62 1248.21 1463.33 1307.16ZM1463.33 1307.16C1457.93 1318.5 1447.96 1323.25 1431.92 1316.42C1335.85 1275.5 1351.33 1146.72 1302.48 1073.44M2026.12 1469.45C2013.72 1485.83 1999.67 1499.6 1985.98 1505.26C1845.57 1563.34 1702.94 1365.12 1620.56 1286.43M2026.12 1469.45C2054.24 1432.31 2073.86 1381.72 2061.45 1381.72C2040.82 1381.72 2011.05 1438.38 2026.12 1469.45ZM2026.12 1469.45C2031.47 1480.46 2042.44 1488.26 2061.45 1489.18C2084.49 1490.3 2108.48 1469.44 2125.48 1444.93M2125.48 1444.93C2147.38 1413.36 2157.67 1375.71 2139.39 1371.14C2123.56 1367.18 2118.08 1409.07 2125.48 1444.93ZM2125.48 1444.93C2137.87 1505.03 2186.41 1548.2 2282.95 1330.37M2436.51 1365.8C2361.74 1349.96 2215.92 1466.91 2319.39 1487.61C2357.13 1495.16 2395.8 1475.85 2427.22 1450.08M2427.22 1450.08C2483.92 1403.57 2516.97 1336.02 2478.21 1367.45C2438.51 1397.78 2426.05 1427.53 2427.22 1450.08ZM2427.22 1450.08C2428.23 1469.64 2439.48 1483.78 2452.1 1488.2C2526.23 1514.15 2601.82 1412.68 2637.33 1363.51C2647.46 1349.48 2567.58 1477.39 2631.1 1480.49C2707.13 1484.2 2678.52 1367.25 2721.17 1337.58C2724.56 1335.23 2730.4 1336.27 2734.13 1336.27C2776.72 1336.27 2795.83 1336.68 2838.21 1337.58" stroke="black" stroke-width="35.18" stroke-linecap="round"/>
</svg>
