<svg width="2455" height="1180" viewBox="0 0 2455 1180" fill="none" xmlns="http://www.w3.org/2000/svg">
<path d="M102.785 112.315C103.239 111.861 104.373 110.727 106.189 108.911C108.458 107.096 110.046 105.508 110.953 104.146L111.634 103.466C112.088 103.012 112.315 102.558 112.315 102.104L211.696 0L102.785 112.315ZM0 219.865L102.785 112.315C103.239 111.861 104.373 110.727 106.189 108.911C108.458 107.096 110.046 105.508 110.953 104.146L111.634 103.466C112.088 103.012 112.315 102.558 112.315 102.104L211.696 0L217.823 98.0202C210.562 105.735 193.091 124.114 165.409 153.157C138.181 182.2 116.853 204.436 101.424 219.865H0Z" fill="#FF0000"/>
<path d="M22.463 948.587L92.5747 875.072H260.707L326.734 948.587H22.463ZM2.04208 614.365L75.5573 685.158V851.928L2.04208 918.637V614.365ZM348.516 918.637L275.001 848.525V681.074L348.516 614.365V918.637ZM21.7823 257H326.053L258.665 330.515H91.894L21.7823 257ZM0 590.541V286.27L73.5152 352.297V521.11L0 590.541ZM346.474 286.27V590.541L272.959 524.514V356.382L346.474 286.27Z" fill="black"/>
<path d="M529.037 1067.55C528.583 1068 527.449 1069.14 525.634 1070.95C523.365 1072.77 521.776 1074.36 520.869 1075.72L520.188 1076.4C519.734 1076.85 519.507 1077.31 519.507 1077.76L420.126 1179.87L529.037 1067.55ZM631.822 960L529.037 1067.55C528.583 1068 527.449 1069.14 525.634 1070.95C523.365 1072.77 521.776 1074.36 520.869 1075.72L520.188 1076.4C519.734 1076.85 519.507 1077.31 519.507 1077.76L420.126 1179.87L414 1081.85C421.26 1074.13 438.731 1055.75 466.413 1026.71C493.641 997.666 514.969 975.429 530.399 960H631.822Z" fill="#FF0000"/>
<path d="M524.579 629.365L598.094 700.158V866.928L524.579 933.637V629.365ZM871.053 933.637L797.538 863.525V696.074L871.053 629.365V933.637ZM544.319 272H848.591L781.202 345.515H614.431L544.319 272ZM522.537 605.541V301.27L596.052 367.297V536.11L522.537 605.541ZM869.011 301.27V605.541L795.496 539.514V371.382L869.011 301.27Z" fill="black"/>
<path d="M2109.04 576.635L2182.56 505.842V339.072L2109.04 272.363V576.635ZM2187.32 552.129C2171.44 565.29 2155.56 577.769 2139.67 589.568L2187.32 625.645H2373.83L2421.48 589.568L2373.83 552.129H2187.32ZM2128.78 934H2432.37L2366.35 860.485H2198.21L2128.78 934ZM2107 600.459V904.73L2180.52 838.703V669.89L2107 600.459ZM2454.16 904.73V600.459L2380.64 666.486V834.618L2454.16 904.73Z" fill="black"/>
<path d="M1782.06 939.208L1708.55 869.097V701.646L1782.06 634.937V939.208ZM1535.65 338.834C1519.77 326.128 1503.88 314.103 1488 302.758L1535.65 266H1953.6L2001.24 302.758L1953.6 338.834H1780.02V611.113L1706.5 545.085V376.953L1746.66 338.834H1535.65Z" fill="black"/>
<path d="M1306.6 716.495V866.928L1380.11 933.637V629.365L1306.6 716.495ZM1154.8 698.796L1049.98 809.069L1057.46 907.089C1122.36 839.02 1155.48 804.304 1156.85 802.943C1157.75 801.582 1159.11 800.22 1160.93 798.859C1162.75 797.497 1164.11 796.136 1165.01 794.775L1267.8 687.225L1154.8 698.796ZM1380.11 629.365L1306.6 700.158V866.928L1380.11 933.637V629.365ZM1301.83 653.871C1317.72 640.71 1333.6 628.231 1349.48 616.432L1301.83 580.355H1115.32L1067.67 616.432L1115.32 653.871H1301.83ZM1360.37 272H1056.78L1122.81 345.515H1290.94L1360.37 272ZM1382.16 605.541V301.27L1308.64 367.297V536.11L1382.16 605.541ZM1035 301.27V605.541L1108.52 539.514V371.382L1035 301.27ZM1267.8 687.225H1165.69C1150.72 703.108 1129.39 725.797 1101.71 755.294C1073.57 784.337 1056.33 802.262 1049.98 809.069L1057.46 907.089C1122.36 839.02 1155.48 804.304 1156.85 802.943C1157.75 801.582 1159.11 800.22 1160.93 798.859C1162.75 797.497 1164.11 796.136 1165.01 794.775L1267.8 687.225Z" fill="black"/>
</svg>
