<svg width="270" height="311" viewBox="0 0 270 311" fill="none" xmlns="http://www.w3.org/2000/svg">
<path d="M22.3125 147.19V38.7561H78.7787V60.4739H44.1854V82.5019H64.1968V104.375H44.1854V147.19H22.3125Z" fill="black"/>
<path d="M95.8551 119.267V66.9892C95.8551 60.991 98.0785 55.1478 102.526 49.4599C108.42 41.9104 116.384 38.0839 126.415 37.9805V59.8534C122.072 59.9568 119.279 61.9734 118.038 65.9033C117.831 66.317 117.728 66.6789 117.728 66.9892V119.267C117.728 120.922 118.607 122.525 120.365 124.076C122.02 125.524 124.036 126.248 126.415 126.248V148.121C114.832 148.121 106.093 143.26 100.199 133.539C97.3029 128.575 95.8551 123.817 95.8551 119.267ZM134.792 148.121V126.248C134.792 126.248 135.981 125.782 138.36 124.852C139.808 123.817 140.79 122.731 141.307 121.594C141.824 120.249 142.083 118.336 142.083 115.854V113.993L163.49 119.112C163.49 128.109 159.871 135.555 152.632 141.45C147.15 145.897 141.204 148.121 134.792 148.121ZM134.792 59.8534V37.9805C142.341 37.9805 149.167 41.2898 155.269 47.9086C160.75 53.9068 163.49 60.3705 163.49 67.2995L142.083 72.884V70.5571C142.083 67.9717 141.824 66.0584 141.307 64.8174C140.894 63.7832 140.118 62.8525 138.98 62.0251C137.946 61.1978 137.015 60.629 136.188 60.3187L134.792 59.8534Z" fill="black"/>
<path d="M180.257 147.345V38.7561H202.129V147.345H180.257ZM208.334 94.4467L224.933 38.7561H246.496L230.052 94.4467L247.116 147.345H225.709L208.334 94.4467Z" fill="black"/>
<path d="M22.3125 272.345V163.756H44.1854V272.345H22.3125ZM52.5622 222.859V201.452H57.6814C62.1284 201.452 64.7139 199.487 65.4378 195.557C65.5412 194.937 65.5929 194.264 65.5929 193.54C64.9724 188.473 62.3352 185.732 57.6814 185.319H52.5622V163.756H58.3019C77.6411 164.48 87.4658 174.201 87.7761 192.92C87.7761 206.778 83.7945 215.724 75.8313 219.757C71.3843 221.929 65.5412 222.963 58.3019 222.859C57.9917 222.859 56.0785 222.859 52.5622 222.859Z" fill="black"/>
<path d="M97.1954 185.164V163.756H164.365V185.164H141.717V272.345H119.844V185.164H97.1954Z" fill="black"/>
<path d="M177.973 272.345V196.023H179.214L199.846 229.22V272.345H177.973ZM177.973 178.028V163.756H195.813L247.005 246.284V272.345H236.611L177.973 178.028ZM225.132 195.092V163.756H247.005V228.289H245.764L225.132 195.092Z" fill="black"/>


    <defs>
        <clipPath id="revealClip">
            <rect x="100%" y="0" width="0" height="100%" id="revealRect">
                <animate attributeName="x" from="100%" to="0%" begin=".5s" dur="0.25s" fill="freeze" />
                <animate attributeName="width" from="0" to="100%" begin=".5s" dur="0.25s" fill="freeze" />
            </rect>
        </clipPath>
    </defs>
    
    <g clip-path="url(#revealClip)">
<path fill-rule="evenodd" clip-rule="evenodd" d="M0.3125 0.425781H22.3125V0.507812L247.115 0.503906L247.117 0.425781H269.117V22.4258H247.115H22.3125H0.3125V0.425781Z" fill="#0057B7"/>
</g>


    <defs>
        <clipPath id="revealClip2">
            <rect x="0" y="0" width="0" height="100%" id="revealRect">
                <animate attributeName="width" from="0" to="100%" begin=".5s" dur="0.25s" fill="freeze" />
            </rect>
        </clipPath>
    </defs>
    
    <g clip-path="url(#revealClip2)">
        <path fill-rule="evenodd" clip-rule="evenodd" d="M22.3105 288.668H0.310547V310.668H22.3105L22.3125 310.59H247.115L247.117 310.668H269.117V288.668H247.115H22.3105Z" fill="#FFD700"/>
    </g>
</svg>
