<svg width="718" height="2983" viewBox="0 0 718 2983" fill="none" xmlns="http://www.w3.org/2000/svg">
  <style>
    /* Анимация появления */
    @keyframes fadeIn {
      from { opacity: 0; }
      to { opacity: 1; }
    }

    /* Общие стили для всех элементов с fill="#008594" */
    .delayed-fill {
      opacity: 0;
      animation: fadeIn 0.25s forwards;
    }

    /* Задержки для каждого элемента */
    .delayed-fill:nth-of-type(1) {
      animation-delay: 0.15s;
    }

    .delayed-fill:nth-of-type(2) {
      animation-delay: 0.3s;
    }

    .delayed-fill:nth-of-type(3) {
      animation-delay: 0.45s;
    }

    .delayed-fill:nth-of-type(4) {
      animation-delay: .6s;
    }

    .delayed-fill:nth-of-type(5) {
      animation-delay: 0.75s;
    }

    .delayed-fill:nth-of-type(6) {
      animation-delay: 0.9s;
    }

    .delayed-fill:nth-of-type(7) {
      animation-delay: 1.05s;
    }
  </style>
<path d="M140.693 688.453L140.693 564.591L489.288 232.313L617.601 265.689L143.66 265.689L143.66 131.443L682.87 131.443V255.305L335.016 588.325L225.988 554.949L685.095 554.949V688.453L140.693 688.453Z" fill="#F53218"/>
<path class="delayed-fill" d="M145.86 909.141C145.86 883.275 150.851 861.266 160.835 843.114C170.818 824.962 184.659 811.121 202.357 801.591C220.056 792.062 239.569 787.297 260.897 787.297C296.747 787.297 324.656 798.188 344.623 819.97C364.59 842.206 374.574 876.468 374.574 922.755V1013.29H386.826C403.617 1013.29 415.188 1009.43 421.542 1001.72C428.349 994.002 431.752 983.564 431.752 970.404C431.752 957.698 429.71 948.168 425.626 941.815C421.542 935.916 415.415 932.512 407.247 931.604V807.718C429.937 809.079 450.131 815.886 467.829 828.139C485.981 840.845 500.048 859.224 510.032 883.275C520.469 907.78 525.688 937.958 525.688 973.808C525.688 1006.93 520.696 1035.98 510.713 1060.94C501.183 1086.35 485.527 1106.09 463.745 1120.16C442.416 1134.22 413.373 1141.26 376.616 1141.26H247.283C228.224 1141.26 211.433 1141.71 196.912 1142.62C182.844 1143.53 169.003 1145.12 155.389 1147.39V1025.54C161.743 1024.18 167.869 1023.04 173.768 1022.14C179.668 1021.23 187.382 1020.78 196.912 1020.78C182.844 1011.25 170.818 998.086 160.835 981.295C150.851 964.505 145.86 940.453 145.86 909.141ZM236.392 955.429C236.392 967.228 238.434 977.438 242.518 986.06C247.056 994.682 253.41 1001.26 261.578 1005.8C270.2 1010.79 280.184 1013.29 291.529 1013.29H302.42V953.387C302.42 941.588 299.47 932.512 293.571 926.159C287.671 920.26 280.184 917.31 271.108 917.31C260.217 917.31 251.594 920.26 245.241 926.159C239.342 932.512 236.392 942.269 236.392 955.429Z" fill="#008594"/>
<path class="delayed-fill" d="M145.86 1306.36L506.629 1157.29V1295.47L290.848 1374.43L506.629 1443.18V1565.71L145.86 1433.65V1306.36Z" fill="#008594"/>
<path class="delayed-fill" d="M145.86 1681.57C145.86 1655.7 150.851 1633.7 160.835 1615.54C170.818 1597.39 184.659 1583.55 202.357 1574.02C220.055 1564.49 239.569 1559.73 260.897 1559.73C296.747 1559.73 324.656 1570.62 344.623 1592.4C364.59 1614.64 374.574 1648.9 374.574 1695.19V1785.72H386.826C403.617 1785.72 415.188 1781.86 421.542 1774.15C428.348 1766.43 431.752 1755.99 431.752 1742.83C431.752 1730.13 429.71 1720.6 425.626 1714.24C421.542 1708.35 415.415 1704.94 407.247 1704.03V1580.15C429.937 1581.51 450.131 1588.32 467.829 1600.57C485.981 1613.27 500.048 1631.65 510.032 1655.7C520.469 1680.21 525.688 1710.39 525.688 1746.24C525.688 1779.36 520.696 1808.41 510.713 1833.37C501.183 1858.78 485.527 1878.52 463.745 1892.59C442.416 1906.65 413.373 1913.69 376.616 1913.69H247.283C228.224 1913.69 211.433 1914.14 196.912 1915.05C182.844 1915.96 169.003 1917.55 155.389 1919.81L155.389 1797.97C161.743 1796.61 167.869 1795.47 173.768 1794.57C179.668 1793.66 187.382 1793.21 196.912 1793.21C182.844 1783.68 170.818 1770.52 160.835 1753.72C150.851 1736.93 145.86 1712.88 145.86 1681.57ZM236.392 1727.86C236.392 1739.66 238.434 1749.87 242.518 1758.49C247.056 1767.11 253.41 1773.69 261.578 1778.23C270.2 1783.22 280.184 1785.72 291.529 1785.72H302.42V1725.82C302.42 1714.02 299.47 1704.94 293.571 1698.59C287.671 1692.69 280.184 1689.74 271.108 1689.74C260.217 1689.74 251.594 1692.69 245.241 1698.59C239.342 1704.94 236.392 1714.7 236.392 1727.86Z" fill="#008594"/>
<path class="delayed-fill" d="M145.86 2104.34C145.86 2073.03 149.717 2047.39 157.432 2027.42C165.146 2007.91 178.987 1993.61 198.954 1984.54C219.375 1975.46 248.645 1970.92 286.764 1970.92H627.112V2098.89H309.908C287.672 2098.89 272.016 2101.62 262.94 2107.06C254.317 2112.51 250.006 2124.76 250.006 2143.82C250.006 2147.9 250.006 2151.08 250.006 2153.35C250.006 2156.07 250.233 2159.02 250.687 2162.2H148.583C147.675 2156.75 147.221 2150.4 147.221 2143.14C146.767 2135.88 146.541 2128.62 146.541 2121.36C146.087 2114.55 145.86 2108.88 145.86 2104.34Z" fill="#008594"/>
<path class="delayed-fill" d="M145.86 2200.18H506.629V2318.62H461.703C476.678 2327.24 489.384 2340.63 499.822 2358.78C510.713 2376.93 516.159 2401.66 516.159 2432.97C516.159 2473.82 504.814 2504.67 482.124 2525.55C459.888 2546.88 427.214 2557.54 384.103 2557.54H145.86V2430.25H356.876C374.574 2430.25 388.188 2426.39 397.717 2418.68C407.247 2411.42 412.012 2399.39 412.012 2382.6C412.012 2369.9 409.516 2359.46 404.524 2351.29C399.533 2343.12 392.953 2337.22 384.784 2333.59C376.616 2329.96 367.313 2328.15 356.876 2328.15H145.86L145.86 2200.18Z" fill="#008594"/>
<path class="delayed-fill" d="M0.190674 2674.58C0.190674 2667.77 0.871372 2660.96 2.23277 2654.16H106.379C105.018 2660.96 104.337 2667.77 104.337 2674.58C104.337 2683.65 105.699 2690.69 108.421 2695.68C110.69 2701.13 115.001 2705.89 121.355 2709.97C127.708 2714.06 135.876 2718.14 145.86 2722.23L506.629 2574.52V2712.7L290.848 2789.62L506.629 2861.09L506.629 2982.93L145.86 2849.52C111.825 2836.81 84.1432 2823.2 62.8147 2808.68C41.0324 2794.61 25.1495 2777.14 15.166 2756.26C5.18245 2735.39 0.190672 2708.16 0.190674 2674.58Z" fill="#008594"/>
</svg>
