<svg width="4201" height="951" viewBox="0 0 4201 951" fill="none" xmlns="http://www.w3.org/2000/svg">


  <style>
:root {
    --black: black;
}

svg {
    width: 90%;
    height: 100%;
    margin: 0 auto;
}

@media (prefers-color-scheme: dark) {
  :root {
    --black: white;
  }
}
    @keyframes fadeIn {
      from { 
    transform: rotate(105deg) translateX(-5.65%) translateY(-118.5%);
      fill: var(--black); 
      }
      to {
      transform: rotate(0deg) translateX(0%) translateY(2%) scale3d(0.995, 0.995, 0.995);
      fill: #FF0000;
      }
    }


    .delayed-fill-1
     {
          transform: rotate(105deg) translateX(-5.65%) translateY(-118.5%);
      fill: var(--black);
      animation: fadeIn 2.25s forwards .5s;
    }
 </style>

<path class="delayed-fill-1" d="M676.413 269.668L688.693 314.236L541.001 583.773L747.88 529.864L765.385 593.398L428.218 681.258L415.939 636.69L563.63 367.153L356.752 421.062L339.247 357.528L676.413 269.668Z" fill="#FF0000"/>




<path d="M3607.51 640.715H3518.01L3634.26 305.621H3745.14L3861.39 640.715H3771.89L3690.96 390.049H3688.27L3607.51 640.715ZM3595.57 508.837H3782.66V570.359H3595.57V508.837Z" fill="black"/>
<path d="M3240.57 640.715V305.621H3480.83V371.396H3323.85V440.117H3468.54V506.056H3323.85V574.94H3480.83V640.715H3240.57Z" fill="black"/>
<path d="M2926.88 640.715V305.621H3069.22C3095.01 305.621 3117.28 310.148 3136.01 319.202C3154.85 328.146 3169.38 341.018 3179.58 357.816C3189.79 374.505 3194.89 394.303 3194.89 417.21C3194.89 440.444 3189.68 460.188 3179.25 476.441C3168.82 492.584 3154.01 504.91 3134.83 513.419C3115.65 521.818 3092.94 526.017 3066.69 526.017H2976.68V462.206H3051.21C3063.78 462.206 3074.26 460.624 3082.67 457.461C3091.2 454.188 3097.65 449.28 3102.02 442.735C3106.4 436.081 3108.58 427.573 3108.58 417.21C3108.58 406.847 3106.4 398.285 3102.02 391.522C3097.65 384.65 3091.2 379.523 3082.67 376.141C3074.15 372.651 3063.66 370.906 3051.21 370.906H3010.16V640.715H2926.88ZM3120.87 487.567L3206.67 640.715H3115.82L3031.7 487.567H3120.87Z" fill="black"/>
<path d="M2878.26 473.168C2878.26 510.038 2870.97 541.289 2856.39 566.923C2841.8 592.557 2822.06 612.027 2797.16 625.335C2772.38 638.643 2744.56 645.297 2713.71 645.297C2682.76 645.297 2654.89 638.588 2630.1 625.172C2605.31 611.755 2585.62 592.284 2571.04 566.759C2556.57 541.125 2549.34 509.928 2549.34 473.168C2549.34 436.299 2556.57 405.048 2571.04 379.414C2585.62 353.78 2605.31 334.309 2630.1 321.002C2654.89 307.694 2682.76 301.04 2713.71 301.04C2744.56 301.04 2772.38 307.694 2797.16 321.002C2822.06 334.309 2841.8 353.78 2856.39 379.414C2870.97 405.048 2878.26 436.299 2878.26 473.168ZM2793.13 473.168C2793.13 451.352 2789.93 432.918 2783.54 417.865C2777.25 402.812 2768.17 391.413 2756.28 383.668C2744.5 375.924 2730.31 372.051 2713.71 372.051C2697.23 372.051 2683.04 375.924 2671.15 383.668C2659.26 391.413 2650.12 402.812 2643.73 417.865C2637.44 432.918 2634.3 451.352 2634.3 473.168C2634.3 494.984 2637.44 513.419 2643.73 528.472C2650.12 543.525 2659.26 554.924 2671.15 562.669C2683.04 570.413 2697.23 574.286 2713.71 574.286C2730.31 574.286 2744.5 570.413 2756.28 562.669C2768.17 554.924 2777.25 543.525 2783.54 528.472C2789.93 513.419 2793.13 494.984 2793.13 473.168Z" fill="black"/>
<path d="M2240.74 640.715V305.621H2324.02V447.316H2328.56L2442.46 305.621H2540.55L2418.4 455.17L2542.74 640.715H2443.14L2357.33 509.001L2324.02 549.906V640.715H2240.74Z" fill="black"/>
<path d="M1784.54 640.715V305.621H1867.82V440.117H2003.6V305.621H2086.71V640.715H2003.6V506.056H1867.82V640.715H1784.54Z" fill="black"/>
<path d="M1452.64 371.396V305.621H1743.87V371.396H1639.39V640.715H1557.29V371.396H1452.64Z" fill="black"/>
<path d="M1150.22 640.715V305.621H1292.55C1318.35 305.621 1340.62 310.148 1359.35 319.202C1378.19 328.146 1392.72 341.018 1402.92 357.816C1413.13 374.505 1418.23 394.303 1418.23 417.21C1418.23 440.444 1413.02 460.188 1402.59 476.441C1392.15 492.584 1377.35 504.91 1358.17 513.419C1338.99 521.818 1316.28 526.017 1290.03 526.017H1200.02V462.206H1274.55C1287.11 462.206 1297.6 460.624 1306.01 457.461C1314.54 454.188 1320.99 449.28 1325.36 442.735C1329.74 436.081 1331.92 427.573 1331.92 417.21C1331.92 406.847 1329.74 398.285 1325.36 391.522C1320.99 384.65 1314.54 379.523 1306.01 376.141C1297.49 372.651 1287 370.906 1274.55 370.906H1233.5V640.715H1150.22ZM1344.21 487.567L1430.01 640.715H1339.16L1255.04 487.567H1344.21Z" fill="black"/>
<path d="M1101.6 473.168C1101.6 510.038 1094.31 541.289 1079.72 566.923C1065.14 592.557 1045.4 612.027 1020.5 625.335C995.715 638.643 967.898 645.297 937.054 645.297C906.097 645.297 878.224 638.588 853.436 625.172C828.648 611.755 808.963 592.284 794.382 566.759C779.913 541.125 772.679 509.928 772.679 473.168C772.679 436.299 779.913 405.048 794.382 379.414C808.963 353.78 828.648 334.309 853.436 321.002C878.224 307.694 906.097 301.04 937.054 301.04C967.898 301.04 995.715 307.694 1020.5 321.002C1045.4 334.309 1065.14 353.78 1079.72 379.414C1094.31 405.048 1101.6 436.299 1101.6 473.168ZM1016.46 473.168C1016.46 451.352 1013.27 432.918 1006.87 417.865C1000.59 402.812 991.509 391.413 979.619 383.668C967.842 375.924 953.654 372.051 937.054 372.051C920.566 372.051 906.377 375.924 894.488 383.668C882.598 391.413 873.457 402.812 867.064 417.865C860.783 432.918 857.642 451.352 857.642 473.168C857.642 494.984 860.783 513.419 867.064 528.472C873.457 543.525 882.598 554.924 894.488 562.669C906.377 570.413 920.566 574.286 937.054 574.286C953.654 574.286 967.842 570.413 979.619 562.669C991.509 554.924 1000.59 543.525 1006.87 528.472C1013.27 513.419 1016.46 494.984 1016.46 473.168Z" fill="black"/>
</svg>
