<svg width="2544" height="1696" viewBox="0 0 2544 1696" fill="none" xmlns="http://www.w3.org/2000/svg">
<path d="M2544 0H0V1696H2544V0Z" fill="#0057B7"/>
<path d="M2544 848H0V1696H2544V848Z" fill="#FFD700"/>
<path d="M113.928 720V136.65H365.725C409.021 136.65 446.904 145.195 479.376 162.286C511.848 179.376 537.103 203.397 555.143 234.35C573.183 265.302 582.203 301.477 582.203 342.873C582.203 384.65 572.898 420.824 554.289 451.397C535.869 481.97 509.949 505.516 476.528 522.037C443.296 538.558 404.463 546.818 360.029 546.818H209.634V423.768H328.127C346.736 423.768 362.592 420.539 375.695 414.083C388.987 407.437 399.147 398.037 406.173 385.884C413.388 373.731 416.996 359.394 416.996 342.873C416.996 326.163 413.388 311.921 406.173 300.148C399.147 288.184 388.987 279.07 375.695 272.803C362.592 266.347 346.736 263.119 328.127 263.119H272.298V720H113.928Z" fill="#FFD700"/>
<path d="M1017.62 136.65H1175.99V510.359C1175.99 554.793 1165.35 593.247 1144.09 625.718C1123.01 658 1093.58 682.971 1055.79 700.631C1018 718.101 974.133 726.836 924.191 726.836C873.87 726.836 829.815 718.101 792.026 700.631C754.238 682.971 724.804 658 703.726 625.718C682.838 593.247 672.394 554.793 672.394 510.359V136.65H830.764V496.686C830.764 514.726 834.752 530.867 842.728 545.109C850.703 559.161 861.717 570.175 875.769 578.15C890.011 586.126 906.152 590.113 924.191 590.113C942.421 590.113 958.562 586.126 972.614 578.15C986.666 570.175 997.68 559.161 1005.66 545.109C1013.63 530.867 1017.62 514.726 1017.62 496.686V136.65Z" fill="#FFD700"/>
<path d="M1827.95 355.406H1667.3C1666.16 342.114 1663.13 330.056 1658.19 319.232C1653.44 308.408 1646.8 299.103 1638.25 291.318C1629.9 283.342 1619.74 277.266 1607.77 273.088C1595.81 268.72 1582.23 266.537 1567.04 266.537C1540.46 266.537 1517.95 272.993 1499.53 285.906C1481.3 298.818 1467.44 317.333 1457.95 341.449C1448.64 365.566 1443.99 394.524 1443.99 428.325C1443.99 464.025 1448.74 493.933 1458.23 518.049C1467.92 541.976 1481.87 560.015 1500.1 572.169C1518.33 584.132 1540.27 590.113 1565.9 590.113C1580.52 590.113 1593.63 588.309 1605.21 584.701C1616.79 580.904 1626.86 575.492 1635.4 568.466C1643.95 561.44 1650.88 552.989 1656.2 543.115C1661.7 533.051 1665.41 521.752 1667.3 509.219L1827.95 510.359C1826.05 535.045 1819.12 560.205 1807.16 585.841C1795.2 611.286 1778.2 634.833 1756.17 656.481C1734.34 677.939 1707.28 695.219 1674.99 708.321C1642.71 721.424 1605.21 727.975 1562.48 727.975C1508.93 727.975 1460.89 716.487 1418.36 693.51C1376.01 670.533 1342.49 636.732 1317.81 592.107C1293.31 547.483 1281.06 492.888 1281.06 428.325C1281.06 363.382 1293.6 308.693 1318.66 264.258C1343.73 219.633 1377.53 185.927 1420.06 163.14C1462.6 140.163 1510.07 128.675 1562.48 128.675C1599.32 128.675 1633.22 133.707 1664.17 143.771C1695.12 153.836 1722.28 168.552 1745.63 187.921C1768.99 207.1 1787.79 230.742 1802.03 258.846C1816.27 286.95 1824.91 319.137 1827.95 355.406Z" fill="#FFD700"/>
<path d="M1931.89 720V136.65H2090.26V372.497H2098.23L2273.69 136.65H2458.27L2261.16 396.423L2462.83 720H2273.69L2142.67 501.244L2090.26 569.605V720H1931.89Z" fill="#FFD700"/>
<path d="M104.09 1560V976.65H514.257V1104.26H262.46V1204.52H489.192V1332.13H262.46V1560H104.09Z" fill="#0057B7"/>
<path d="M917.731 976.65H1076.1V1350.36C1076.1 1394.79 1065.47 1433.25 1044.2 1465.72C1023.12 1498 993.688 1522.97 955.9 1540.63C918.111 1558.1 874.246 1566.84 824.304 1566.84C773.983 1566.84 729.928 1558.1 692.139 1540.63C654.351 1522.97 624.917 1498 603.839 1465.72C582.951 1433.25 572.507 1394.79 572.507 1350.36V976.65H730.877V1336.69C730.877 1354.73 734.865 1370.87 742.84 1385.11C750.816 1399.16 761.83 1410.17 775.882 1418.15C790.124 1426.13 806.264 1430.11 824.304 1430.11C842.534 1430.11 858.675 1426.13 872.727 1418.15C886.779 1410.17 897.793 1399.16 905.768 1385.11C913.744 1370.87 917.731 1354.73 917.731 1336.69V976.65Z" fill="#0057B7"/>
<path d="M1135.42 1104.26V976.65H1642.43V1104.26H1466.97V1560H1310.88V1104.26H1135.42Z" fill="#0057B7"/>
<path d="M1860.4 976.65V1560H1702.03V976.65H1860.4Z" fill="#0057B7"/>
<path d="M2440.19 976.65V1560H2308.03L2097.25 1253.51H2093.83V1560H1935.46V976.65H2069.9L2277.27 1282H2281.82V976.65H2440.19Z" fill="#0057B7"/>
</svg>
