<svg width="2581" height="1426" viewBox="0 0 2581 1426" fill="none" xmlns="http://www.w3.org/2000/svg">
<path d="M204.89 8.67377C236.003 8.67377 262.671 13.9122 284.895 24.3889C307.435 34.8657 324.579 49.6284 336.326 68.677C348.073 87.4081 353.946 109.632 353.946 135.347C353.946 160.745 348.073 182.969 336.326 202.017C324.579 221.066 307.435 235.829 284.895 246.305C262.671 256.782 236.003 262.021 204.89 262.021H52.0251V174.397H197.747C211.716 174.397 222.51 170.905 230.13 163.92C238.067 156.936 242.035 147.411 242.035 135.347C242.035 122.648 238.067 112.965 230.13 106.298C222.51 99.631 211.716 96.2975 197.747 96.2975H61.5494L111.552 45.8186V365.836H0.59375V8.67377H204.89Z" fill="#E5E5E5"/>
<path d="M593.575 373.931C550.716 373.931 513.095 366.153 480.712 350.597C448.647 335.04 423.566 313.293 405.47 285.355C387.691 257.417 378.802 224.717 378.802 187.255C378.802 149.792 387.691 117.092 405.47 89.1543C423.566 61.2163 448.647 39.4691 480.712 23.9127C513.095 8.35631 550.716 0.578125 593.575 0.578125C636.435 0.578125 673.897 8.35631 705.962 23.9127C738.345 39.4691 763.426 61.2163 781.204 89.1543C799.301 117.092 808.349 149.792 808.349 187.255C808.349 224.717 799.301 257.417 781.204 285.355C763.426 313.293 738.345 335.04 705.962 350.597C673.897 366.153 636.435 373.931 593.575 373.931ZM593.575 275.355C614.846 275.355 633.101 271.862 648.34 264.878C663.897 257.576 675.802 247.417 684.056 234.4C692.311 221.066 696.438 205.351 696.438 187.255C696.438 169.159 692.311 153.602 684.056 140.586C675.802 127.252 663.897 117.092 648.34 110.108C633.101 102.806 614.846 99.1548 593.575 99.1548C572.304 99.1548 553.891 102.806 538.334 110.108C523.096 117.092 511.349 127.252 503.094 140.586C494.84 153.602 490.713 169.159 490.713 187.255C490.713 205.351 494.84 221.066 503.094 234.4C511.349 247.417 523.096 257.576 538.334 264.878C553.891 271.862 572.304 275.355 593.575 275.355Z" fill="#E5E5E5"/>
<path d="M1259.19 213.923C1255.39 245.671 1244.27 273.609 1225.86 297.737C1207.76 321.865 1183.64 340.596 1153.47 353.93C1123.63 367.264 1089.34 373.931 1050.61 373.931C1008.71 373.931 972.037 366.153 940.607 350.597C909.176 335.04 884.731 313.293 867.269 285.355C849.808 257.417 841.077 224.717 841.077 187.255C841.077 149.792 849.808 117.092 867.269 89.1543C884.731 61.2163 909.176 39.4691 940.607 23.9127C972.037 8.35631 1008.71 0.578125 1050.61 0.578125C1089.34 0.578125 1123.63 7.24514 1153.47 20.5792C1183.64 33.9132 1207.76 52.6444 1225.86 76.7726C1244.27 100.583 1255.39 128.521 1259.19 160.587H1147.76C1144.59 146.935 1138.71 135.347 1130.14 125.823C1121.89 115.981 1111.09 108.52 1097.76 103.441C1084.42 98.0436 1068.71 95.3451 1050.61 95.3451C1030.29 95.3451 1012.83 98.9961 998.229 106.298C983.625 113.6 972.354 124.235 964.417 138.204C956.48 151.856 952.512 168.206 952.512 187.255C952.512 206.303 956.48 222.653 964.417 236.305C972.354 249.956 983.625 260.592 998.229 268.211C1012.83 275.513 1030.29 279.164 1050.61 279.164C1068.71 279.164 1084.42 276.783 1097.76 272.021C1111.09 266.941 1121.89 259.481 1130.14 249.639C1138.71 239.797 1144.59 227.892 1147.76 213.923H1259.19Z" fill="#E5E5E5"/>
<path d="M1707.97 213.923C1704.16 245.671 1693.05 273.609 1674.64 297.737C1656.54 321.865 1632.41 340.596 1602.25 353.93C1572.41 367.264 1538.12 373.931 1499.39 373.931C1457.48 373.931 1420.81 366.153 1389.38 350.597C1357.95 335.04 1333.51 313.293 1316.05 285.355C1298.59 257.417 1289.85 224.717 1289.85 187.255C1289.85 149.792 1298.59 117.092 1316.05 89.1543C1333.51 61.2163 1357.95 39.4691 1389.38 23.9127C1420.81 8.35631 1457.48 0.578125 1499.39 0.578125C1538.12 0.578125 1572.41 7.24514 1602.25 20.5792C1632.41 33.9132 1656.54 52.6444 1674.64 76.7726C1693.05 100.583 1704.16 128.521 1707.97 160.587H1596.54C1593.36 146.935 1587.49 135.347 1578.92 125.823C1570.66 115.981 1559.87 108.52 1546.54 103.441C1533.2 98.0436 1517.49 95.3451 1499.39 95.3451C1479.07 95.3451 1461.61 98.9961 1447.01 106.298C1432.4 113.6 1421.13 124.235 1413.19 138.204C1405.26 151.856 1401.29 168.206 1401.29 187.255C1401.29 206.303 1405.26 222.653 1413.19 236.305C1421.13 249.956 1432.4 260.592 1447.01 268.211C1461.61 275.513 1479.07 279.164 1499.39 279.164C1517.49 279.164 1533.2 276.783 1546.54 272.021C1559.87 266.941 1570.66 259.481 1578.92 249.639C1587.49 239.797 1593.36 227.892 1596.54 213.923H1707.97Z" fill="#E5E5E5"/>
<path d="M1752.92 365.836V8.67377H1862.45V306.309L1832.92 299.642L2020.08 8.67377H2164.85V365.836H2055.32V61.5337L2084.37 68.2008L1893.4 365.836H1752.92Z" fill="#E5E5E5"/>
<path d="M2503.49 164.396V242.02H2356.82L2356.34 239.638C2328.4 239.638 2303.96 235.035 2283 225.828C2262.05 216.304 2245.7 202.97 2233.95 185.826C2222.52 168.682 2216.81 148.681 2216.81 125.823C2216.81 102.33 2222.52 81.8523 2233.95 64.391C2245.7 46.9298 2262.05 33.2783 2283 23.4365C2303.96 13.5947 2328.4 8.67377 2356.34 8.67377H2580.16V365.836H2469.2V37.2467L2519.21 87.2494H2373.01C2359.04 87.2494 2348.09 90.5829 2340.15 97.2499C2332.21 103.917 2328.24 113.441 2328.24 125.823C2328.24 138.204 2332.21 147.729 2340.15 154.396C2348.09 161.063 2359.04 164.396 2373.01 164.396H2503.49ZM2451.11 198.684L2333.96 365.836H2206.81L2328.24 198.684H2451.11Z" fill="#E5E5E5"/>
<path d="M357.127 668.014H511.897C543.01 668.014 568.408 672.776 588.092 682.301C608.093 691.508 622.697 704.524 631.903 721.35C641.428 737.859 646.19 757.543 646.19 780.401C646.19 802.942 640.951 822.626 630.475 839.452C619.998 855.961 604.759 868.819 584.758 878.025C564.757 887.232 540.47 891.836 511.897 891.836H274.742L301.886 707.54L274.742 534.674H619.522V617.059H342.84L385.224 567.056L407.13 705.159L382.843 862.786L340.936 812.784H496.658C509.04 812.784 518.723 809.768 525.707 803.736C532.692 797.386 536.184 788.497 536.184 777.068C536.184 765.956 532.533 757.384 525.231 751.352C518.247 745.002 508.722 741.828 496.658 741.828H357.127V668.014Z" fill="#0039A6"/>
<path d="M759.7 891.836L825.894 775.639H827.323L963.521 534.674H1083.05L879.231 891.836H759.7ZM823.513 846.119L644.456 534.674H766.367L902.565 773.734L823.513 846.119Z" fill="#0039A6"/>
<path d="M1046 963.268V793.735H1130.29L1159.81 794.688H1401.73L1429.83 793.735H1538.88V963.268H1434.59V891.836H1150.29V963.268H1046ZM1118.86 534.674H1477.45V863.263H1366.49V581.343L1416.49 630.869H1177.91L1223.15 593.725C1226.01 607.376 1227.6 620.551 1227.91 633.25C1228.55 645.95 1228.87 657.855 1228.87 668.967C1228.87 705.476 1225.53 735.954 1218.87 760.4C1212.2 784.846 1202.04 803.26 1188.39 815.641C1174.74 827.705 1157.75 833.737 1137.43 833.737L1091.24 795.64C1102.99 781.036 1111.72 761.353 1117.43 736.589C1123.46 711.826 1126.48 681.507 1126.48 645.632C1126.48 628.806 1125.84 611.186 1124.57 592.772C1123.3 574.358 1121.4 554.992 1118.86 534.674Z" fill="#0039A6"/>
<path d="M1896.03 674.205V752.304H1630.77V674.205H1896.03ZM1706.49 713.255L1684.11 851.357L1640.77 803.26H1912.69V891.836H1574.1L1600.77 713.255L1574.1 534.674H1910.31V623.25H1640.77L1684.11 575.152L1706.49 713.255Z" fill="#0039A6"/>
<path d="M2074.08 582.772H2185.04V891.836H2074.08V582.772ZM1941.69 534.674H2317.43V633.25H1941.69V534.674Z" fill="#0039A6"/>
<path d="M840.413 1265.92C836.604 1297.67 825.492 1325.61 807.078 1349.74C788.982 1373.87 764.854 1392.6 734.693 1405.93C704.851 1419.26 670.563 1425.93 631.831 1425.93C589.924 1425.93 553.255 1418.15 521.825 1402.6C490.395 1387.04 465.949 1365.29 448.488 1337.36C431.026 1309.42 422.296 1276.72 422.296 1239.25C422.296 1201.79 431.026 1169.09 448.488 1141.15C465.949 1113.22 490.395 1091.47 521.825 1075.91C553.255 1060.36 589.924 1052.58 631.831 1052.58C670.563 1052.58 704.851 1059.25 734.693 1072.58C764.854 1085.91 788.982 1104.64 807.078 1128.77C825.492 1152.58 836.604 1180.52 840.413 1212.59H728.979C725.804 1198.94 719.931 1187.35 711.359 1177.82C703.104 1167.98 692.31 1160.52 678.976 1155.44C665.642 1150.04 649.927 1147.35 631.831 1147.35C611.512 1147.35 594.051 1151 579.447 1158.3C564.843 1165.6 553.573 1176.24 545.636 1190.2C537.699 1203.86 533.73 1220.21 533.73 1239.25C533.73 1258.3 537.699 1274.65 545.636 1288.3C553.573 1301.96 564.843 1312.59 579.447 1320.21C594.051 1327.51 611.512 1331.16 631.831 1331.16C649.927 1331.16 665.642 1328.78 678.976 1324.02C692.31 1318.94 703.104 1311.48 711.359 1301.64C719.931 1291.8 725.804 1279.89 728.979 1265.92H840.413Z" fill="#D52B1E"/>
<path d="M1133.06 1243.54L1142.11 1223.54C1169.09 1224.17 1191.63 1228.46 1209.73 1236.4C1227.83 1244.02 1241.32 1254.65 1250.21 1268.3C1259.1 1281.96 1263.54 1297.99 1263.54 1316.4C1263.54 1335.77 1259.1 1353.23 1250.21 1368.79C1241.64 1384.02 1228.46 1396.09 1210.68 1404.98C1192.9 1413.55 1170.84 1417.84 1144.49 1417.84H872.569L899.713 1234.49L872.569 1060.67H1134.49C1167.51 1060.67 1193.22 1068.45 1211.63 1084.01C1230.37 1099.25 1239.73 1120.52 1239.73 1147.82C1239.73 1163.06 1236.24 1177.51 1229.25 1191.16C1222.59 1204.81 1211.32 1216.4 1195.44 1225.92C1179.89 1235.13 1159.09 1241 1133.06 1243.54ZM981.146 1393.07L938.763 1342.59H1111.63C1124.01 1342.59 1133.69 1339.58 1140.68 1333.55C1147.66 1327.2 1151.16 1318.47 1151.16 1307.35C1151.16 1296.88 1147.5 1288.3 1140.2 1281.64C1132.9 1274.65 1122.26 1271.16 1108.3 1271.16H964.479V1197.82H1092.58C1102.42 1197.82 1110.68 1194.81 1117.34 1188.78C1124.01 1182.74 1127.34 1174.81 1127.34 1164.97C1127.34 1156.71 1124.33 1149.88 1118.3 1144.49C1112.58 1138.77 1104.33 1135.92 1093.53 1135.92H939.239L981.146 1085.44L1005.43 1234.49L981.146 1393.07Z" fill="#D52B1E"/>
<path d="M1506.71 1425.93C1463.85 1425.93 1426.23 1418.15 1393.85 1402.6C1361.78 1387.04 1336.7 1365.29 1318.6 1337.36C1300.83 1309.42 1291.94 1276.72 1291.94 1239.25C1291.94 1201.79 1300.83 1169.09 1318.6 1141.15C1336.7 1113.22 1361.78 1091.47 1393.85 1075.91C1426.23 1060.36 1463.85 1052.58 1506.71 1052.58C1549.57 1052.58 1587.03 1060.36 1619.1 1075.91C1651.48 1091.47 1676.56 1113.22 1694.34 1141.15C1712.44 1169.09 1721.48 1201.79 1721.48 1239.25C1721.48 1276.72 1712.44 1309.42 1694.34 1337.36C1676.56 1365.29 1651.48 1387.04 1619.1 1402.6C1587.03 1418.15 1549.57 1425.93 1506.71 1425.93ZM1506.71 1327.35C1527.98 1327.35 1546.24 1323.86 1561.47 1316.88C1577.03 1309.58 1588.94 1299.42 1597.19 1286.4C1605.45 1273.07 1609.57 1257.35 1609.57 1239.25C1609.57 1221.16 1605.45 1205.6 1597.19 1192.59C1588.94 1179.25 1577.03 1169.09 1561.47 1162.11C1546.24 1154.81 1527.98 1151.15 1506.71 1151.15C1485.44 1151.15 1467.03 1154.81 1451.47 1162.11C1436.23 1169.09 1424.48 1179.25 1416.23 1192.59C1407.97 1205.6 1403.85 1221.16 1403.85 1239.25C1403.85 1257.35 1407.97 1273.07 1416.23 1286.4C1424.48 1299.42 1436.23 1309.58 1451.47 1316.88C1467.03 1323.86 1485.44 1327.35 1506.71 1327.35Z" fill="#D52B1E"/>
<path d="M1800.68 1423.07C1789.57 1423.07 1779.41 1420.53 1770.21 1415.45C1761 1410.06 1753.7 1402.76 1748.3 1393.55C1743.22 1384.34 1740.68 1374.18 1740.68 1363.07C1740.68 1351.64 1743.22 1341.48 1748.3 1332.59C1753.7 1323.39 1761 1316.24 1770.21 1311.16C1779.41 1305.77 1789.57 1303.07 1800.68 1303.07C1812.11 1303.07 1822.27 1305.77 1831.16 1311.16C1840.37 1316.24 1847.51 1323.39 1852.59 1332.59C1857.99 1341.48 1860.69 1351.64 1860.69 1363.07C1860.69 1374.18 1857.99 1384.34 1852.59 1393.55C1847.51 1402.76 1840.37 1410.06 1831.16 1415.45C1822.27 1420.53 1812.11 1423.07 1800.68 1423.07Z" fill="#D52B1E"/>
<path d="M1950.43 1423.07C1939.32 1423.07 1929.16 1420.53 1919.95 1415.45C1910.75 1410.06 1903.44 1402.76 1898.05 1393.55C1892.97 1384.34 1890.43 1374.18 1890.43 1363.07C1890.43 1351.64 1892.97 1341.48 1898.05 1332.59C1903.44 1323.39 1910.75 1316.24 1919.95 1311.16C1929.16 1305.77 1939.32 1303.07 1950.43 1303.07C1961.86 1303.07 1972.02 1305.77 1980.91 1311.16C1990.12 1316.24 1997.26 1323.39 2002.34 1332.59C2007.74 1341.48 2010.43 1351.64 2010.43 1363.07C2010.43 1374.18 2007.74 1384.34 2002.34 1393.55C1997.26 1402.76 1990.12 1410.06 1980.91 1415.45C1972.02 1420.53 1961.86 1423.07 1950.43 1423.07Z" fill="#D52B1E"/>
<path d="M2100.18 1423.07C2089.07 1423.07 2078.91 1420.53 2069.7 1415.45C2060.49 1410.06 2053.19 1402.76 2047.8 1393.55C2042.72 1384.34 2040.18 1374.18 2040.18 1363.07C2040.18 1351.64 2042.72 1341.48 2047.8 1332.59C2053.19 1323.39 2060.49 1316.24 2069.7 1311.16C2078.91 1305.77 2089.07 1303.07 2100.18 1303.07C2111.61 1303.07 2121.77 1305.77 2130.66 1311.16C2139.86 1316.24 2147.01 1323.39 2152.09 1332.59C2157.48 1341.48 2160.18 1351.64 2160.18 1363.07C2160.18 1374.18 2157.48 1384.34 2152.09 1393.55C2147.01 1402.76 2139.86 1410.06 2130.66 1415.45C2121.77 1420.53 2111.61 1423.07 2100.18 1423.07Z" fill="#D52B1E"/>
</svg>
