<svg width="2710" height="2488" viewBox="0 0 2710 2488" fill="none" xmlns="http://www.w3.org/2000/svg">
<path d="M0 1116.96V687.571H231.365C267.37 687.571 296.929 694.906 320.043 709.574C343.602 724.243 361.16 744.023 372.717 768.916C384.274 793.363 390.053 820.478 390.053 850.26C390.053 880.931 383.385 908.49 370.05 932.938C356.715 957.386 338.046 976.722 314.043 990.946C290.039 1004.73 261.591 1011.62 228.698 1011.62H143.353V1116.96H0ZM143.353 900.267H195.36C211.362 900.267 223.364 895.822 231.365 886.932C239.81 877.597 244.033 865.373 244.033 850.26C244.033 834.258 240.255 821.812 232.698 812.922C225.142 803.587 213.585 798.92 198.027 798.92H143.353V900.267Z" fill="#FFD700"/>
<path d="M788.774 1123.63C748.768 1123.63 712.986 1116.96 681.426 1103.63C649.866 1090.29 624.974 1070.73 606.749 1044.95C588.969 1019.17 580.079 987.39 580.079 949.607V687.571H723.431V932.938C723.431 979.166 745.212 1002.28 788.774 1002.28C832.335 1002.28 854.116 979.166 854.116 932.938V687.571H997.469V949.607C997.469 987.39 988.356 1019.17 970.132 1044.95C952.351 1070.73 927.681 1090.29 896.122 1103.63C865.006 1116.96 829.224 1123.63 788.774 1123.63Z" fill="#FFD700"/>
<path d="M1874.55 1116.96V687.571H2017.9V1116.96H1874.55Z" fill="#FFD700"/>
<path d="M2304.56 1116.96V687.571H2425.24L2566.59 885.598V687.571H2709.95V1116.96H2587.93L2447.91 919.603V1116.96H2304.56Z" fill="#FFD700"/>
<path d="M1358.39 463.563C1328.61 463.563 1300.16 461.118 1273.05 456.228C1246.38 451.339 1223.71 444.449 1205.04 435.559V323.544C1225.93 333.323 1248.82 341.324 1273.71 347.547C1299.05 353.77 1322.16 356.882 1343.06 356.882C1360.84 356.882 1374.39 355.104 1383.73 351.547C1393.51 347.991 1398.4 341.324 1398.4 331.545C1398.4 320.432 1391.06 312.431 1376.39 307.542C1361.73 302.207 1340.61 294.873 1313.05 285.539C1284.6 275.759 1262.16 265.314 1245.71 254.201C1229.71 242.644 1218.15 228.864 1211.04 212.862C1203.93 196.415 1200.37 176.413 1200.37 152.854C1200.37 64.8419 1261.49 20.8359 1383.73 20.8359C1398.84 20.8359 1414.84 21.9472 1431.74 24.1697C1449.07 25.9477 1465.52 28.3925 1481.08 31.5041C1497.08 34.1711 1510.63 37.2826 1521.75 40.8387V153.521C1499.08 144.631 1478.19 138.407 1459.07 134.851C1440.4 130.851 1423.29 128.851 1407.73 128.851C1392.17 128.851 1377.95 130.184 1365.06 132.851C1352.61 135.074 1346.39 141.297 1346.39 151.52C1346.39 159.966 1351.95 166.411 1363.06 170.856C1374.17 174.857 1392.84 180.413 1419.07 187.525C1454.18 197.304 1480.63 208.861 1498.41 222.197C1516.64 235.532 1528.86 251.312 1535.08 269.536C1541.75 287.317 1545.08 307.764 1545.08 330.878C1545.08 370.883 1529.53 403.11 1498.41 427.558C1467.3 451.561 1420.62 463.563 1358.39 463.563Z" fill="#FFD700"/>
<path d="M1301.72 1133.9V809.184H1187.04V704.503H1560.42V809.184H1445.07V1133.9H1301.72Z" fill="#FFD700"/>
<path d="M1425.07 1817.56C1377.06 1817.56 1336.39 1810.23 1303.05 1795.56C1269.71 1780.89 1244.15 1757.33 1226.37 1724.88C1209.04 1692.43 1200.37 1649.76 1200.37 1596.87C1200.37 1543.08 1209.04 1499.96 1226.37 1467.52C1244.15 1435.07 1269.71 1411.51 1303.05 1396.84C1336.39 1382.17 1377.06 1374.84 1425.07 1374.84C1473.07 1374.84 1513.75 1382.17 1547.08 1396.84C1580.42 1411.51 1605.76 1435.07 1623.09 1467.52C1640.87 1499.96 1649.76 1543.08 1649.76 1596.87C1649.76 1649.76 1640.87 1692.43 1623.09 1724.88C1605.76 1757.33 1580.42 1780.89 1547.08 1795.56C1513.75 1810.23 1473.07 1817.56 1425.07 1817.56ZM1425.07 1696.21C1452.63 1696.21 1472.41 1688.43 1484.41 1672.88C1496.85 1657.32 1503.08 1631.98 1503.08 1596.87C1503.08 1559.97 1496.85 1534.19 1484.41 1519.52C1472.41 1504.41 1452.63 1496.85 1425.07 1496.85C1397.06 1496.85 1376.84 1504.41 1364.39 1519.52C1352.39 1534.19 1346.39 1559.97 1346.39 1596.87C1346.39 1631.98 1352.39 1657.32 1364.39 1672.88C1376.84 1688.43 1397.06 1696.21 1425.07 1696.21Z" fill="#FFD700"/>
<path d="M1213.71 2487.9V2058.5H1445.07C1481.08 2058.5 1510.63 2065.84 1533.75 2080.51C1557.31 2095.18 1574.87 2114.96 1586.42 2139.85C1597.98 2164.3 1603.76 2191.41 1603.76 2221.19C1603.76 2251.86 1597.09 2279.42 1583.76 2303.87C1570.42 2328.32 1551.75 2347.65 1527.75 2361.88C1503.74 2375.66 1475.3 2382.55 1442.4 2382.55H1357.06V2487.9H1213.71ZM1357.06 2271.2H1409.07C1425.07 2271.2 1437.07 2266.75 1445.07 2257.86C1453.52 2248.53 1457.74 2236.31 1457.74 2221.19C1457.74 2205.19 1453.96 2192.74 1446.4 2183.85C1438.85 2174.52 1427.29 2169.85 1411.73 2169.85H1357.06V2271.2Z" fill="#FFD700"/>
<path d="M1384.44 442.727C1354.65 442.727 1326.21 440.282 1299.09 435.392C1272.42 430.503 1249.75 423.613 1231.08 414.723V302.708C1251.97 312.487 1274.87 320.488 1299.76 326.711C1325.1 332.934 1348.21 336.046 1369.1 336.046C1386.88 336.046 1400.44 334.268 1409.77 330.712C1419.55 327.156 1424.44 320.488 1424.44 310.709C1424.44 299.596 1417.11 291.595 1402.44 286.706C1387.77 281.372 1366.66 274.037 1339.1 264.703C1310.65 254.923 1288.2 244.478 1271.75 233.365C1255.75 221.808 1244.2 208.028 1237.08 192.026C1229.97 175.579 1226.42 155.577 1226.42 132.018C1226.42 44.006 1287.53 0 1409.77 0C1424.89 0 1440.89 1.11126 1457.78 3.33378C1475.12 5.1118 1491.56 7.55659 1507.12 10.6681C1523.12 13.3352 1536.68 16.4467 1547.79 20.0027V132.685C1525.12 123.795 1504.23 117.572 1485.12 114.015C1466.45 110.015 1449.33 108.015 1433.78 108.015C1418.22 108.015 1403.99 109.348 1391.1 112.015C1378.66 114.238 1372.44 120.461 1372.44 130.684C1372.44 139.13 1377.99 145.575 1389.1 150.02C1400.22 154.021 1418.89 159.577 1445.11 166.689C1480.23 176.468 1506.68 188.025 1524.46 201.361C1542.68 214.696 1554.9 230.476 1561.13 248.7C1567.79 266.481 1571.13 286.928 1571.13 310.042C1571.13 350.047 1555.57 382.274 1524.46 406.722C1493.34 430.725 1446.67 442.727 1384.44 442.727Z" fill="#0057B7"/>
<path d="M1327.76 1113.06V788.348H1213.08V683.668H1586.46V788.348H1471.12V1113.06H1327.76Z" fill="#0057B7"/>
<path d="M1451.11 1796.73C1403.11 1796.73 1362.43 1789.39 1329.1 1774.72C1295.76 1760.06 1270.2 1736.5 1252.42 1704.05C1235.08 1671.6 1226.42 1628.93 1226.42 1576.03C1226.42 1522.25 1235.08 1479.13 1252.42 1446.68C1270.2 1414.23 1295.76 1390.67 1329.1 1376C1362.43 1361.33 1403.11 1354 1451.11 1354C1499.12 1354 1539.79 1361.33 1573.13 1376C1606.47 1390.67 1631.8 1414.23 1649.14 1446.68C1666.92 1479.13 1675.81 1522.25 1675.81 1576.03C1675.81 1628.93 1666.92 1671.6 1649.14 1704.05C1631.8 1736.5 1606.47 1760.06 1573.13 1774.72C1539.79 1789.39 1499.12 1796.73 1451.11 1796.73ZM1451.11 1675.38C1478.67 1675.38 1498.45 1667.6 1510.45 1652.04C1522.9 1636.48 1529.12 1611.15 1529.12 1576.03C1529.12 1539.14 1522.9 1513.35 1510.45 1498.69C1498.45 1483.57 1478.67 1476.02 1451.11 1476.02C1423.11 1476.02 1402.88 1483.57 1390.44 1498.69C1378.44 1513.35 1372.44 1539.14 1372.44 1576.03C1372.44 1611.15 1378.44 1636.48 1390.44 1652.04C1402.88 1667.6 1423.11 1675.38 1451.11 1675.38Z" fill="#0057B7"/>
<path d="M1239.75 2467.06V2037.67H1471.12C1507.12 2037.67 1536.68 2045 1559.79 2059.67C1583.35 2074.34 1600.91 2094.12 1612.47 2119.01C1624.02 2143.46 1629.8 2170.57 1629.8 2200.36C1629.8 2231.03 1623.14 2258.59 1609.8 2283.03C1596.47 2307.48 1577.8 2326.82 1553.79 2341.04C1529.79 2354.82 1501.34 2361.71 1468.45 2361.71H1383.1V2467.06H1239.75ZM1383.1 2250.36H1435.11C1451.11 2250.36 1463.11 2245.92 1471.12 2237.03C1479.56 2227.69 1483.78 2215.47 1483.78 2200.36C1483.78 2184.35 1480.01 2171.91 1472.45 2163.02C1464.89 2153.68 1453.33 2149.02 1437.78 2149.02H1383.1V2250.36Z" fill="#0057B7"/>
</svg>
