<svg width="3136" height="631" viewBox="0 0 3136 631" fill="none" xmlns="http://www.w3.org/2000/svg">

  <style>

    @keyframes fadeIn {
      from { 
      transform: rotate(67deg) translateX(4.5%) translateY(-63.5%);
      fill: black; 
      }
      to {
      transform: rotate(0deg) translateX(0%) translateY(0%);
      fill: #FF0000;
      }
    }


    .delayed-fill-1
     {
      transform: rotate(67deg) translateX(4.5%) translateY(-63.5%);
      fill: black;
      animation: fadeIn 2.25s forwards .5s;
    }
 </style>

<path class="delayed-fill-1" d="M50.508 412.451L80.5976 339.593L366.366 228.826L433.733 279.629L154.954 164.496L187.566 85.5302L504.737 216.519L474.648 289.377L189.136 400.761L133.111 354.642L403.165 466.172L370.733 544.701L50.508 412.451Z" fill="#FF0000"/>

<path d="M563.144 457.49V369.695H805.76V457.49H563.144ZM759.031 167.2L917.628 521.212H800.096L671.708 214.874H701.445L572.585 521.212H455.525L613.65 167.2H759.031ZM1326.23 370.639C1322.46 402.107 1311.45 429.798 1293.19 453.714C1275.26 477.629 1251.34 496.195 1221.45 509.412C1191.87 522.628 1157.88 529.236 1119.49 529.236C1077.95 529.236 1041.61 521.527 1010.46 506.107C979.304 490.688 955.073 469.133 937.766 441.441C920.459 413.75 911.805 381.338 911.805 344.206C911.805 307.074 920.459 274.662 937.766 246.971C955.073 219.279 979.304 197.724 1010.46 182.305C1041.61 166.886 1077.95 159.176 1119.49 159.176C1157.88 159.176 1191.87 165.784 1221.45 179.001C1251.34 192.217 1275.26 210.783 1293.19 234.698C1311.45 258.299 1322.46 285.991 1326.23 317.773H1215.78C1212.64 304.242 1206.82 292.756 1198.32 283.316C1190.14 273.561 1179.44 266.166 1166.22 261.131C1153.01 255.782 1137.43 253.107 1119.49 253.107C1099.35 253.107 1082.05 256.726 1067.57 263.963C1053.1 271.201 1041.92 281.743 1034.06 295.588C1026.19 309.12 1022.26 325.325 1022.26 344.206C1022.26 363.087 1026.19 379.293 1034.06 392.824C1041.92 406.355 1053.1 416.896 1067.57 424.449C1082.05 431.686 1099.35 435.305 1119.49 435.305C1137.43 435.305 1153.01 432.945 1166.22 428.225C1179.44 423.19 1190.14 415.795 1198.32 406.04C1206.82 396.285 1212.64 384.485 1215.78 370.639H1326.23ZM1370.79 521.212V167.2H1479.35V462.21L1450.08 455.602L1635.59 167.2H1779.08V521.212H1670.52V219.594L1699.31 226.202L1510.03 521.212H1370.79ZM1899.5 167.2H2255.87V521.212H2145.89V214.874L2195.45 264.435H1960.86L2007.12 228.562C2009.32 247.443 2010.74 265.694 2011.37 283.316C2012.31 300.938 2012.78 317.773 2012.78 333.822C2012.78 379.45 2008.53 416.739 2000.04 445.689C1991.86 474.325 1978.64 495.408 1960.39 508.94C1942.45 522.156 1919.01 528.764 1890.06 528.764C1877.16 528.764 1864.25 527.348 1851.35 524.516C1838.77 521.684 1827.28 517.593 1816.9 512.244V421.617C1830.74 426.966 1843.49 429.641 1855.13 429.641C1874.64 429.641 1888.64 420.987 1897.14 403.68C1905.63 386.373 1909.88 357.737 1909.88 317.773C1909.88 297.949 1908.94 275.606 1907.05 250.747C1905.48 225.888 1902.96 198.039 1899.5 167.2ZM2317.12 521.212V167.2H2425.68V462.21L2396.42 455.602L2581.92 167.2H2725.41V521.212H2616.85V219.594L2645.64 226.202L2456.37 521.212H2317.12ZM3096 305.501V382.911H2833.09V305.501H3096ZM2908.14 344.206L2885.96 481.091L2843 433.417H3112.52V521.212H2776.92L2803.35 344.206L2776.92 167.2H3110.16V254.995H2843L2885.96 207.322L2908.14 344.206Z" fill="black"/>
</svg>
