<svg width="223" height="941" viewBox="0 0 223 941" fill="none" xmlns="http://www.w3.org/2000/svg">
<path d="M43.1719 184V143.176L158.066 33.66L200.357 44.6605H44.1497V0.414062H221.869V41.2381L107.219 150.999L71.2842 139.998H222.602V184H43.1719Z" fill="#F53218"/>
<path d="M44.8626 256.811C44.8626 248.286 46.5078 241.032 49.7983 235.049C53.0888 229.066 57.6506 224.505 63.4838 221.364C69.3169 218.223 75.7483 216.652 82.778 216.652C94.5939 216.652 103.792 220.242 110.373 227.421C116.954 234.75 120.245 246.042 120.245 261.298V291.137H124.283C129.817 291.137 133.631 289.866 135.725 287.323C137.969 284.781 139.09 281.34 139.09 277.003C139.09 272.815 138.417 269.674 137.071 267.58C135.725 265.636 133.706 264.514 131.014 264.215V223.383C138.492 223.832 145.148 226.075 150.981 230.113C156.964 234.301 161.6 240.359 164.891 248.286C168.331 256.363 170.051 266.309 170.051 278.125C170.051 289.043 168.406 298.616 165.115 306.842C161.974 315.218 156.814 321.724 149.635 326.36C142.605 330.997 133.033 333.315 120.918 333.315H78.291C72.0091 333.315 66.4751 333.465 61.689 333.764C57.0523 334.063 52.4905 334.587 48.0035 335.334V295.175C50.0974 294.727 52.1166 294.353 54.061 294.054C56.0054 293.755 58.548 293.605 61.689 293.605C57.0523 290.464 53.0888 286.127 49.7983 280.593C46.5078 275.059 44.8626 267.131 44.8626 256.811ZM74.7014 272.067C74.7014 275.956 75.3744 279.321 76.7205 282.163C78.2162 285.005 80.3102 287.174 83.0024 288.669C85.8442 290.315 89.1347 291.137 92.8738 291.137H96.4635V271.394C96.4635 267.505 95.4913 264.514 93.5469 262.42C91.6025 260.476 89.1347 259.504 86.1433 259.504C82.5537 259.504 79.7119 260.476 77.6179 262.42C75.6735 264.514 74.7014 267.73 74.7014 272.067Z" fill="#008594"/>
<path d="M48.0035 387.731L166.91 338.598V384.141L95.7904 410.166L166.91 432.826V473.209L48.0035 429.685V387.731Z" fill="#008594"/>
<path d="M44.8626 511.398C44.8626 502.873 46.5078 495.619 49.7983 489.636C53.0888 483.653 57.6506 479.091 63.4838 475.95C69.3169 472.809 75.7483 471.239 82.778 471.239C94.5939 471.239 103.792 474.829 110.373 482.008C116.954 489.337 120.245 500.629 120.245 515.885L120.245 545.724H124.283C129.817 545.724 133.631 544.453 135.725 541.91C137.969 539.367 139.09 535.927 139.09 531.59C139.09 527.402 138.417 524.261 137.071 522.167C135.725 520.222 133.706 519.101 131.014 518.802V477.97C138.492 478.418 145.148 480.662 150.981 484.7C156.964 488.888 161.6 494.946 164.891 502.873C168.331 510.949 170.051 520.896 170.051 532.711C170.051 543.63 168.406 553.202 165.115 561.428C161.974 569.804 156.814 576.31 149.635 580.947C142.605 585.584 133.033 587.902 120.918 587.902L78.291 587.902C72.0091 587.902 66.4751 588.052 61.6889 588.351C57.0523 588.65 52.4905 589.173 48.0035 589.921V549.762C50.0974 549.313 52.1166 548.94 54.061 548.64C56.0054 548.341 58.548 548.192 61.6889 548.192C57.0523 545.051 53.0888 540.713 49.7983 535.179C46.5078 529.645 44.8626 521.718 44.8626 511.398ZM74.7013 526.654C74.7013 530.543 75.3744 533.908 76.7205 536.75C78.2162 539.592 80.3101 541.76 83.0024 543.256C85.8442 544.901 89.1346 545.724 92.8738 545.724H96.4635V525.981C96.4635 522.092 95.4913 519.101 93.5469 517.007C91.6025 515.062 89.1346 514.09 86.1433 514.09C82.5537 514.09 79.7119 515.062 77.6179 517.007C75.6735 519.101 74.7013 522.316 74.7013 526.654Z" fill="#008594"/>
<path d="M46.433 650.738C46.433 640.418 47.7043 631.967 50.247 625.386C52.7897 618.955 57.3515 614.243 63.9325 611.252C70.663 608.261 80.3101 606.765 92.8738 606.765L205.05 606.765V648.943H100.502C93.173 648.943 88.0129 649.841 85.0215 651.635C82.1797 653.43 80.7588 657.469 80.7588 663.75C80.7588 665.097 80.7588 666.143 80.7588 666.891C80.7588 667.789 80.8336 668.761 80.9832 669.808L47.3304 669.808C47.0313 668.013 46.8817 665.919 46.8817 663.526C46.7322 661.133 46.6574 658.74 46.6574 656.347C46.5078 654.103 46.433 652.234 46.433 650.738Z" fill="#008594"/>
<path d="M48.0035 682.326H166.91V721.363H152.103C157.038 724.205 161.226 728.617 164.666 734.6C168.256 740.583 170.051 748.734 170.051 759.054C170.051 772.515 166.312 782.686 158.833 789.566C151.504 796.596 140.736 800.111 126.527 800.111H48.0035L48.0035 758.157H117.553C123.386 758.157 127.873 756.886 131.014 754.343C134.155 751.95 135.725 747.986 135.725 742.452C135.725 738.264 134.902 734.824 133.257 732.132C131.612 729.44 129.443 727.495 126.751 726.299C124.059 725.102 120.993 724.504 117.553 724.504H48.0035L48.0035 682.326Z" fill="#008594"/>
<path d="M-0.0078125 838.685C-0.0078124 836.442 0.21654 834.198 0.665244 831.955H34.9911C34.5424 834.198 34.318 836.442 34.318 838.685C34.318 841.676 34.7667 843.995 35.6641 845.64C36.412 847.435 37.8329 849.005 39.9268 850.351C42.0208 851.698 44.713 853.044 48.0035 854.39L166.91 805.705L166.91 851.249L95.7904 876.601L166.91 900.158V940.317L48.0035 896.344C36.7859 892.156 27.6622 887.669 20.6326 882.882C13.4533 878.246 8.21842 872.487 4.92793 865.607C1.63743 858.727 -0.00781298 849.753 -0.0078125 838.685Z" fill="#008594"/>
</svg>
