<svg width="4464" height="144" viewBox="0 0 4464 144" fill="none" xmlns="http://www.w3.org/2000/svg">
<path opacity="0.09" d="M3384 31.7852C3373.34 31.7852 3363.1 36.0247 3355.56 43.5635C3348.03 51.1024 3343.79 61.3381 3343.79 71.9992C3343.79 82.6603 3348.03 92.8961 3355.56 100.435C3363.1 107.974 3373.34 112.213 3384 112.213C3394.66 112.213 3404.9 107.974 3412.44 100.435C3419.97 92.8961 3424.21 82.6603 3424.21 71.9992C3424.21 61.3381 3419.97 51.1024 3412.44 43.5635C3404.9 36.0247 3394.66 31.7852 3384 31.7852Z" fill="url(#paint0_linear_156_1433)"/>
<path opacity="0.45" d="M3240 24.8555C3227.5 24.8555 3215.5 29.8255 3206.66 38.6635C3197.83 47.5015 3192.86 59.5012 3192.86 71.9995C3192.86 84.4978 3197.83 96.4975 3206.66 105.335C3215.5 114.173 3227.5 119.143 3240 119.143C3252.5 119.143 3264.5 114.173 3273.34 105.335C3282.17 96.4975 3287.14 84.4978 3287.14 71.9995C3287.14 59.5012 3282.17 47.5015 3273.34 38.6635C3264.5 29.8255 3252.5 24.8555 3240 24.8555Z" fill="url(#paint1_linear_156_1433)"/>
<path opacity="0.78" d="M3096 19.1133C3081.98 19.1133 3068.52 24.689 3058.6 34.604C3048.69 44.519 3043.11 57.9809 3043.11 72.0022C3043.11 86.0236 3048.69 99.4854 3058.6 109.4C3068.52 119.315 3081.98 124.891 3096 124.891C3110.02 124.891 3123.48 119.315 3133.4 109.4C3143.31 99.4854 3148.89 86.0236 3148.89 72.0022C3148.89 57.9809 3143.31 44.519 3133.4 34.604C3123.48 24.689 3110.02 19.1133 3096 19.1133Z" fill="url(#paint2_linear_156_1433)"/>
<path opacity="0.92" d="M2952 14.4531C2936.74 14.4531 2922.1 20.5199 2911.31 31.3082C2900.52 42.0965 2894.45 56.7441 2894.45 72.0005C2894.45 87.2568 2900.52 101.905 2911.31 112.693C2922.1 123.482 2936.74 129.548 2952 129.548C2967.26 129.548 2981.9 123.482 2992.69 112.693C3003.48 101.905 3009.55 87.2568 3009.55 72.0005C3009.55 56.7441 3003.48 42.0965 2992.69 31.3082C2981.9 20.5199 2967.26 14.4531 2952 14.4531Z" fill="url(#paint3_linear_156_1433)"/>
<path opacity="0.98" d="M2808 10.7812C2791.77 10.7812 2776.19 17.2351 2764.71 28.7115C2753.24 40.188 2746.78 55.77 2746.78 71.9994C2746.78 88.2289 2753.24 103.811 2764.71 115.288C2776.19 126.764 2791.77 133.218 2808 133.218C2824.23 133.218 2839.81 126.764 2851.29 115.288C2862.76 103.811 2869.22 88.2289 2869.22 71.9994C2869.22 55.77 2862.76 40.188 2851.29 28.7115C2839.81 17.2351 2824.23 10.7812 2808 10.7812Z" fill="url(#paint4_linear_156_1433)"/>
<path d="M2664 8C2647.03 8 2630.74 14.747 2618.75 26.745C2606.75 38.743 2600 55.033 2600 72C2600 88.967 2606.75 105.257 2618.75 117.255C2630.74 129.253 2647.03 136 2664 136C2680.97 136 2697.26 129.253 2709.25 117.255C2721.25 105.257 2728 88.967 2728 72C2728 55.033 2721.25 38.743 2709.25 26.745C2697.26 14.747 2680.97 8 2664 8Z" fill="url(#paint5_linear_156_1433)"/>
<path d="M2520 6.00781C2502.51 6.00781 2485.71 12.9648 2473.34 25.3362C2460.97 37.7076 2454.01 54.5045 2454.01 71.9996C2454.01 89.4946 2460.97 106.292 2473.34 118.663C2485.71 131.035 2502.51 137.992 2520 137.992C2537.5 137.992 2554.29 131.035 2566.66 118.663C2579.03 106.292 2585.99 89.4946 2585.99 71.9996C2585.99 54.5045 2579.03 37.7076 2566.66 25.3362C2554.29 12.9648 2537.5 6.00782 2520 6.00781Z" fill="url(#paint6_linear_156_1433)"/>
<path d="M2376 4.70703C2358.16 4.70703 2341.03 11.8011 2328.42 24.4163C2315.8 37.0314 2308.71 54.1594 2308.71 71.9992C2308.71 89.839 2315.8 106.967 2328.42 119.582C2341.03 132.197 2358.16 139.291 2376 139.291C2393.84 139.291 2410.97 132.197 2423.58 119.582C2436.2 106.967 2443.29 89.839 2443.29 71.9992C2443.29 54.1594 2436.2 37.0314 2423.58 24.4163C2410.97 11.8011 2393.84 4.70703 2376 4.70703Z" fill="url(#paint7_linear_156_1433)"/>
<path d="M2232 4C2213.97 4 2196.66 11.1687 2183.92 23.9166C2171.17 36.6644 2164 53.9726 2164 72C2164 90.0274 2171.17 107.336 2183.92 120.083C2196.66 132.831 2213.97 140 2232 140C2250.03 140 2267.34 132.831 2280.08 120.083C2292.83 107.336 2300 90.0274 2300 72C2300 53.9726 2292.83 36.6644 2280.08 23.9166C2267.34 11.1687 2250.03 4 2232 4Z" fill="url(#paint8_linear_156_1433)"/>
<path d="M2088 3.78516C2069.92 3.78516 2052.55 10.9764 2039.77 23.7644C2026.98 36.5524 2019.79 53.915 2019.79 71.9991C2019.79 90.0833 2026.98 107.446 2039.77 120.234C2052.55 133.022 2069.92 140.213 2088 140.213C2106.08 140.213 2123.45 133.022 2136.23 120.234C2149.02 107.446 2156.21 90.0833 2156.21 71.9991C2156.21 53.915 2149.02 36.5524 2136.23 23.7644C2123.45 10.9764 2106.08 3.78516 2088 3.78516Z" fill="url(#paint9_linear_156_1433)"/>
<path d="M1944 3.96484C1925.96 3.96484 1908.65 11.137 1895.89 23.8911C1883.14 36.6451 1875.97 53.9615 1875.97 71.9977C1875.97 90.0339 1883.14 107.351 1895.89 120.105C1908.65 132.859 1925.96 140.031 1944 140.031C1962.04 140.031 1979.35 132.859 1992.11 120.105C2004.86 107.351 2012.03 90.0339 2012.03 71.9977C2012.03 53.9615 2004.86 36.6451 1992.11 23.8911C1979.35 11.137 1962.04 3.96484 1944 3.96484Z" fill="url(#paint10_linear_156_1433)"/>
<path d="M1800 4.44531C1782.09 4.44531 1764.9 11.5672 1752.23 24.2317C1739.57 36.8963 1732.44 54.0913 1732.44 72.0009C1732.44 89.9105 1739.57 107.106 1752.23 119.77C1764.9 132.435 1782.09 139.556 1800 139.556C1817.91 139.556 1835.1 132.435 1847.77 119.77C1860.43 107.106 1867.56 89.9105 1867.56 72.0009C1867.56 54.0913 1860.43 36.8963 1847.77 24.2317C1835.1 11.5672 1817.91 4.44531 1800 4.44531Z" fill="url(#paint11_linear_156_1433)"/>
<path d="M1656 5.12109C1638.27 5.12109 1621.25 12.1718 1608.71 24.7099C1596.17 37.2479 1589.12 54.2711 1589.12 72.0018C1589.12 89.7325 1596.17 106.756 1608.71 119.294C1621.25 131.832 1638.27 138.882 1656 138.882C1673.73 138.882 1690.75 131.832 1703.29 119.294C1715.83 106.756 1722.88 89.7325 1722.88 72.0018C1722.88 54.2711 1715.83 37.2479 1703.29 24.7099C1690.75 12.1718 1673.73 5.12109 1656 5.12109Z" fill="url(#paint12_linear_156_1433)"/>
<path d="M1634.27 60.0219C1653.77 51.5281 1666.77 45.9279 1673.28 43.2223C1691.85 35.4966 1695.71 34.1548 1698.23 34.1098C1698.78 34.1004 1700.02 34.2373 1700.82 34.8884C1701.49 35.437 1701.68 36.179 1701.77 36.6994C1701.86 37.2198 1701.97 38.4059 1701.88 39.3318C1700.87 49.9073 1696.52 75.5706 1694.3 87.4157C1693.37 92.4277 1691.52 94.1077 1689.73 94.2717C1685.85 94.6297 1682.9 91.7057 1679.14 89.2407C1673.25 85.3807 1669.93 82.9797 1664.21 79.2146C1657.61 74.8631 1661.89 72.4711 1665.65 68.5628C1666.64 67.5397 1683.75 51.9743 1684.08 50.5625C1684.12 50.3859 1684.16 49.7275 1683.77 49.3806C1683.38 49.0326 1682.8 49.1517 1682.39 49.2458C1681.8 49.3795 1672.39 55.5953 1654.18 67.8919C1651.51 69.7248 1649.09 70.6183 1646.92 70.5713C1644.53 70.5201 1639.94 69.2211 1636.53 68.1113C1632.34 66.7497 1629.01 66.0297 1629.3 63.7171C1629.45 62.5132 1631.11 61.2812 1634.27 60.0219Z" fill="white"/>
<path d="M1788.1 50.0219C1807.6 41.5281 1820.6 35.9279 1827.11 33.2223C1845.68 25.4966 1849.54 24.1548 1852.06 24.1098C1852.61 24.1004 1853.85 24.2373 1854.65 24.8884C1855.32 25.437 1855.51 26.179 1855.6 26.6994C1855.69 27.2198 1855.8 28.4059 1855.71 29.3318C1854.7 39.9073 1850.35 65.5706 1848.13 77.4157C1847.2 82.4277 1845.35 84.1077 1843.56 84.2717C1839.68 84.6297 1836.73 81.7057 1832.97 79.2407C1827.08 75.3807 1823.76 72.9797 1818.04 69.2146C1811.44 64.8631 1815.72 62.4711 1819.48 58.5628C1820.47 57.5397 1837.58 41.9743 1837.91 40.5625C1837.95 40.3859 1837.99 39.7275 1837.6 39.3806C1837.21 39.0326 1836.63 39.1517 1836.22 39.2458C1835.63 39.3795 1826.22 45.5953 1808.01 57.8919C1805.34 59.7248 1802.92 60.6183 1800.75 60.5713C1798.36 60.5201 1793.77 59.2211 1790.36 58.1113C1786.17 56.7497 1782.84 56.0297 1783.13 53.7171C1783.28 52.5132 1784.94 51.2812 1788.1 50.0219Z" fill="white"/>
<path fill-rule="evenodd" clip-rule="evenodd" d="M1986.99 19.2578C1984.31 20.3432 1981.15 21.6497 1977.37 23.2198C1970.86 25.9254 1957.86 31.5255 1938.36 40.0193C1935.2 41.2786 1933.54 42.5106 1933.39 43.7145C1933.14 45.7504 1935.69 46.552 1939.16 47.6436C1939.63 47.792 1940.12 47.9458 1940.62 48.1087C1944.03 49.2185 1948.62 50.5175 1951.01 50.5687C1953.18 50.6157 1955.6 49.7223 1958.27 47.8894C1976.48 35.5928 1985.89 29.377 1986.48 29.2433C1986.89 29.1492 1987.47 29.0301 1987.86 29.3781C1988.25 29.725 1988.21 30.3834 1988.17 30.56C1987.92 31.6416 1977.82 41.0312 1972.66 45.8237C1971.09 47.2865 1969.98 48.321 1969.74 48.5603C1969.22 49.1052 1968.69 49.6206 1968.17 50.116C1965 53.1737 1962.62 55.4673 1968.3 59.2121C1971.06 61.0246 1973.26 62.5211 1975.45 64.0164C1977.82 65.6271 1980.18 67.2364 1983.23 69.2382C1984.02 69.751 1984.76 70.2837 1985.49 70.8027C1988.26 72.7778 1990.75 74.5527 1993.82 74.2692C1995.61 74.1052 1997.46 72.4252 1998.39 67.4132C1999.67 60.5798 2001.66 49.1476 2003.31 38.6665C2000.3 33.2975 1996.54 28.3178 1992.11 23.8885C1990.48 22.2519 1988.76 20.7072 1986.99 19.2578Z" fill="white"/>
<path fill-rule="evenodd" clip-rule="evenodd" d="M2124.14 14.1484C2117.1 17.1097 2104.84 22.4012 2087.34 30.0221C2084.18 31.2814 2082.52 32.5134 2082.37 33.7173C2082.12 35.7532 2084.67 36.5548 2088.14 37.6464C2088.61 37.7948 2089.1 37.9486 2089.6 38.1115C2093.01 39.2213 2097.6 40.5203 2099.99 40.5715C2102.16 40.6185 2104.58 39.7251 2107.25 37.8922C2120.47 28.967 2129.05 23.2453 2132.99 20.7276C2130.21 18.2873 2127.25 16.0896 2124.14 14.1484ZM2135.26 22.8175C2132.04 26.1594 2125.48 32.2635 2121.64 35.8265C2120.07 37.2893 2118.95 38.3238 2118.72 38.5631C2118.2 39.108 2117.66 39.6234 2117.15 40.1188C2113.98 43.1765 2111.6 45.4701 2117.28 49.2149C2120.04 51.0274 2122.23 52.5239 2124.43 54.0192C2126.8 55.6299 2129.16 57.2392 2132.21 59.241C2133 59.7538 2133.74 60.2865 2134.47 60.8055C2137.24 62.7806 2139.73 64.5555 2142.8 64.272C2144.59 64.108 2146.44 62.428 2147.37 57.416C2148.06 53.7521 2148.95 48.7661 2149.88 43.3135C2146.55 36.1125 2141.95 29.4815 2136.23 23.7647C2135.91 23.4455 2135.59 23.1297 2135.26 22.8175Z" fill="white"/>
<path fill-rule="evenodd" clip-rule="evenodd" d="M2259.2 9.67578C2252.79 12.4387 2244.84 15.8872 2235.34 20.021C2232.18 21.2803 2230.52 22.5123 2230.37 23.7162C2230.12 25.7521 2232.67 26.5537 2236.14 27.6453C2236.61 27.7937 2237.1 27.9475 2237.6 28.1104C2241.01 29.2202 2245.6 30.5192 2247.99 30.5704C2250.16 30.6174 2252.58 29.724 2255.25 27.8911C2261.93 23.3818 2267.43 19.6903 2271.74 16.8166C2267.81 13.9897 2263.61 11.5988 2259.2 9.67578ZM2275.85 20.0257C2273.6 22.1506 2271.35 24.2397 2269.64 25.8254C2268.07 27.2882 2266.96 28.3227 2266.72 28.562C2266.2 29.1069 2265.67 29.6223 2265.15 30.1177C2261.98 33.1754 2259.6 35.469 2265.28 39.2138C2268.04 41.0263 2270.24 42.5228 2272.43 44.0181C2274.8 45.6288 2277.16 47.2381 2280.21 49.2399C2281 49.7527 2281.74 50.2854 2282.47 50.8044C2285.24 52.7795 2287.73 54.5544 2290.8 54.2709C2292.59 54.1069 2294.44 52.4269 2295.37 47.4149C2295.38 47.4006 2295.38 47.3864 2295.38 47.3722C2292 38.6581 2286.82 30.6505 2280.08 23.9157C2278.72 22.5548 2277.31 21.2575 2275.85 20.0257Z" fill="white"/>
<path fill-rule="evenodd" clip-rule="evenodd" d="M2391.84 6.60156C2389.35 7.6843 2386.73 8.82458 2383.98 10.0224C2380.82 11.2817 2379.16 12.5137 2379.01 13.7176C2378.76 15.7534 2381.31 16.5551 2384.78 17.6467C2385.25 17.7951 2385.74 17.9489 2386.24 18.1118C2389.65 19.2216 2394.24 20.5206 2396.63 20.5718C2398.8 20.6188 2401.22 19.7253 2403.89 17.8924C2406 16.4661 2408 15.1215 2409.87 13.8588C2404.25 10.5823 2398.17 8.13644 2391.84 6.60156ZM2416.04 17.9176C2415.69 18.2445 2415.45 18.4676 2415.36 18.5633C2414.84 19.1083 2414.3 19.6237 2413.79 20.1191C2410.62 23.1768 2408.24 25.4704 2413.92 29.2151C2416.68 31.0277 2418.87 32.5242 2421.07 34.0194C2423.43 35.6301 2425.8 37.2395 2428.85 39.2412C2429.63 39.7541 2430.38 40.2868 2431.11 40.8057C2433.19 42.2892 2435.11 43.6598 2437.24 44.13C2433.94 36.8608 2429.33 30.1696 2423.58 24.4168C2421.21 22.0531 2418.69 19.8833 2416.04 17.9176Z" fill="white"/>
<path fill-rule="evenodd" clip-rule="evenodd" d="M2527.24 6.40625C2528.2 6.83593 2529.42 7.21868 2530.78 7.64584C2531.25 7.79426 2531.74 7.94803 2532.24 8.111C2535.65 9.2208 2540.24 10.5198 2542.63 10.571C2543.05 10.58 2543.48 10.5543 2543.91 10.4941C2538.58 8.42172 2532.98 7.04011 2527.24 6.40625Z" fill="white"/>
<path d="M1512 5.89062C1494.47 5.89062 1477.65 12.8598 1465.26 25.2528C1452.86 37.6458 1445.89 54.472 1445.89 71.9977C1445.89 89.5231 1452.86 106.35 1465.26 118.743C1477.65 131.136 1494.47 138.105 1512 138.105C1529.53 138.105 1546.35 131.136 1558.74 118.743C1571.14 106.35 1578.11 89.5231 1578.11 71.9977C1578.11 54.472 1571.14 37.6458 1558.74 25.2528C1546.35 12.8598 1529.53 5.89062 1512 5.89062Z" fill="url(#paint13_linear_156_1433)"/>
<path d="M1473.24 73.8784C1492.51 65.4828 1505.36 59.9474 1511.79 57.2732C1530.15 49.6368 1533.96 48.3105 1536.45 48.2661C1537 48.2568 1538.22 48.3921 1539.01 49.0356C1539.68 49.5779 1539.86 50.3113 1539.95 50.8257C1540.04 51.3401 1540.15 52.5124 1540.06 53.4276C1539.07 63.8808 1534.76 89.2473 1532.57 100.956C1531.65 105.91 1529.82 107.571 1528.05 107.733C1524.22 108.086 1521.3 105.196 1517.58 102.759C1511.76 98.9444 1508.48 96.5707 1502.83 92.8491C1496.3 88.548 1500.53 86.1836 1504.25 82.3205C1505.23 81.3093 1522.14 65.9239 1522.47 64.5284C1522.51 64.3539 1522.55 63.7031 1522.16 63.3602C1521.77 63.0162 1521.2 63.134 1520.79 63.2269C1520.21 63.3592 1510.91 69.503 1492.91 81.6574C1490.27 83.4691 1487.88 84.3523 1485.74 84.3058C1483.38 84.2552 1478.84 82.9712 1475.46 81.8743C1471.32 80.5284 1468.03 79.8167 1468.32 77.5309C1468.47 76.3409 1470.11 75.1231 1473.24 73.8784Z" fill="white"/>
<path d="M1368 6.66406C1350.68 6.66406 1334.05 13.5517 1321.8 25.7996C1309.55 38.0476 1302.67 54.677 1302.67 71.9974C1302.67 89.3179 1309.55 105.948 1321.8 118.196C1334.05 130.444 1350.68 137.331 1368 137.331C1385.32 137.331 1401.95 130.444 1414.2 118.196C1426.45 105.948 1433.33 89.3178 1433.33 71.9973C1433.33 54.6769 1426.45 38.0475 1414.2 25.7995C1401.95 13.5516 1385.32 6.66406 1368 6.66406Z" fill="url(#paint14_linear_156_1433)"/>
<path d="M1330.88 72.6646C1349.93 64.3672 1362.63 58.8966 1368.98 56.2537C1387.13 48.7066 1390.9 47.3959 1393.35 47.352C1393.89 47.3428 1395.1 47.4765 1395.89 48.1125C1396.55 48.6485 1396.73 49.3733 1396.82 49.8816C1396.9 50.39 1397.01 51.5486 1396.92 52.4531C1395.94 62.7839 1391.69 87.8536 1389.52 99.4247C1388.61 104.321 1386.8 105.962 1385.06 106.122C1381.26 106.471 1378.38 103.615 1374.71 101.207C1368.96 97.4371 1365.71 95.0913 1360.13 91.4132C1353.68 87.1624 1357.86 84.8258 1361.54 81.0078C1362.5 80.0085 1379.21 64.8031 1379.54 63.424C1379.58 63.2515 1379.62 62.6083 1379.23 62.2694C1378.85 61.9295 1378.29 62.0459 1377.88 62.1377C1377.3 62.2684 1368.12 68.3403 1350.32 80.3525C1347.72 82.143 1345.35 83.0158 1343.24 82.9699C1340.9 82.9199 1336.42 81.651 1333.08 80.5668C1328.99 79.2367 1325.74 78.5333 1326.02 76.2742C1326.17 75.0982 1327.79 73.8947 1330.88 72.6646Z" fill="white"/>
<path d="M1224 7.34375C1206.86 7.34375 1190.4 14.1601 1178.28 26.2815C1166.16 38.403 1159.34 54.8607 1159.34 72.0022C1159.34 89.1438 1166.16 105.601 1178.28 117.723C1190.4 129.844 1206.86 136.661 1224 136.661C1241.14 136.661 1257.6 129.844 1269.72 117.723C1281.84 105.601 1288.66 89.1438 1288.66 72.0022C1288.66 54.8607 1281.84 38.403 1269.72 26.2815C1257.6 14.1601 1241.14 7.34375 1224 7.34375Z" fill="url(#paint15_linear_156_1433)"/>
<path d="M1188.04 71.8914C1206.89 63.6798 1219.46 58.2656 1225.75 55.65C1243.7 48.181 1247.44 46.8837 1249.87 46.8403C1250.4 46.8312 1251.6 46.9636 1252.37 47.593C1253.03 48.1234 1253.21 48.8407 1253.29 49.3438C1253.38 49.8469 1253.49 50.9936 1253.4 51.8887C1252.43 62.1128 1248.22 86.9235 1246.08 98.3751C1245.17 103.22 1243.39 104.845 1241.66 105.003C1237.9 105.349 1235.05 102.522 1231.41 100.139C1225.72 96.4081 1222.51 94.0864 1216.98 90.4463C1210.6 86.2395 1214.74 83.927 1218.38 80.1485C1219.33 79.1594 1235.87 64.1112 1236.19 62.7463C1236.23 62.5755 1236.27 61.9391 1235.89 61.6036C1235.51 61.2672 1234.96 61.3824 1234.55 61.4733C1233.98 61.6026 1224.89 67.6118 1207.28 79.4999C1204.7 81.2719 1202.36 82.1357 1200.27 82.0903C1197.96 82.0408 1193.52 80.785 1190.22 79.712C1186.17 78.3956 1182.95 77.6995 1183.23 75.4638C1183.38 74.2999 1184.98 73.1088 1188.04 71.8914Z" fill="white"/>
<path d="M1080 7.82031C1062.98 7.82031 1046.65 14.5864 1034.62 26.6184C1022.58 38.6503 1015.82 54.9864 1015.82 72.0014C1015.82 89.0164 1022.58 105.352 1034.62 117.384C1046.65 129.416 1062.98 136.182 1080 136.182C1097.01 136.182 1113.35 129.416 1125.38 117.384C1137.41 105.352 1144.18 89.0163 1144.18 72.0013C1144.18 54.9863 1137.41 38.6502 1125.38 26.6183C1113.35 14.5863 1097.01 7.82031 1080 7.82031Z" fill="url(#paint16_linear_156_1433)"/>
<path d="M1044.74 71.4525C1063.45 63.3015 1075.92 57.9274 1082.17 55.331C1099.99 47.9171 1103.69 46.6295 1106.11 46.5864C1106.64 46.5773 1107.82 46.7087 1108.59 47.3335C1109.24 47.86 1109.42 48.572 1109.51 49.0714C1109.59 49.5708 1109.7 50.709 1109.61 51.5975C1108.65 61.7461 1104.47 86.3736 1102.34 97.7407C1101.44 102.55 1099.67 104.163 1097.96 104.32C1094.23 104.663 1091.4 101.857 1087.79 99.4916C1082.14 95.7882 1078.95 93.4837 1073.47 89.8705C1067.13 85.6947 1071.24 83.3992 1074.85 79.6486C1075.79 78.6669 1092.22 63.7297 1092.53 62.3749C1092.57 62.2054 1092.61 61.5736 1092.24 61.2407C1091.86 60.9068 1091.31 61.0211 1090.91 61.1113C1090.34 61.2397 1081.32 67.2045 1063.83 79.0048C1061.27 80.7638 1058.95 81.6212 1056.87 81.5761C1054.58 81.5269 1050.18 80.2804 1046.9 79.2154C1042.88 77.9087 1039.68 77.2178 1039.96 74.9985C1040.11 73.8433 1041.7 72.6609 1044.74 71.4525Z" fill="white"/>
<path d="M936 8C919.03 8 902.74 14.747 890.75 26.745C878.75 38.743 872 55.033 872 72C872 88.967 878.75 105.257 890.75 117.255C902.74 129.253 919.03 136 936 136C952.97 136 969.26 129.253 981.25 117.255C993.25 105.257 1000 88.967 1000 72C1000 55.033 993.25 38.743 981.25 26.745C969.26 14.747 952.97 8 936 8Z" fill="url(#paint17_linear_156_1433)"/>
<path d="M900.969 71.3238C919.629 63.1958 932.069 57.8368 938.289 55.2478C956.069 47.8548 959.758 46.5708 962.168 46.5278C962.698 46.5188 963.878 46.6498 964.648 47.2728C965.298 47.7978 965.469 48.5078 965.559 49.0058C965.639 49.5038 965.748 50.6388 965.668 51.5248C964.698 61.6448 960.528 86.2028 958.408 97.5378C957.518 102.334 955.749 103.942 954.039 104.099C950.319 104.441 947.498 101.643 943.898 99.2838C938.268 95.5908 935.089 93.2928 929.619 89.6898C923.299 85.5258 927.399 83.2368 930.999 79.4968C931.939 78.5178 948.318 63.6228 948.628 62.2718C948.668 62.1028 948.709 61.4728 948.339 61.1408C947.959 60.8078 947.409 60.9218 947.009 61.0118C946.449 61.1398 937.449 67.0878 920.009 78.8548C917.459 80.6088 915.149 81.4638 913.069 81.4188C910.789 81.3698 906.388 80.1268 903.128 79.0648C899.118 77.7618 895.929 77.0728 896.209 74.8598C896.349 73.7078 897.939 72.5288 900.969 71.3238Z" fill="white"/>
<path d="M792 8C775.03 8 758.74 14.747 746.75 26.745C734.75 38.743 728 55.033 728 72C728 88.967 734.75 105.257 746.75 117.255C758.74 129.253 775.03 136 792 136C808.97 136 825.26 129.253 837.25 117.255C849.25 105.257 856 88.967 856 72C856 55.033 849.25 38.743 837.25 26.745C825.26 14.747 808.97 8 792 8Z" fill="url(#paint18_linear_156_1433)"/>
<path d="M756.969 71.3238C775.629 63.1958 788.069 57.8368 794.289 55.2478C812.069 47.8548 815.758 46.5708 818.168 46.5278C818.698 46.5188 819.878 46.6498 820.648 47.2728C821.298 47.7978 821.469 48.5078 821.559 49.0058C821.639 49.5038 821.748 50.6388 821.668 51.5248C820.698 61.6448 816.528 86.2028 814.408 97.5378C813.518 102.334 811.749 103.942 810.039 104.099C806.319 104.441 803.498 101.643 799.898 99.2838C794.268 95.5908 791.089 93.2928 785.619 89.6898C779.299 85.5258 783.399 83.2368 786.999 79.4968C787.939 78.5178 804.318 63.6228 804.628 62.2718C804.668 62.1028 804.709 61.4728 804.339 61.1408C803.959 60.8078 803.409 60.9218 803.009 61.0118C802.449 61.1398 793.449 67.0878 776.009 78.8548C773.459 80.6088 771.149 81.4638 769.069 81.4188C766.789 81.3698 762.388 80.1268 759.128 79.0648C755.118 77.7618 751.929 77.0728 752.209 74.8598C752.349 73.7078 753.939 72.5288 756.969 71.3238Z" fill="white"/>
<path d="M648 8C631.03 8 614.74 14.747 602.75 26.745C590.75 38.743 584 55.033 584 72C584 88.967 590.75 105.257 602.75 117.255C614.74 129.253 631.03 136 648 136C664.97 136 681.26 129.253 693.25 117.255C705.25 105.257 712 88.967 712 72C712 55.033 705.25 38.743 693.25 26.745C681.26 14.747 664.97 8 648 8Z" fill="url(#paint19_linear_156_1433)"/>
<path d="M612.969 71.3238C631.629 63.1958 644.069 57.8368 650.289 55.2478C668.069 47.8548 671.758 46.5708 674.168 46.5278C674.698 46.5188 675.878 46.6498 676.648 47.2728C677.298 47.7978 677.469 48.5078 677.559 49.0058C677.639 49.5038 677.748 50.6388 677.668 51.5248C676.698 61.6448 672.528 86.2028 670.408 97.5378C669.518 102.334 667.749 103.942 666.039 104.099C662.319 104.441 659.498 101.643 655.898 99.2838C650.268 95.5908 647.089 93.2928 641.619 89.6898C635.299 85.5258 639.399 83.2368 642.999 79.4968C643.939 78.5178 660.318 63.6228 660.628 62.2718C660.668 62.1028 660.709 61.4728 660.339 61.1408C659.959 60.8078 659.409 60.9218 659.009 61.0118C658.449 61.1398 649.449 67.0878 632.009 78.8548C629.459 80.6088 627.149 81.4638 625.069 81.4188C622.789 81.3698 618.388 80.1268 615.128 79.0648C611.118 77.7618 607.929 77.0728 608.209 74.8598C608.349 73.7078 609.939 72.5288 612.969 71.3238Z" fill="white"/>
<path d="M504 8C487.03 8 470.74 14.747 458.75 26.745C446.75 38.743 440 55.033 440 72C440 88.967 446.75 105.257 458.75 117.255C470.74 129.253 487.03 136 504 136C520.97 136 537.26 129.253 549.25 117.255C561.25 105.257 568 88.967 568 72C568 55.033 561.25 38.743 549.25 26.745C537.26 14.747 520.97 8 504 8Z" fill="url(#paint20_linear_156_1433)"/>
<path d="M468.969 71.3238C487.629 63.1958 500.069 57.8368 506.289 55.2478C524.069 47.8548 527.758 46.5708 530.168 46.5278C530.698 46.5188 531.878 46.6498 532.648 47.2728C533.298 47.7978 533.469 48.5078 533.559 49.0058C533.639 49.5038 533.748 50.6388 533.668 51.5248C532.698 61.6448 528.528 86.2028 526.408 97.5378C525.518 102.334 523.749 103.942 522.039 104.099C518.319 104.441 515.498 101.643 511.898 99.2838C506.268 95.5908 503.089 93.2928 497.619 89.6898C491.299 85.5258 495.399 83.2368 498.999 79.4968C499.939 78.5178 516.318 63.6228 516.628 62.2718C516.668 62.1028 516.709 61.4728 516.339 61.1408C515.959 60.8078 515.408 60.9218 515.008 61.0118C514.448 61.1398 505.449 67.0878 488.009 78.8548C485.459 80.6088 483.149 81.4638 481.069 81.4188C478.789 81.3698 474.388 80.1268 471.128 79.0648C467.118 77.7618 463.929 77.0728 464.209 74.8598C464.349 73.7078 465.939 72.5288 468.969 71.3238Z" fill="white"/>
<path d="M360 8C343.03 8 326.74 14.747 314.75 26.745C302.75 38.743 296 55.033 296 72C296 88.967 302.75 105.257 314.75 117.255C326.74 129.253 343.03 136 360 136C376.97 136 393.26 129.253 405.25 117.255C417.25 105.257 424 88.967 424 72C424 55.033 417.25 38.743 405.25 26.745C393.26 14.747 376.97 8 360 8Z" fill="url(#paint21_linear_156_1433)"/>
<path d="M324.969 71.3238C343.629 63.1958 356.069 57.8368 362.289 55.2478C380.069 47.8548 383.758 46.5708 386.168 46.5278C386.698 46.5188 387.878 46.6498 388.648 47.2728C389.298 47.7978 389.469 48.5078 389.559 49.0058C389.639 49.5038 389.748 50.6388 389.668 51.5248C388.698 61.6448 384.529 86.2028 382.409 97.5378C381.519 102.334 379.749 103.942 378.039 104.099C374.319 104.441 371.498 101.643 367.898 99.2838C362.268 95.5908 359.089 93.2928 353.619 89.6898C347.299 85.5258 351.399 83.2368 354.999 79.4968C355.939 78.5178 372.318 63.6228 372.628 62.2718C372.668 62.1028 372.708 61.4728 372.338 61.1408C371.958 60.8078 371.408 60.9218 371.008 61.0118C370.448 61.1398 361.449 67.0878 344.009 78.8548C341.459 80.6088 339.149 81.4638 337.069 81.4188C334.789 81.3698 330.388 80.1268 327.128 79.0648C323.118 77.7618 319.929 77.0728 320.209 74.8598C320.349 73.7078 321.939 72.5288 324.969 71.3238Z" fill="white"/>
<path d="M216 8C199.03 8 182.74 14.747 170.75 26.745C158.75 38.743 152 55.033 152 72C152 88.967 158.75 105.257 170.75 117.255C182.74 129.253 199.03 136 216 136C232.97 136 249.26 129.253 261.25 117.255C273.25 105.257 280 88.967 280 72C280 55.033 273.25 38.743 261.25 26.745C249.26 14.747 232.97 8 216 8Z" fill="url(#paint22_linear_156_1433)"/>
<path d="M180.969 71.3238C199.629 63.1958 212.069 57.8368 218.289 55.2478C236.069 47.8548 239.758 46.5708 242.168 46.5278C242.698 46.5188 243.878 46.6498 244.648 47.2728C245.288 47.7978 245.469 48.5078 245.559 49.0058C245.639 49.5038 245.749 50.6388 245.659 51.5248C244.699 61.6448 240.529 86.2028 238.409 97.5378C237.519 102.334 235.749 103.942 234.039 104.099C230.319 104.441 227.498 101.643 223.898 99.2838C218.268 95.5908 215.089 93.2928 209.619 89.6898C203.299 85.5258 207.399 83.2368 210.999 79.4968C211.939 78.5178 228.318 63.6228 228.628 62.2718C228.668 62.1028 228.709 61.4728 228.329 61.1408C227.959 60.8078 227.408 60.9218 227.008 61.0118C226.438 61.1398 217.448 67.0878 200.008 78.8548C197.458 80.6088 195.148 81.4638 193.068 81.4188C190.788 81.3698 186.389 80.1268 183.119 79.0648C179.119 77.7618 175.929 77.0728 176.209 74.8598C176.349 73.7078 177.939 72.5288 180.969 71.3238Z" fill="white"/>
<path d="M72 8C55.03 8 38.74 14.747 26.75 26.745C14.75 38.743 8 55.033 8 72C8 88.967 14.75 105.257 26.75 117.255C38.74 129.253 55.03 136 72 136C88.97 136 105.26 129.253 117.25 117.255C129.25 105.257 136 88.967 136 72C136 55.033 129.25 38.743 117.25 26.745C105.26 14.747 88.97 8 72 8Z" fill="url(#paint23_linear_156_1433)"/>
<path d="M36.9688 71.3238C55.6288 63.1958 68.0686 57.8368 74.2886 55.2478C92.0686 47.8548 95.7585 46.5708 98.1685 46.5278C98.6985 46.5188 99.8785 46.6498 100.648 47.2728C101.288 47.7978 101.469 48.5078 101.559 49.0058C101.639 49.5038 101.749 50.6388 101.659 51.5248C100.699 61.6448 96.5287 86.2028 94.4087 97.5378C93.5187 102.334 91.7486 103.942 90.0386 104.099C86.3186 104.441 83.4985 101.643 79.8985 99.2838C74.2685 95.5908 71.0887 93.2928 65.6187 89.6898C59.2987 85.5258 63.3986 83.2368 66.9986 79.4968C67.9386 78.5178 84.3185 63.6228 84.6285 62.2718C84.6685 62.1028 84.7087 61.4728 84.3287 61.1408C83.9587 60.8078 83.4083 60.9218 83.0083 61.0118C82.4383 61.1398 73.4483 67.0878 56.0083 78.8548C53.4583 80.6088 51.1484 81.4638 49.0684 81.4188C46.7884 81.3698 42.3887 80.1268 39.1187 79.0648C35.1187 77.7618 31.9285 77.0728 32.2085 74.8598C32.3485 73.7078 33.9388 72.5288 36.9688 71.3238Z" fill="white"/>
<path d="M4248 8C4231.03 8 4214.74 14.747 4202.75 26.745C4190.75 38.743 4184 55.033 4184 72C4184 88.967 4190.75 105.257 4202.75 117.255C4214.74 129.253 4231.03 136 4248 136C4264.97 136 4281.26 129.253 4293.25 117.255C4305.25 105.257 4312 88.967 4312 72C4312 55.033 4305.25 38.743 4293.25 26.745C4281.26 14.747 4264.97 8 4248 8Z" fill="url(#paint24_linear_156_1433)"/>
<path d="M4392 8C4375.03 8 4358.74 14.747 4346.75 26.745C4334.75 38.743 4328 55.033 4328 72C4328 88.967 4334.75 105.257 4346.75 117.255C4358.74 129.253 4375.03 136 4392 136C4408.97 136 4425.26 129.253 4437.25 117.255C4449.25 105.257 4456 88.967 4456 72C4456 55.033 4449.25 38.743 4437.25 26.745C4425.26 14.747 4408.97 8 4392 8Z" fill="url(#paint25_linear_156_1433)"/>
<path d="M4104 10.7812C4087.77 10.7812 4072.19 17.235 4060.72 28.7116C4049.24 40.1883 4042.78 55.7703 4042.78 72C4042.78 88.2297 4049.24 103.812 4060.72 115.288C4072.19 126.765 4087.77 133.219 4104 133.219C4120.23 133.219 4135.81 126.765 4147.28 115.288C4158.76 103.812 4165.22 88.2297 4165.22 72C4165.22 55.7703 4158.76 40.1883 4147.28 28.7116C4135.81 17.235 4120.23 10.7812 4104 10.7812Z" fill="url(#paint26_linear_156_1433)"/>
<path d="M3960 14.4531C3944.74 14.4531 3930.09 20.5198 3919.31 31.3081C3908.52 42.0963 3902.45 56.7438 3902.45 72C3902.45 87.2562 3908.52 101.904 3919.31 112.692C3930.09 123.48 3944.74 129.547 3960 129.547C3975.26 129.547 3989.91 123.48 4000.69 112.692C4011.48 101.904 4017.55 87.2562 4017.55 72C4017.55 56.7438 4011.48 42.0963 4000.69 31.3081C3989.91 20.5198 3975.26 14.4531 3960 14.4531Z" fill="url(#paint27_linear_156_1433)"/>
<path d="M3816 24.8555C3803.5 24.8555 3791.5 29.8255 3782.67 38.6637C3773.83 47.5018 3768.86 59.5015 3768.86 72C3768.86 84.4985 3773.83 96.4982 3782.67 105.336C3791.5 114.174 3803.5 119.145 3816 119.145C3828.5 119.145 3840.5 114.174 3849.33 105.336C3858.17 96.4982 3863.14 84.4985 3863.14 72C3863.14 59.5015 3858.17 47.5018 3849.33 38.6637C3840.5 29.8255 3828.5 24.8555 3816 24.8555Z" fill="url(#paint28_linear_156_1433)"/>
<path d="M3672 31.7852C3661.34 31.7852 3651.1 36.0247 3643.57 43.5637C3636.03 51.1027 3631.79 61.3387 3631.79 72C3631.79 82.6613 3636.03 92.8973 3643.57 100.436C3651.1 107.975 3661.34 112.215 3672 112.215C3682.66 112.215 3692.9 107.975 3700.43 100.436C3707.97 92.8973 3712.21 82.6613 3712.21 72C3712.21 61.3387 3707.97 51.1027 3700.43 43.5637C3692.9 36.0247 3682.66 31.7852 3672 31.7852Z" fill="url(#paint29_linear_156_1433)"/>
<path d="M4065.45 73.043L4088.05 96.0775" stroke="white" stroke-width="14" stroke-linecap="round" stroke-linejoin="round"/>
<path d="M3921.45 73.043L3932.75 84.5602" stroke="white" stroke-width="14" stroke-linecap="round" stroke-linejoin="round"/>
<path d="M4209.45 73.0432L4232.05 96.0777L4259.29 72" stroke="white" stroke-width="14" stroke-linecap="round" stroke-linejoin="round"/>
<path d="M4353.45 73.0428L4376.05 96.0773L4430.54 47.9219" stroke="white" stroke-width="14" stroke-linecap="round" stroke-linejoin="round"/>
<defs>
<linearGradient id="paint0_linear_156_1433" x1="3384" y1="31.7852" x2="3384" y2="112.213" gradientUnits="userSpaceOnUse">
<stop stop-color="#2AABEE"/>
<stop offset="1" stop-color="#229ED9"/>
</linearGradient>
<linearGradient id="paint1_linear_156_1433" x1="3240" y1="24.8555" x2="3240" y2="119.143" gradientUnits="userSpaceOnUse">
<stop stop-color="#2AABEE"/>
<stop offset="1" stop-color="#229ED9"/>
</linearGradient>
<linearGradient id="paint2_linear_156_1433" x1="3096" y1="19.1133" x2="3096" y2="124.891" gradientUnits="userSpaceOnUse">
<stop stop-color="#2AABEE"/>
<stop offset="1" stop-color="#229ED9"/>
</linearGradient>
<linearGradient id="paint3_linear_156_1433" x1="2952" y1="14.4531" x2="2952" y2="129.548" gradientUnits="userSpaceOnUse">
<stop stop-color="#2AABEE"/>
<stop offset="1" stop-color="#229ED9"/>
</linearGradient>
<linearGradient id="paint4_linear_156_1433" x1="2808" y1="10.7813" x2="2808" y2="133.218" gradientUnits="userSpaceOnUse">
<stop stop-color="#2AABEE"/>
<stop offset="1" stop-color="#229ED9"/>
</linearGradient>
<linearGradient id="paint5_linear_156_1433" x1="2664" y1="8" x2="2664" y2="136" gradientUnits="userSpaceOnUse">
<stop stop-color="#2AABEE"/>
<stop offset="1" stop-color="#229ED9"/>
</linearGradient>
<linearGradient id="paint6_linear_156_1433" x1="2520" y1="6.00781" x2="2520" y2="137.992" gradientUnits="userSpaceOnUse">
<stop stop-color="#2AABEE"/>
<stop offset="1" stop-color="#229ED9"/>
</linearGradient>
<linearGradient id="paint7_linear_156_1433" x1="2376" y1="4.70703" x2="2376" y2="139.291" gradientUnits="userSpaceOnUse">
<stop stop-color="#2AABEE"/>
<stop offset="1" stop-color="#229ED9"/>
</linearGradient>
<linearGradient id="paint8_linear_156_1433" x1="2232" y1="4" x2="2232" y2="140" gradientUnits="userSpaceOnUse">
<stop stop-color="#2AABEE"/>
<stop offset="1" stop-color="#229ED9"/>
</linearGradient>
<linearGradient id="paint9_linear_156_1433" x1="2088" y1="3.78516" x2="2088" y2="140.213" gradientUnits="userSpaceOnUse">
<stop stop-color="#2AABEE"/>
<stop offset="1" stop-color="#229ED9"/>
</linearGradient>
<linearGradient id="paint10_linear_156_1433" x1="1944" y1="3.96484" x2="1944" y2="140.031" gradientUnits="userSpaceOnUse">
<stop stop-color="#2AABEE"/>
<stop offset="1" stop-color="#229ED9"/>
</linearGradient>
<linearGradient id="paint11_linear_156_1433" x1="1800" y1="4.44531" x2="1800" y2="139.556" gradientUnits="userSpaceOnUse">
<stop stop-color="#2AABEE"/>
<stop offset="1" stop-color="#229ED9"/>
</linearGradient>
<linearGradient id="paint12_linear_156_1433" x1="1656" y1="5.12109" x2="1656" y2="138.882" gradientUnits="userSpaceOnUse">
<stop stop-color="#2AABEE"/>
<stop offset="1" stop-color="#229ED9"/>
</linearGradient>
<linearGradient id="paint13_linear_156_1433" x1="1512" y1="5.89062" x2="1512" y2="138.105" gradientUnits="userSpaceOnUse">
<stop stop-color="#2AABEE"/>
<stop offset="1" stop-color="#229ED9"/>
</linearGradient>
<linearGradient id="paint14_linear_156_1433" x1="1368" y1="6.66406" x2="1368" y2="137.331" gradientUnits="userSpaceOnUse">
<stop stop-color="#2AABEE"/>
<stop offset="1" stop-color="#229ED9"/>
</linearGradient>
<linearGradient id="paint15_linear_156_1433" x1="1224" y1="7.34375" x2="1224" y2="136.661" gradientUnits="userSpaceOnUse">
<stop stop-color="#2AABEE"/>
<stop offset="1" stop-color="#229ED9"/>
</linearGradient>
<linearGradient id="paint16_linear_156_1433" x1="1080" y1="7.82031" x2="1080" y2="136.182" gradientUnits="userSpaceOnUse">
<stop stop-color="#2AABEE"/>
<stop offset="1" stop-color="#229ED9"/>
</linearGradient>
<linearGradient id="paint17_linear_156_1433" x1="936" y1="8" x2="936" y2="136" gradientUnits="userSpaceOnUse">
<stop stop-color="#2AABEE"/>
<stop offset="1" stop-color="#229ED9"/>
</linearGradient>
<linearGradient id="paint18_linear_156_1433" x1="792" y1="8" x2="792" y2="136" gradientUnits="userSpaceOnUse">
<stop stop-color="#2AABEE"/>
<stop offset="1" stop-color="#229ED9"/>
</linearGradient>
<linearGradient id="paint19_linear_156_1433" x1="648" y1="8" x2="648" y2="136" gradientUnits="userSpaceOnUse">
<stop stop-color="#2AABEE"/>
<stop offset="1" stop-color="#229ED9"/>
</linearGradient>
<linearGradient id="paint20_linear_156_1433" x1="504" y1="8" x2="504" y2="136" gradientUnits="userSpaceOnUse">
<stop stop-color="#2AABEE"/>
<stop offset="1" stop-color="#229ED9"/>
</linearGradient>
<linearGradient id="paint21_linear_156_1433" x1="360" y1="8" x2="360" y2="136" gradientUnits="userSpaceOnUse">
<stop stop-color="#2AABEE"/>
<stop offset="1" stop-color="#229ED9"/>
</linearGradient>
<linearGradient id="paint22_linear_156_1433" x1="216" y1="8" x2="216" y2="136" gradientUnits="userSpaceOnUse">
<stop stop-color="#2AABEE"/>
<stop offset="1" stop-color="#229ED9"/>
</linearGradient>
<linearGradient id="paint23_linear_156_1433" x1="72" y1="8" x2="72" y2="136" gradientUnits="userSpaceOnUse">
<stop stop-color="#2AABEE"/>
<stop offset="1" stop-color="#229ED9"/>
</linearGradient>
<linearGradient id="paint24_linear_156_1433" x1="4248" y1="8" x2="4248" y2="136" gradientUnits="userSpaceOnUse">
<stop stop-color="#2AEECB"/>
<stop offset="1" stop-color="#229ED9"/>
</linearGradient>
<linearGradient id="paint25_linear_156_1433" x1="4392" y1="8" x2="4392" y2="136" gradientUnits="userSpaceOnUse">
<stop stop-color="#2AEECB"/>
<stop offset="1" stop-color="#229ED9"/>
</linearGradient>
<linearGradient id="paint26_linear_156_1433" x1="4104" y1="10.7812" x2="4104" y2="133.219" gradientUnits="userSpaceOnUse">
<stop stop-color="#2AEECB"/>
<stop offset="1" stop-color="#229ED9"/>
</linearGradient>
<linearGradient id="paint27_linear_156_1433" x1="3960" y1="14.4531" x2="3960" y2="129.547" gradientUnits="userSpaceOnUse">
<stop stop-color="#2AEECB"/>
<stop offset="1" stop-color="#229ED9"/>
</linearGradient>
<linearGradient id="paint28_linear_156_1433" x1="3816" y1="24.8555" x2="3816" y2="119.145" gradientUnits="userSpaceOnUse">
<stop stop-color="#2AEECB"/>
<stop offset="1" stop-color="#229ED9"/>
</linearGradient>
<linearGradient id="paint29_linear_156_1433" x1="3672" y1="31.7852" x2="3672" y2="112.215" gradientUnits="userSpaceOnUse">
<stop stop-color="#2AEECB"/>
<stop offset="1" stop-color="#229ED9"/>
</linearGradient>
</defs>
</svg>
