<?xml version="1.0" encoding="utf-8"?>
<!-- Generator: Adobe Illustrator 27.0.0, SVG Export Plug-In . SVG Version: 6.00 Build 0)  -->
<svg version="1.1" id="Layer_1" xmlns="http://www.w3.org/2000/svg" xmlns:xlink="http://www.w3.org/1999/xlink" x="0px" y="0px"
	 viewBox="0 0 32 32" style="enable-background:new 0 0 32 32;" xml:space="preserve">
<style type="text/css">
	.st0{opacity:0.15;fill:#EA85FF;enable-background:new    ;}
	.st1{fill-rule:evenodd;clip-rule:evenodd;fill:#EA85FF;}
</style>
<g>
	<path d="M32,9.7v12.6c0,5.3-4.4,9.7-9.7,9.7H9.7C4.4,32,0,27.6,0,22.3V9.7C0,4.4,4.4,0,9.7,0h12.6C27.6,0,32,4.4,32,9.7z"/>
	<path class="st0" d="M32,9.7v12.6c0,5.3-4.4,9.7-9.7,9.7H9.7C4.4,32,0,27.6,0,22.3V9.7C0,4.4,4.4,0,9.7,0h12.6
		C27.6,0,32,4.4,32,9.7z"/>
</g>
<path class="st1" d="M11.4,19.5c0.6,0.5,0.6,1.3,0.1,1.9c-0.5,0.6-1.3,0.6-1.9,0.1L4.5,17c-0.6-0.5-0.6-1.3-0.1-1.9
	c0,0,0.1-0.1,0.1-0.1l5.1-4.5c0.6-0.5,1.4-0.4,1.9,0.1c0.5,0.6,0.4,1.4-0.1,1.9l-4,3.5L11.4,19.5L11.4,19.5z M22.4,21.5
	c-0.6,0.5-1.4,0.4-1.9-0.1C20,20.8,20,20,20.6,19.5l4-3.5l-4-3.5C20,12,20,11.2,20.5,10.6c0.5-0.6,1.3-0.6,1.9-0.1l5.1,4.5
	c0,0,0.1,0.1,0.1,0.1c0.5,0.6,0.4,1.4-0.1,1.9L22.4,21.5z M16,9.4c0.2-0.7,0.9-1.2,1.6-1c0.7,0.2,1.2,0.9,1,1.6l-2.9,12.5
	c-0.2,0.7-0.9,1.2-1.6,1s-1.2-0.9-1-1.6L16,9.4L16,9.4z"/>
</svg>
