<svg width="854px" height="596px" viewBox="0 0 854 596" xmlns="http://www.w3.org/2000/svg" xmlns:xlink="http://www.w3.org/1999/xlink">
    <path d="M16.6652538,596 C10.870382,596 8.76902145,595.396634 6.65050293,594.263637 C4.53198441,593.130641 2.86935868,591.468016 1.73636257,589.349497 L1.5703946,589.031384 C0.544538241,587.011609 0,584.839874 0,579.334746 L0,16.6652538 C0,10.870382 0.603366472,8.76902145 1.73636257,6.65050293 C2.86935868,4.53198441 4.53198441,2.86935868 6.65050293,1.73636257 L6.96861585,1.5703946 C8.98839128,0.544538241 11.1601256,0 16.6652538,0 L837.334746,0 L838.176739,0 C843.339797,0.0616607213 845.336904,0.660016278 847.349497,1.73636257 C849.468016,2.86935868 851.130641,4.53198441 852.263637,6.65050293 L852.429605,6.96861585 C853.455462,8.98839128 854,11.1601256 854,16.6652538 L854,579.334746 L854,580.176739 C853.938339,585.339797 853.339984,587.336904 852.263637,589.349497 C851.130641,591.468016 849.468016,593.130641 847.349497,594.263637 L847.031384,594.429605 C845.064761,595.428466 842.954071,595.971007 837.762494,596 L16.6652538,596 Z"  fill="#000000"></path>
</svg>