<?xml version="1.0" encoding="utf-8"?>
<!-- Generator: Adobe Illustrator 27.0.0, SVG Export Plug-In . SVG Version: 6.00 Build 0)  -->
<svg version="1.1" id="Layer_1" xmlns="http://www.w3.org/2000/svg" xmlns:xlink="http://www.w3.org/1999/xlink" x="0px" y="0px"
	 viewBox="0 0 392 844" style="enable-background:new 0 0 392 844;" xml:space="preserve">
<g transform="translate(-23.000000, -20.000000)">
	<path d="M383.8,25.2l0.5,0.2c1,0.5,2.1,1,3.1,1.5c8.5,4.5,15.1,11.2,19.7,19.7c0.5,1,1.1,2,1.5,3.1l0.2,0.5
		c3.4,7.5,5.2,16.5,5.2,36.5v710.7c0,19.9-1.8,28.9-5.2,36.5l-0.2,0.5c-0.5,1-1,2.1-1.5,3.1c-4.5,8.5-11.2,15.1-19.7,19.7
		c-1,0.5-2,1.1-3.1,1.5l-0.5,0.2c-7.5,3.4-16.5,5.2-36.5,5.2H89.7c-19.9,0-28.9-1.8-36.5-5.2l-0.5-0.2c-1-0.5-2.1-1-3.1-1.5
		c-8.5-4.5-15.1-11.2-19.7-19.7c-0.5-1-1.1-2-1.5-3.1l-0.2-0.5c-3.3-7.4-5.1-16.3-5.2-35.8l0-711.4c0-19.9,1.8-28.9,5.2-36.5
		l0.2-0.5c0.5-1,1-2.1,1.5-3.1c4.5-8.5,11.2-15.1,19.7-19.7c1-0.5,2-1.1,3.1-1.5l0.5-0.2C60.6,21.8,69.5,20,89,20l258.4,0
		C367.3,20,376.3,21.8,383.8,25.2z"/>
</g>
</svg>
