<svg width="392px" height="844px" viewBox="0 0 392 844" xmlns="http://www.w3.org/2000/svg" xmlns:xlink="http://www.w3.org/1999/xlink">
    <g transform="translate(-23.000000, -20.000000)" fill="#000000">
        <path d="M383.802184,25.1673951 L384.324638,25.4059656 C385.365199,25.8882807 386.381099,26.4016122 387.397988,26.9454503 C395.872062,31.4774347 402.522565,38.1279376 407.05455,46.6020117 C407.598388,47.6189006 408.111719,48.6348012 408.594034,49.6753616 L408.832605,50.1978156 C412.215001,57.7191809 414,66.7266562 414,86.6610152 L414,797.338985 C414,817.273344 412.215001,826.280819 408.832605,833.802184 L408.594034,834.324638 C408.111719,835.365199 407.598388,836.381099 407.05455,837.397988 C402.522565,845.872062 395.872062,852.522565 387.397988,857.05455 C386.381099,857.598388 385.365199,858.111719 384.324638,858.594034 L383.802184,858.832605 C376.280819,862.215001 367.273344,864 347.338985,864 L89.6610152,864 C69.7266562,864 60.7191809,862.215001 53.1978156,858.832605 L52.6753616,858.594034 C51.6348012,858.111719 50.6189006,857.598388 49.6020117,857.05455 C41.1279376,852.522565 34.4774347,845.872062 29.9454503,837.397988 C29.4016122,836.381099 28.8882807,835.365199 28.4059656,834.324638 L28.1673951,833.802184 C24.8243296,826.368277 23.0417276,817.482619 23.0007237,798.029952 L23,86.6610152 C23,66.7266562 24.7849994,57.7191809 28.1673951,50.1978156 L28.4059656,49.6753616 C28.8882807,48.6348012 29.4016122,47.6189006 29.9454503,46.6020117 C34.4774347,38.1279376 41.1279376,31.4774347 49.6020117,26.9454503 C50.6189006,26.4016122 51.6348012,25.8882807 52.6753616,25.4059656 L53.1978156,25.1673951 C60.6317231,21.8243296 69.5173809,20.0417276 88.970048,20.0007237 L347.338985,20 C367.273344,20 376.280819,21.7849994 383.802184,25.1673951 Z M262,30 L174,30 C164.058875,30 156,38.0588745 156,48 C156,57.9411255 164.058875,66 174,66 L262,66 C271.941125,66 280,57.9411255 280,48 C280,38.0588745 271.941125,30 262,30 Z"></path>
    </g>
</svg>