<svg width="948px" height="616px" viewBox="0 0 948 616" xmlns="http://www.w3.org/2000/svg" xmlns:xlink="http://www.w3.org/1999/xlink">
    <path d="M531.741041,1.95457779 C532.074427,1.3319468 532.563658,0.843302349 533.187035,0.51031565 L533.422698,0.392784421 C533.942028,0.154125831 534.548126,0.0200139737 535.826646,0 L931.654072,0 C937.337907,0 939.399003,0.591096503 941.476928,1.70105217 C943.554854,2.81100783 945.185622,4.43982266 946.296908,6.5152593 L946.49322,6.89323544 C947.445996,8.79028239 947.965826,10.8555167 948,15.8201251 L948,616 L0,616 L0,16.3263517 C0,10.6493235 0.591805278,8.59069595 1.70309187,6.5152593 C2.81437847,4.43982266 4.44514638,2.81100783 6.52307165,1.70105217 L6.90150101,1.50497558 C8.80082269,0.553340756 10.8685334,0.034133352 15.8390948,0 L411.86049,0 C413.56564,0 414.183969,0.177328951 414.807347,0.51031565 C415.430724,0.843302349 415.919955,1.3319468 416.253341,1.95457779 L416.371013,2.18995804 C416.628338,2.74856711 416.764268,3.40768562 416.764268,4.89790551 L416.764268,0 L416.769886,10.3788615 C416.769886,13.7850784 417.12497,15.0202549 417.791741,16.2655169 C418.458513,17.5107789 419.436974,18.4880678 420.683729,19.1540412 L420.983875,19.3078754 C422.091896,19.8498546 423.327386,20.148066 426.178501,20.1729729 L521.422557,20.1746725 C524.832858,20.1746725 526.069515,19.8200146 527.316271,19.1540412 C528.563026,18.4880678 529.541487,17.5107789 530.208259,16.2655169 L530.362277,15.9657309 C530.904906,14.8590363 531.203475,13.6250267 531.228412,10.7773261 L531.230114,4.89790551 C531.230114,3.19479706 531.407655,2.57720878 531.741041,1.95457779 Z" fill="#000000"></path>
</svg>