<svg width="240" height="240" viewBox="0 0 240 240" fill="none" xmlns="http://www.w3.org/2000/svg">
<defs>
<clipPath id="clip-path-dot-color">
<path d="M 4 68v 8h 4a 4 4, 0, 0, 0, 0 -8" transform="rotate(180,8,72)"></path><circle cx="8" cy="96" r="4" transform="rotate(0,8,96)"></circle><path d="M 4 108v 8h 4a 4 4, 0, 0, 0, 0 -8" transform="rotate(-90,8,112)"></path><path d="M 4 116v 8h 4a 4 4, 0, 0, 0, 0 -8" transform="rotate(90,8,120)"></path><path d="M 4 132v 8h 4a 4 4, 0, 0, 0, 0 -8" transform="rotate(180,8,136)"></path><path d="M 4 156v 8h 4a 4 4, 0, 0, 0, 0 -8" transform="rotate(-90,8,160)"></path><path d="M 4 164v 8h 8v -4a 4 4, 0, 0, 0, -4 -4" transform="rotate(180,8,168)"></path><path d="M 12 68v 8h 8v -4a 4 4, 0, 0, 0, -4 -4" transform="rotate(0,16,72)"></path><rect x="12" y="76" width="8" height="8" transform="rotate(0,16,80)"></rect><path d="M 12 84v 8h 4a 4 4, 0, 0, 0, 0 -8" transform="rotate(90,16,88)"></path><path d="M 12 124v 8h 8v -4a 4 4, 0, 0, 0, -4 -4" transform="rotate(-90,16,128)"></path><rect x="12" y="132" width="8" height="8" transform="rotate(0,16,136)"></rect><path d="M 12 164v 8h 4a 4 4, 0, 0, 0, 0 -8" transform="rotate(0,16,168)"></path><rect x="20" y="76" width="8" height="8" transform="rotate(0,24,80)"></rect><path d="M 20 100v 8h 4a 4 4, 0, 0, 0, 0 -8" transform="rotate(180,24,104)"></path><path d="M 20 124v 8h 8v -4a 4 4, 0, 0, 0, -4 -4" transform="rotate(0,24,128)"></path><path d="M 20 132v 8h 8v -4a 4 4, 0, 0, 0, -4 -4" transform="rotate(90,24,136)"></path><rect x="28" y="76" width="8" height="8" transform="rotate(0,32,80)"></rect><rect x="28" y="84" width="8" height="8" transform="rotate(0,32,88)"></rect><rect x="28" y="92" width="8" height="8" transform="rotate(0,32,96)"></rect><path d="M 28 100v 8h 8v -4a 4 4, 0, 0, 0, -4 -4" transform="rotate(90,32,104)"></path><path d="M 28 116v 8h 4a 4 4, 0, 0, 0, 0 -8" transform="rotate(180,32,120)"></path><path d="M 28 140v 8h 4a 4 4, 0, 0, 0, 0 -8" transform="rotate(180,32,144)"></path><path d="M 28 164v 8h 4a 4 4, 0, 0, 0, 0 -8" transform="rotate(180,32,168)"></path><path d="M 36 76v 8h 4a 4 4, 0, 0, 0, 0 -8" transform="rotate(0,40,80)"></path><rect x="36" y="92" width="8" height="8" transform="rotate(0,40,96)"></rect><path d="M 36 116v 8h 4a 4 4, 0, 0, 0, 0 -8" transform="rotate(0,40,120)"></path><rect x="36" y="140" width="8" height="8" transform="rotate(0,40,144)"></rect><rect x="36" y="148" width="8" height="8" transform="rotate(0,40,152)"></rect><rect x="36" y="156" width="8" height="8" transform="rotate(0,40,160)"></rect><path d="M 36 164v 8h 8v -4a 4 4, 0, 0, 0, -4 -4" transform="rotate(90,40,168)"></path><path d="M 44 84v 8h 8v -4a 4 4, 0, 0, 0, -4 -4" transform="rotate(-90,48,88)"></path><path d="M 44 92v 8h 8v -4a 4 4, 0, 0, 0, -4 -4" transform="rotate(90,48,96)"></path><circle cx="48" cy="112" r="4" transform="rotate(0,48,112)"></circle><circle cx="48" cy="128" r="4" transform="rotate(0,48,128)"></circle><path d="M 44 140v 8h 4a 4 4, 0, 0, 0, 0 -8" transform="rotate(0,48,144)"></path><circle cx="56" cy="72" r="4" transform="rotate(0,56,72)"></circle><rect x="52" y="84" width="8" height="8" transform="rotate(0,56,88)"></rect><circle cx="56" cy="104" r="4" transform="rotate(0,56,104)"></circle><circle cx="56" cy="120" r="4" transform="rotate(0,56,120)"></circle><circle cx="56" cy="136" r="4" transform="rotate(0,56,136)"></circle><path d="M 52 148v 8h 4a 4 4, 0, 0, 0, 0 -8" transform="rotate(180,56,152)"></path><path d="M 52 164v 8h 4a 4 4, 0, 0, 0, 0 -8" transform="rotate(180,56,168)"></path><path d="M 60 76v 8h 4a 4 4, 0, 0, 0, 0 -8" transform="rotate(-90,64,80)"></path><path d="M 60 84v 8h 8v -4a 4 4, 0, 0, 0, -4 -4" transform="rotate(90,64,88)"></path><path d="M 60 140v 8h 4a 4 4, 0, 0, 0, 0 -8" transform="rotate(-90,64,144)"></path><rect x="60" y="148" width="8" height="8" transform="rotate(0,64,152)"></rect><rect x="60" y="156" width="8" height="8" transform="rotate(0,64,160)"></rect><path d="M 60 164v 8h 8v -4a 4 4, 0, 0, 0, -4 -4" transform="rotate(90,64,168)"></path><circle cx="72" cy="16" r="4" transform="rotate(0,72,16)"></circle><path d="M 68 52v 8h 4a 4 4, 0, 0, 0, 0 -8" transform="rotate(-90,72,56)"></path><rect x="68" y="60" width="8" height="8" transform="rotate(0,72,64)"></rect><path d="M 68 68v 8h 4a 4 4, 0, 0, 0, 0 -8" transform="rotate(90,72,72)"></path><path d="M 68 92v 8h 4a 4 4, 0, 0, 0, 0 -8" transform="rotate(180,72,96)"></path><path d="M 68 116v 8h 4a 4 4, 0, 0, 0, 0 -8" transform="rotate(180,72,120)"></path><circle cx="72" cy="136" r="4" transform="rotate(0,72,136)"></circle><path d="M 68 156v 8h 4a 4 4, 0, 0, 0, 0 -8" transform="rotate(0,72,160)"></path><circle cx="72" cy="176" r="4" transform="rotate(0,72,176)"></circle><path d="M 68 220v 8h 8v -4a 4 4, 0, 0, 0, -4 -4" transform="rotate(-90,72,224)"></path><path d="M 68 228v 8h 4a 4 4, 0, 0, 0, 0 -8" transform="rotate(90,72,232)"></path><circle cx="80" cy="8" r="4" transform="rotate(0,80,8)"></circle><circle cx="80" cy="24" r="4" transform="rotate(0,80,24)"></circle><circle cx="80" cy="40" r="4" transform="rotate(0,80,40)"></circle><path d="M 76 76v 8h 4a 4 4, 0, 0, 0, 0 -8" transform="rotate(180,80,80)"></path><path d="M 76 92v 8h 8v -4a 4 4, 0, 0, 0, -4 -4" transform="rotate(0,80,96)"></path><rect x="76" y="100" width="8" height="8" transform="rotate(0,80,104)"></rect><rect x="76" y="108" width="8" height="8" transform="rotate(0,80,112)"></rect><path d="M 76 116v 8h 8v -4a 4 4, 0, 0, 0, -4 -4" transform="rotate(90,80,120)"></path><circle cx="80" cy="152" r="4" transform="rotate(0,80,152)"></circle><path d="M 76 180v 8h 8v -4a 4 4, 0, 0, 0, -4 -4" transform="rotate(-90,80,184)"></path><path d="M 76 188v 8h 4a 4 4, 0, 0, 0, 0 -8" transform="rotate(90,80,192)"></path><path d="M 76 212v 8h 8v -4a 4 4, 0, 0, 0, -4 -4" transform="rotate(-90,80,216)"></path><path d="M 76 220v 8h 8v -4a 4 4, 0, 0, 0, -4 -4" transform="rotate(90,80,224)"></path><path d="M 84 28v 8h 4a 4 4, 0, 0, 0, 0 -8" transform="rotate(180,88,32)"></path><path d="M 84 52v 8h 4a 4 4, 0, 0, 0, 0 -8" transform="rotate(-90,88,56)"></path><path d="M 84 60v 8h 4a 4 4, 0, 0, 0, 0 -8" transform="rotate(90,88,64)"></path><rect x="84" y="76" width="8" height="8" transform="rotate(0,88,80)"></rect><path d="M 84 156v 8h 4a 4 4, 0, 0, 0, 0 -8" transform="rotate(180,88,160)"></path><path d="M 84 172v 8h 4a 4 4, 0, 0, 0, 0 -8" transform="rotate(-90,88,176)"></path><rect x="84" y="180" width="8" height="8" transform="rotate(0,88,184)"></rect><path d="M 84 212v 8h 4a 4 4, 0, 0, 0, 0 -8" transform="rotate(0,88,216)"></path><path d="M 92 20v 8h 4a 4 4, 0, 0, 0, 0 -8" transform="rotate(-90,96,24)"></path><rect x="92" y="28" width="8" height="8" transform="rotate(0,96,32)"></rect><path d="M 92 36v 8h 4a 4 4, 0, 0, 0, 0 -8" transform="rotate(90,96,40)"></path><path d="M 92 68v 8h 8v -4a 4 4, 0, 0, 0, -4 -4" transform="rotate(-90,96,72)"></path><path d="M 92 76v 8h 8v -4a 4 4, 0, 0, 0, -4 -4" transform="rotate(90,96,80)"></path>
<path d="M 92 156v 8h 8v -4a 4 4, 0, 0, 0, -4 -4" transform="rotate(0,96,160)"></path><path d="M 92 164v 8h 8v -4a 4 4, 0, 0, 0, -4 -4" transform="rotate(180,96,168)"></path><rect x="92" y="180" width="8" height="8" transform="rotate(0,96,184)"></rect>
<path d="M 92 188v 8h 4a 4 4, 0, 0, 0, 0 -8" transform="rotate(90,96,192)"></path><path d="M 92 204v 8h 4a 4 4, 0, 0, 0, 0 -8" transform="rotate(180,96,208)"></path><circle cx="104" cy="16" r="4" transform="rotate(0,104,16)"></circle><path d="M 100 28v 8h 4a 4 4, 0, 0, 0, 0 -8" transform="rotate(0,104,32)"></path><path d="M 100 44v 8h 4a 4 4, 0, 0, 0, 0 -8" transform="rotate(-90,104,48)"></path><rect x="100" y="52" width="8" height="8" transform="rotate(0,104,56)"></rect><rect x="100" y="60" width="8" height="8" transform="rotate(0,104,64)"></rect><rect x="100" y="68" width="8" height="8" transform="rotate(0,104,72)"></rect><path d="M 100 164v 8h 8v -4a 4 4, 0, 0, 0, -4 -4" transform="rotate(0,104,168)"></path><rect x="100" y="172" width="8" height="8" transform="rotate(0,104,176)"></rect><rect x="100" y="180" width="8" height="8" transform="rotate(0,104,184)"></rect><rect x="100" y="204" width="8" height="8" transform="rotate(0,104,208)"></rect><path d="M 100 220v 8h 4a 4 4, 0, 0, 0, 0 -8" transform="rotate(180,104,224)"></path><circle cx="112" cy="8" r="4" transform="rotate(0,112,8)"></circle><path d="M 108 36v 8h 4a 4 4, 0, 0, 0, 0 -8" transform="rotate(180,112,40)"></path><path d="M 108 60v 8h 8v -4a 4 4, 0, 0, 0, -4 -4" transform="rotate(0,112,64)"></path><rect x="108" y="68" width="8" height="8" transform="rotate(0,112,72)"></rect><path d="M 108 76v 8h 4a 4 4, 0, 0, 0, 0 -8" transform="rotate(90,112,80)"></path><circle cx="112" cy="160" r="4" transform="rotate(0,112,160)"></circle><path d="M 108 180v 8h 4a 4 4, 0, 0, 0, 0 -8" transform="rotate(0,112,184)"></path><path d="M 108 196v 8h 4a 4 4, 0, 0, 0, 0 -8" transform="rotate(-90,112,200)"></path><path d="M 108 204v 8h 8v -4a 4 4, 0, 0, 0, -4 -4" transform="rotate(90,112,208)"></path><path d="M 108 220v 8h 8v -4a 4 4, 0, 0, 0, -4 -4" transform="rotate(0,112,224)"></path><path d="M 108 228v 8h 4a 4 4, 0, 0, 0, 0 -8" transform="rotate(90,112,232)"></path><path d="M 116 20v 8h 4a 4 4, 0, 0, 0, 0 -8" transform="rotate(180,120,24)"></path><path d="M 116 36v 8h 8v -4a 4 4, 0, 0, 0, -4 -4" transform="rotate(0,120,40)"></path><rect x="116" y="44" width="8" height="8" transform="rotate(0,120,48)"></rect><path d="M 116 52v 8h 4a 4 4, 0, 0, 0, 0 -8" transform="rotate(90,120,56)"></path><path d="M 116 172v 8h 4a 4 4, 0, 0, 0, 0 -8" transform="rotate(180,120,176)"></path><circle cx="120" cy="192" r="4" transform="rotate(0,120,192)"></circle><rect x="124" y="20" width="8" height="8" transform="rotate(0,128,24)"></rect><path d="M 124 28v 8h 4a 4 4, 0, 0, 0, 0 -8" transform="rotate(90,128,32)"></path>
<path d="M 124 44v 8h 4a 4 4, 0, 0, 0, 0 -8" transform="rotate(0,128,48)"></path><circle cx="128" cy="64" r="4" transform="rotate(0,128,64)"></circle><rect x="124" y="172" width="8" height="8" transform="rotate(0,128,176)"></rect><path d="M 124 180v 8h 4a 4 4, 0, 0, 0, 0 -8" transform="rotate(90,128,184)"></path><path d="M 124 196v 8h 8v -4a 4 4, 0, 0, 0, -4 -4" transform="rotate(-90,128,200)"></path><rect x="124" y="204" width="8" height="8" transform="rotate(0,128,208)"></rect><rect x="124" y="212" width="8" height="8" transform="rotate(0,128,216)"></rect><path d="M 124 220v 8h 4a 4 4, 0, 0, 0, 0 -8" transform="rotate(90,128,224)"></path><path d="M 132 12v 8h 4a 4 4, 0, 0, 0, 0 -8" transform="rotate(-90,136,16)"></path><rect x="132" y="20" width="8" height="8" transform="rotate(0,136,24)"></rect>
<circle cx="136" cy="56" r="4" transform="rotate(0,136,56)"></circle><path d="M 132 164v 8h 4a 4 4, 0, 0, 0, 0 -8" transform="rotate(-90,136,168)"></path><rect x="132" y="172" width="8" height="8" transform="rotate(0,136,176)"></rect><rect x="132" y="196" width="8" height="8" transform="rotate(0,136,200)"></rect><rect x="132" y="204" width="8" height="8" transform="rotate(0,136,208)"></rect><rect x="132" y="212" width="8" height="8" transform="rotate(0,136,216)"></rect><path d="M 140 4v 8h 4a 4 4, 0, 0, 0, 0 -8" transform="rotate(180,144,8)"></path><path d="M 140 20v 8h 8v -4a 4 4, 0, 0, 0, -4 -4" transform="rotate(0,144,24)"></path><rect x="140" y="28" width="8" height="8" transform="rotate(0,144,32)"></rect><path d="M 140 36v 8h 4a 4 4, 0, 0, 0, 0 -8" transform="rotate(90,144,40)"></path><path d="M 140 172v 8h 4a 4 4, 0, 0, 0, 0 -8" transform="rotate(0,144,176)"></path><rect x="140" y="196" width="8" height="8" transform="rotate(0,144,200)"></rect><rect x="140" y="212" width="8" height="8" transform="rotate(0,144,216)"></rect><path d="M 140 228v 8h 4a 4 4, 0, 0, 0, 0 -8" transform="rotate(180,144,232)"></path><rect x="148" y="4" width="8" height="8" transform="rotate(0,152,8)"></rect><path d="M 148 12v 8h 4a 4 4, 0, 0, 0, 0 -8" transform="rotate(90,152,16)"></path><circle cx="152" cy="56" r="4" transform="rotate(0,152,56)"></circle><circle cx="152" cy="160" r="4" transform="rotate(0,152,160)"></circle><rect x="148" y="196" width="8" height="8" transform="rotate(0,152,200)"></rect><path d="M 148 212v 8h 4a 4 4, 0, 0, 0, 0 -8" transform="rotate(0,152,216)"></path><path d="M 148 228v 8h 4a 4 4, 0, 0, 0, 0 -8" transform="rotate(0,152,232)"></path><rect x="156" y="4" width="8" height="8" transform="rotate(0,160,8)"></rect><path d="M 156 28v 8h 8v -4a 4 4, 0, 0, 0, -4 -4" transform="rotate(-90,160,32)"></path><rect x="156" y="36" width="8" height="8" transform="rotate(0,160,40)"></rect><path d="M 156 44v 8h 4a 4 4, 0, 0, 0, 0 -8" transform="rotate(90,160,48)"></path><path d="M 156 68v 8h 4a 4 4, 0, 0, 0, 0 -8" transform="rotate(-90,160,72)"></path><rect x="156" y="76" width="8" height="8" transform="rotate(0,160,80)"></rect><path d="M 156 84v 8h 4a 4 4, 0, 0, 0, 0 -8" transform="rotate(90,160,88)"></path><circle cx="160" cy="104" r="4" transform="rotate(0,160,104)"></circle><path d="M 156 116v 8h 4a 4 4, 0, 0, 0, 0 -8" transform="rotate(-90,160,120)"></path><rect x="156" y="124" width="8" height="8" transform="rotate(0,160,128)"></rect><path d="M 156 132v 8h 4a 4 4, 0, 0, 0, 0 -8" transform="rotate(90,160,136)"></path><path d="M 156 172v 8h 8v -4a 4 4, 0, 0, 0, -4 -4" transform="rotate(-90,160,176)"></path><rect x="156" y="180" width="8" height="8" transform="rotate(0,160,184)"></rect><rect x="156" y="188" width="8" height="8" transform="rotate(0,160,192)"></rect><rect x="156" y="196" width="8" height="8" transform="rotate(0,160,200)"></rect><path d="M 156 204v 8h 8v -4a 4 4, 0, 0, 0, -4 -4" transform="rotate(180,160,208)"></path><circle cx="160" cy="224" r="4" transform="rotate(0,160,224)"></circle><path d="M 164 4v 8h 4a 4 4, 0, 0, 0, 0 -8" transform="rotate(0,168,8)"></path><path d="M 164 20v 8h 4a 4 4, 0, 0, 0, 0 -8" transform="rotate(-90,168,24)"></path><rect x="164" y="28" width="8" height="8" transform="rotate(0,168,32)"></rect><path d="M 164 36v 8h 8v -4a 4 4, 0, 0, 0, -4 -4" transform="rotate(90,168,40)"></path><path d="M 164 52v 8h 4a 4 4, 0, 0, 0, 0 -8" transform="rotate(-90,168,56)"></path><path d="M 164 60v 8h 4a 4 4, 0, 0, 0, 0 -8" transform="rotate(90,168,64)"></path><path d="M 164 76v 8h 4a 4 4, 0, 0, 0, 0 -8" transform="rotate(0,168,80)"></path><path d="M 164 140v 8h 4a 4 4, 0, 0, 0, 0 -8" transform="rotate(180,168,144)"></path><path d="M 164 164v 8h 8v -4a 4 4, 0, 0, 0, -4 -4" transform="rotate(-90,168,168)"></path><rect x="164" y="172" width="8" height="8" transform="rotate(0,168,176)"></rect><rect x="164" y="180" width="8" height="8" transform="rotate(0,168,184)"></rect><rect x="164" y="188" width="8" height="8" transform="rotate(0,168,192)"></rect><rect x="164" y="196" width="8" height="8" transform="rotate(0,168,200)"></rect><rect x="164" y="204" width="8" height="8" transform="rotate(0,168,208)"></rect><path d="M 164 212v 8h 8v -4a 4 4, 0, 0, 0, -4 -4" transform="rotate(180,168,216)"></path><path d="M 172 68v 8h 4a 4 4, 0, 0, 0, 0 -8" transform="rotate(180,176,72)"></path><path d="M 172 92v 8h 4a 4 4, 0, 0, 0, 0 -8" transform="rotate(180,176,96)"></path><path d="M 172 108v 8h 8v -4a 4 4, 0, 0, 0, -4 -4" transform="rotate(-90,176,112)"></path><rect x="172" y="116" width="8" height="8" transform="rotate(0,176,120)"></rect><path d="M 172 124v 8h 8v -4a 4 4, 0, 0, 0, -4 -4" transform="rotate(180,176,128)"></path><rect x="172" y="140" width="8" height="8" transform="rotate(0,176,144)"></rect><rect x="172" y="148" width="8" height="8" transform="rotate(0,176,152)"></rect><rect x="172" y="156" width="8" height="8" transform="rotate(0,176,160)"></rect><rect x="172" y="164" width="8" height="8" transform="rotate(0,176,168)"></rect><rect x="172" y="196" width="8" height="8" transform="rotate(0,176,200)"></rect><rect x="172" y="204" width="8" height="8" transform="rotate(0,176,208)"></rect><rect x="172" y="212" width="8" height="8" transform="rotate(0,176,216)"></rect><path d="M 172 220v 8h 4a 4 4, 0, 0, 0, 0 -8" transform="rotate(90,176,224)"></path><path d="M 180 68v 8h 8v -4a 4 4, 0, 0, 0, -4 -4" transform="rotate(0,184,72)"></path><rect x="180" y="76" width="8" height="8" transform="rotate(0,184,80)"></rect><rect x="180" y="84" width="8" height="8" transform="rotate(0,184,88)"></rect><rect x="180" y="92" width="8" height="8" transform="rotate(0,184,96)"></rect><path d="M 180 108v 8h 4a 4 4, 0, 0, 0, 0 -8" transform="rotate(0,184,112)"></path><rect x="180" y="124" width="8" height="8" transform="rotate(0,184,128)"></rect><rect x="180" y="140" width="8" height="8" transform="rotate(0,184,144)"></rect><rect x="180" y="156" width="8" height="8" transform="rotate(0,184,160)"></rect><rect x="180" y="164" width="8" height="8" transform="rotate(0,184,168)"></rect><circle cx="184" cy="184" r="4" transform="rotate(0,184,184)"></circle><rect x="180" y="196" width="8" height="8" transform="rotate(0,184,200)"></rect><rect x="188" y="76" width="8" height="8" transform="rotate(0,192,80)"></rect><path d="M 188 92v 8h 8v -4a 4 4, 0, 0, 0, -4 -4" transform="rotate(0,192,96)"></path><path d="M 188 100v 8h 8v -4a 4 4, 0, 0, 0, -4 -4" transform="rotate(180,192,104)"></path><path d="M 188 124v 8h 8v -4a 4 4, 0, 0, 0, -4 -4" transform="rotate(0,192,128)"></path><rect x="188" y="132" width="8" height="8" transform="rotate(0,192,136)"></rect><rect x="188" y="140" width="8" height="8" transform="rotate(0,192,144)"></rect><rect x="188" y="148" width="8" height="8" transform="rotate(0,192,152)"></rect><rect x="188" y="156" width="8" height="8" transform="rotate(0,192,160)"></rect><rect x="188" y="164" width="8" height="8" transform="rotate(0,192,168)"></rect><rect x="188" y="196" width="8" height="8" transform="rotate(0,192,200)"></rect><path d="M 188 204v 8h 4a 4 4, 0, 0, 0, 0 -8" transform="rotate(90,192,208)"></path><path d="M 188 220v 8h 8v -4a 4 4, 0, 0, 0, -4 -4" transform="rotate(-90,192,224)"></path><path d="M 188 228v 8h 8v -4a 4 4, 0, 0, 0, -4 -4" transform="rotate(180,192,232)"></path><path d="M 196 76v 8h 8v -4a 4 4, 0, 0, 0, -4 -4" transform="rotate(0,200,80)"></path><path d="M 196 84v 8h 8v -4a 4 4, 0, 0, 0, -4 -4" transform="rotate(180,200,88)"></path><path d="M 196 100v 8h 4a 4 4, 0, 0, 0, 0 -8" transform="rotate(0,200,104)"></path><path d="M 196 116v 8h 4a 4 4, 0, 0, 0, 0 -8" transform="rotate(180,200,120)"></path><rect x="196" y="140" width="8" height="8" transform="rotate(0,200,144)"></rect><rect x="196" y="156" width="8" height="8" transform="rotate(0,200,160)"></rect><rect x="196" y="164" width="8" height="8" transform="rotate(0,200,168)"></rect><rect x="196" y="172" width="8" height="8" transform="rotate(0,200,176)"></rect><rect x="196" y="180" width="8" height="8" transform="rotate(0,200,184)"></rect><rect x="196" y="188" width="8" height="8" transform="rotate(0,200,192)"></rect><path d="M 196 196v 8h 8v -4a 4 4, 0, 0, 0, -4 -4" transform="rotate(90,200,200)"></path><rect x="196" y="220" width="8" height="8" transform="rotate(0,200,224)"></rect><path d="M 196 228v 8h 8v -4a 4 4, 0, 0, 0, -4 -4" transform="rotate(90,200,232)"></path><path d="M 204 84v 8h 4a 4 4, 0, 0, 0, 0 -8" transform="rotate(0,208,88)"></path><path d="M 204 108v 8h 4a 4 4, 0, 0, 0, 0 -8" transform="rotate(-90,208,112)"></path><path d="M 204 116v 8h 8v -4a 4 4, 0, 0, 0, -4 -4" transform="rotate(90,208,120)"></path><path d="M 204 140v 8h 8v -4a 4 4, 0, 0, 0, -4 -4" transform="rotate(0,208,144)"></path><rect x="204" y="148" width="8" height="8" transform="rotate(0,208,152)"></rect><rect x="204" y="156" width="8" height="8" transform="rotate(0,208,160)"></rect><rect x="204" y="164" width="8" height="8" transform="rotate(0,208,168)"></rect><rect x="204" y="188" width="8" height="8" transform="rotate(0,208,192)"></rect><circle cx="208" cy="208" r="4" transform="rotate(0,208,208)"></circle><rect x="204" y="220" width="8" height="8" transform="rotate(0,208,224)"></rect><path d="M 212 92v 8h 4a 4 4, 0, 0, 0, 0 -8" transform="rotate(-90,216,96)"></path><path d="M 212 100v 8h 4a 4 4, 0, 0, 0, 0 -8" transform="rotate(90,216,104)"></path><path d="M 212 124v 8h 4a 4 4, 0, 0, 0, 0 -8" transform="rotate(-90,216,128)"></path><path d="M 212 132v 8h 8v -4a 4 4, 0, 0, 0, -4 -4" transform="rotate(180,216,136)"></path><path d="M 212 148v 8h 8v -4a 4 4, 0, 0, 0, -4 -4" transform="rotate(0,216,152)"></path><rect x="212" y="156" width="8" height="8" transform="rotate(0,216,160)"></rect><rect x="212" y="164" width="8" height="8" transform="rotate(0,216,168)"></rect><rect x="212" y="172" width="8" height="8" transform="rotate(0,216,176)"></rect><rect x="212" y="180" width="8" height="8" transform="rotate(0,216,184)"></rect><rect x="212" y="188" width="8" height="8" transform="rotate(0,216,192)"></rect><path d="M 212 196v 8h 8v -4a 4 4, 0, 0, 0, -4 -4" transform="rotate(180,216,200)"></path><path d="M 212 220v 8h 4a 4 4, 0, 0, 0, 0 -8" transform="rotate(0,216,224)"></path><path d="M 220 68v 8h 4a 4 4, 0, 0, 0, 0 -8" transform="rotate(-90,224,72)"></path><rect x="220" y="76" width="8" height="8" transform="rotate(0,224,80)"></rect><path d="M 220 84v 8h 4a 4 4, 0, 0, 0, 0 -8" transform="rotate(90,224,88)"></path><circle cx="224" cy="112" r="4" transform="rotate(0,224,112)"></circle><path d="M 220 132v 8h 4a 4 4, 0, 0, 0, 0 -8" transform="rotate(0,224,136)"></path><rect x="220" y="164" width="8" height="8" transform="rotate(0,224,168)"></rect><rect x="220" y="172" width="8" height="8" transform="rotate(0,224,176)"></rect><rect x="220" y="196" width="8" height="8" transform="rotate(0,224,200)"></rect><rect x="220" y="204" width="8" height="8" transform="rotate(0,224,208)"></rect><path d="M 220 212v 8h 8v -4a 4 4, 0, 0, 0, -4 -4" transform="rotate(180,224,216)"></path><circle cx="224" cy="232" r="4" transform="rotate(0,224,232)"></circle><path d="M 228 92v 8h 4a 4 4, 0, 0, 0, 0 -8" transform="rotate(-90,232,96)"></path><path d="M 228 100v 8h 4a 4 4, 0, 0, 0, 0 -8" transform="rotate(90,232,104)"></path><path d="M 228 116v 8h 4a 4 4, 0, 0, 0, 0 -8" transform="rotate(-90,232,120)"></path><path d="M 228 124v 8h 4a 4 4, 0, 0, 0, 0 -8" transform="rotate(90,232,128)"></path><circle cx="232" cy="144" r="4" transform="rotate(0,232,144)"></circle><path d="M 228 156v 8h 4a 4 4, 0, 0, 0, 0 -8" transform="rotate(-90,232,160)"></path><rect x="228" y="164" width="8" height="8" transform="rotate(0,232,168)"></rect><rect x="228" y="172" width="8" height="8" transform="rotate(0,232,176)"></rect><path d="M 228 180v 8h 4a 4 4, 0, 0, 0, 0 -8" transform="rotate(90,232,184)"></path><path d="M 228 196v 8h 4a 4 4, 0, 0, 0, 0 -8" transform="rotate(0,232,200)"></path><path d="M 228 212v 8h 4a 4 4, 0, 0, 0, 0 -8" transform="rotate(0,232,216)"></path></clipPath><clipPath id="clip-path-corners-square-color-0-0"><path clip-rule="evenodd" d="M 4 24v 16a 20 20, 0, 0, 0, 20 20h 16a 20 20, 0, 0, 0, 20 -20v -16a 20 20, 0, 0, 0, -20 -20h -16a 20 20, 0, 0, 0, -20 20M 24 12h 16a 12 12, 0, 0, 1, 12 12v 16a 12 12, 0, 0, 1, -12 12h -16a 12 12, 0, 0, 1, -12 -12v -16a 12 12, 0, 0, 1, 12 -12" transform="rotate(0,32,32)"></path><path d="M 20 20v 8h 8v -4a 4 4, 0, 0, 0, -4 -4" transform="rotate(-90,24,24)"></path><rect x="20" y="28" width="8" height="8" transform="rotate(0,24,32)"></rect><path d="M 20 36v 8h 8v -4a 4 4, 0, 0, 0, -4 -4" transform="rotate(180,24,40)"></path><rect x="28" y="20" width="8" height="8" transform="rotate(0,32,24)"></rect><rect x="28" y="28" width="8" height="8" transform="rotate(0,32,32)"></rect><rect x="28" y="36" width="8" height="8" transform="rotate(0,32,40)"></rect><path d="M 36 20v 8h 8v -4a 4 4, 0, 0, 0, -4 -4" transform="rotate(0,40,24)"></path><rect x="36" y="28" width="8" height="8" transform="rotate(0,40,32)"></rect><path d="M 36 36v 8h 8v -4a 4 4, 0, 0, 0, -4 -4" transform="rotate(90,40,40)"></path></clipPath><clipPath id="clip-path-corners-square-color-1-0"><path clip-rule="evenodd" d="M 180 24v 16a 20 20, 0, 0, 0, 20 20h 16a 20 20, 0, 0, 0, 20 -20v -16a 20 20, 0, 0, 0, -20 -20h -16a 20 20, 0, 0, 0, -20 20M 200 12h 16a 12 12, 0, 0, 1, 12 12v 16a 12 12, 0, 0, 1, -12 12h -16a 12 12, 0, 0, 1, -12 -12v -16a 12 12, 0, 0, 1, 12 -12" transform="rotate(90,208,32)"></path><path d="M 196 20v 8h 8v -4a 4 4, 0, 0, 0, -4 -4" transform="rotate(-90,200,24)"></path><rect x="196" y="28" width="8" height="8" transform="rotate(0,200,32)"></rect><path d="M 196 36v 8h 8v -4a 4 4, 0, 0, 0, -4 -4" transform="rotate(180,200,40)"></path><rect x="204" y="20" width="8" height="8" transform="rotate(0,208,24)"></rect><rect x="204" y="28" width="8" height="8" transform="rotate(0,208,32)"></rect><rect x="204" y="36" width="8" height="8" transform="rotate(0,208,40)"></rect><path d="M 212 20v 8h 8v -4a 4 4, 0, 0, 0, -4 -4" transform="rotate(0,216,24)"></path><rect x="212" y="28" width="8" height="8" transform="rotate(0,216,32)"></rect><path d="M 212 36v 8h 8v -4a 4 4, 0, 0, 0, -4 -4" transform="rotate(90,216,40)"></path></clipPath><clipPath id="clip-path-corners-square-color-0-1"><path clip-rule="evenodd" d="M 4 200v 16a 20 20, 0, 0, 0, 20 20h 16a 20 20, 0, 0, 0, 20 -20v -16a 20 20, 0, 0, 0, -20 -20h -16a 20 20, 0, 0, 0, -20 20M 24 188h 16a 12 12, 0, 0, 1, 12 12v 16a 12 12, 0, 0, 1, -12 12h -16a 12 12, 0, 0, 1, -12 -12v -16a 12 12, 0, 0, 1, 12 -12" transform="rotate(-90,32,208)"></path><path d="M 20 196v 8h 8v -4a 4 4, 0, 0, 0, -4 -4" transform="rotate(-90,24,200)"></path><rect x="20" y="204" width="8" height="8" transform="rotate(0,24,208)"></rect><path d="M 20 212v 8h 8v -4a 4 4, 0, 0, 0, -4 -4" transform="rotate(180,24,216)"></path>
<rect x="28" y="196" width="8" height="8" transform="rotate(0,32,200)"></rect><rect x="28" y="204" width="8" height="8" transform="rotate(0,32,208)"></rect><rect x="28" y="212" width="8" height="8" transform="rotate(0,32,216)"></rect><path d="M 36 196v 8h 8v -4a 4 4, 0, 0, 0, -4 -4" transform="rotate(0,40,200)"></path><rect x="36" y="204" width="8" height="8" transform="rotate(0,40,208)"></rect><path d="M 36 212v 8h 8v -4a 4 4, 0, 0, 0, -4 -4" transform="rotate(90,40,216)"></path>
</clipPath>
</defs>

<rect x="4" y="4" height="232" width="232" clip-path="url('#clip-path-dot-color')" fill="#000000"></rect>
<rect x="4" y="4" height="56" width="56" clip-path="url('#clip-path-corners-square-color-0-0')" fill="#000000"></rect>
<rect x="180" y="4" height="56" width="56" clip-path="url('#clip-path-corners-square-color-1-0')" fill="#000000"></rect>
<rect x="4" y="180" height="56" width="56" clip-path="url('#clip-path-corners-square-color-0-1')" fill="#000000">
</rect>
<!-- <image href="https://upload.wikimedia.org/wikipedia/commons/8/82/Telegram_logo.svg" x="97.5" y="97.5" width="45px" height="45px"></image> -->
</svg>