<?xml version="1.0" encoding="utf-8"?>
<!-- Generator: Adobe Illustrator 27.0.0, SVG Export Plug-In . SVG Version: 6.00 Build 0)  -->
<svg version="1.1" id="Layer_1" xmlns="http://www.w3.org/2000/svg" xmlns:xlink="http://www.w3.org/1999/xlink" x="0px" y="0px"
	 viewBox="0 0 32 32" style="enable-background:new 0 0 32 32;" xml:space="preserve">
<style type="text/css">
	.st0{opacity:0.15;fill:#EA85FF;}
	.st1{fill:#EA85FF;}
</style>
<g>
	<path d="M31,10.1v11.8c0,5-4.1,9.1-9.1,9.1H10.1c-5,0-9.1-4.1-9.1-9.1V10.1C1,5.1,5.1,1,10.1,1h11.8C26.9,1,31,5.1,31,10.1z"/>
	<path class="st0" d="M31,10.1v11.8c0,5-4.1,9.1-9.1,9.1H10.1c-5,0-9.1-4.1-9.1-9.1V10.1C1,5.1,5.1,1,10.1,1h11.8
		C26.9,1,31,5.1,31,10.1z"/>
	<path class="st1" d="M16,7.4c4.8,0,8.6,3.9,8.6,8.6s-3.9,8.6-8.6,8.6S7.4,20.8,7.4,16S11.2,7.4,16,7.4z M16,8.6
		c-4.1,0-7.4,3.3-7.4,7.4s3.3,7.4,7.4,7.4s7.4-3.3,7.4-7.4S20.1,8.6,16,8.6z M16.5,14.9c0.4,0.3,0.6,0.8,0.4,1.3l-0.6,2.5
		c0,0,0,0,0,0c0,0,0,0,0,0l0,0c0.3-0.2,0.7,0,0.8,0.3c0.2,0.3,0,0.7-0.3,0.8l0,0c-0.6,0.3-1.4,0.1-1.7-0.6c-0.1-0.3-0.2-0.6-0.1-0.9
		l0.6-2.5c0,0,0,0,0,0c0,0,0,0-0.1,0l0,0c-0.3,0.1-0.7,0-0.8-0.3c-0.1-0.3,0-0.7,0.3-0.8l0,0C15.5,14.5,16.1,14.6,16.5,14.9
		L16.5,14.9z M16.4,11.3c0.5,0,0.9,0.4,0.9,0.9c0,0.5-0.4,0.9-0.9,0.9c-0.5,0-0.9-0.4-0.9-0.9C15.5,11.7,15.9,11.3,16.4,11.3z"/>
</g>
</svg>
