<svg width="1439" height="1417" viewBox="0 0 1439 1417" fill="none" xmlns="http://www.w3.org/2000/svg">
<path d="M180.748 869.902C177.641 874.562 172.981 877.669 174.534 883.883C177.641 890.096 183.855 891.65 190.068 893.203C214.923 894.756 239.777 890.096 263.078 883.883C283.272 879.222 303.466 873.009 325.214 868.349C322.107 873.009 317.447 874.562 314.34 876.116C291.039 888.543 267.738 899.417 245.991 914.951C238.224 919.611 232.01 925.824 225.796 932.038C219.583 941.358 221.136 947.572 232.01 950.679C241.33 953.786 250.651 950.679 259.971 947.572C287.932 939.805 314.34 925.824 339.194 911.844L340.748 913.397C320.554 930.485 298.806 944.465 281.719 964.659C277.059 970.873 267.738 977.087 272.398 984.854C277.059 992.621 286.379 987.96 294.146 984.854C323.66 973.98 350.068 956.892 378.029 942.912C419.971 919.611 461.913 896.31 502.301 873.009C506.962 869.902 508.515 869.902 513.175 874.562C519.389 882.329 528.709 880.776 536.476 880.776C555.117 879.222 570.651 873.009 590.845 866.795C583.078 883.883 575.311 899.417 572.204 916.504C570.651 925.824 567.544 938.252 576.864 944.465C586.185 950.679 595.505 944.465 603.272 939.805C618.806 933.591 631.233 922.718 648.321 911.844C645.214 919.611 642.107 922.718 639 925.824C625.02 941.358 612.593 955.339 601.719 972.426C598.612 978.64 595.505 983.3 593.952 989.514C592.398 997.281 597.059 1001.94 604.826 1000.39C615.699 997.281 625.02 992.62 634.34 987.96C666.961 969.319 698.029 947.572 727.544 924.271C730.651 922.718 733.758 919.611 738.418 919.611C735.311 924.271 732.204 928.931 727.544 933.591C704.243 964.659 680.942 997.281 662.301 1031.46C657.641 1040.78 652.981 1050.1 651.427 1060.97C649.874 1071.84 654.534 1074.95 663.855 1070.29C677.835 1062.52 690.262 1053.2 702.69 1042.33C732.204 1017.47 758.612 991.067 785.02 963.106C786.573 961.553 788.127 956.892 792.787 958.446C794.34 964.659 789.68 966.213 788.127 969.32C760.165 1009.71 732.204 1048.54 710.457 1092.04C707.35 1096.7 705.796 1102.91 704.243 1107.57C702.69 1112.23 699.583 1120 705.796 1123.11C710.457 1126.21 716.67 1121.55 721.33 1118.45C733.758 1109.13 744.631 1096.7 755.505 1085.82C783.466 1054.76 808.321 1023.69 831.622 991.067C833.175 987.96 834.729 984.854 840.942 981.747C826.961 1006.6 812.981 1028.35 799 1051.65C774.146 1095.14 747.738 1138.64 727.544 1185.24C724.437 1191.46 722.884 1197.67 721.33 1203.88C719.777 1214.76 722.884 1217.86 732.204 1213.2C747.738 1206.99 761.719 1196.12 775.699 1186.8C847.156 1133.98 910.845 1073.4 960.554 998.834C977.641 972.426 991.622 944.465 997.835 913.397C1000.94 894.756 999.389 877.669 991.622 862.135C968.321 817.087 938.806 778.252 898.418 748.737C893.758 745.63 889.097 744.077 893.758 736.31C918.612 691.261 934.146 641.553 941.913 590.29C952.787 590.29 963.661 590.29 972.981 588.737C974.534 591.844 972.981 596.504 977.641 594.951C982.301 594.951 980.748 590.29 982.301 587.184C1050.65 587.184 1117.45 591.844 1184.24 602.718C1269.68 615.145 1353.56 635.339 1435.89 658.64C1437.45 669.514 1434.34 680.387 1434.34 691.261C1432.79 736.31 1421.91 779.805 1409.49 823.3C1390.85 890.096 1365.99 953.786 1334.92 1015.92C1317.84 1048.54 1299.19 1079.61 1277.45 1109.13C1271.23 1116.89 1271.23 1127.77 1263.47 1132.43C1237.06 1151.07 1227.74 1183.69 1198.22 1200.78C1190.46 1205.44 1181.14 1211.65 1173.37 1217.86C1153.18 1233.4 1132.98 1250.48 1112.79 1266.02C1072.4 1293.98 1032.01 1317.28 988.515 1339.03C915.505 1374.76 839.389 1393.4 760.165 1407.38C739.971 1410.48 718.224 1413.59 698.029 1416.7C665.408 1416.7 634.34 1416.7 601.719 1416.7C586.185 1412.04 569.097 1412.04 552.01 1410.48C508.515 1402.72 465.02 1390.29 423.078 1377.86C405.991 1357.67 376.476 1360.78 356.282 1343.69C345.408 1334.37 332.981 1326.6 319 1321.94C301.913 1315.73 287.932 1306.41 273.952 1295.53C266.185 1289.32 255.311 1284.66 253.758 1273.79C253.758 1269.13 247.544 1267.57 244.437 1266.02C236.67 1262.91 227.35 1259.8 219.583 1255.14C214.923 1253.59 210.262 1252.04 210.262 1247.38C208.709 1233.4 197.835 1228.74 188.515 1222.52C182.301 1219.42 179.194 1216.31 176.088 1208.54C171.427 1197.67 166.767 1186.8 154.34 1182.14C148.127 1180.58 143.466 1174.37 140.36 1169.71C124.826 1144.85 110.845 1120 98.4178 1093.59C90.6508 1078.06 84.4372 1064.08 72.01 1053.2C70.4566 1051.65 68.9032 1050.1 68.9032 1050.1C65.7964 1015.92 47.1556 986.407 39.3886 953.786C33.1751 930.485 26.9615 907.184 22.3013 882.329C76.6702 880.776 127.932 876.116 180.748 869.902Z" fill="#FED601"/>
<path d="M1442.11 624.465C1435.89 630.679 1439 638.446 1439 646.213C1439 650.873 1440.55 655.533 1437.45 658.64C1355.12 635.339 1271.23 615.145 1185.8 602.718C1119 591.844 1052.2 587.184 983.855 587.184C983.855 565.436 988.515 543.689 994.728 523.494C996.282 518.834 999.389 517.281 1004.05 515.727C1010.26 512.621 1016.48 511.067 1022.69 507.96C1021.14 506.407 1021.14 506.407 1021.14 504.854C1004.05 497.087 1004.05 497.087 1011.82 478.446C1013.37 475.339 1014.92 472.232 1014.92 469.125C1016.48 462.912 1019.58 459.805 1027.35 461.358C1061.52 467.572 1094.15 466.019 1128.32 459.805C1143.85 456.698 1157.84 452.038 1168.71 439.611C1176.48 430.29 1176.48 427.184 1164.05 424.077C1140.75 416.31 1115.89 419.417 1092.59 424.077C1070.85 428.737 1049.1 433.397 1027.35 445.824C1036.67 422.523 1047.54 403.883 1058.42 385.242C1061.52 379.028 1066.18 380.582 1072.4 382.135C1105.02 393.009 1140.75 397.669 1174.92 394.562C1188.9 393.009 1201.33 391.456 1213.76 382.135C1224.63 374.368 1224.63 369.708 1212.2 363.494C1193.56 354.174 1171.82 352.621 1151.62 352.621C1126.77 352.621 1100.36 355.727 1073.95 365.048C1083.27 347.96 1094.15 335.533 1103.47 321.553C1106.57 318.446 1109.68 319.999 1112.79 321.553C1151.62 327.766 1190.46 327.766 1227.74 316.892C1240.17 313.786 1251.04 307.572 1258.81 296.698C1263.47 290.485 1261.91 285.824 1254.15 284.271C1230.85 276.504 1209.1 278.057 1185.8 282.718C1164.05 287.378 1143.85 293.591 1122.11 301.358C1123.66 292.038 1131.43 288.931 1137.64 284.271C1167.16 265.63 1192.01 242.329 1212.2 212.815C1219.97 201.941 1224.63 191.067 1227.74 180.193C1244.83 197.281 1265.02 212.815 1280.55 229.902C1305.41 259.417 1330.26 290.485 1352.01 321.553C1393.95 380.582 1418.81 447.378 1432.79 517.281C1437.45 537.475 1442.11 557.669 1437.45 579.417C1435.89 588.737 1439 598.057 1445.21 605.824C1442.11 613.591 1442.11 618.252 1442.11 624.465Z" fill="#0157B7"/>
<path d="M180.748 869.902C129.486 877.669 76.67 882.329 25.4079 882.329C19.1943 857.475 12.9807 832.621 8.3205 807.766C6.7671 796.893 8.3205 786.019 8.3205 776.698C9.8739 725.436 -2.55329 675.727 0.553509 624.465C3.66031 584.077 2.10691 542.135 17.6409 501.747C22.3011 490.873 25.4079 481.553 34.7283 473.786C37.8351 470.679 40.9419 467.572 40.9419 464.465C51.8157 430.291 76.67 402.329 87.5438 366.601C89.0972 360.388 95.3108 351.067 101.524 355.727C107.738 360.388 101.524 368.155 96.8642 372.815C70.4564 402.329 61.136 438.058 56.4758 478.446C64.2428 469.125 65.7962 458.252 67.3496 448.931C68.903 441.164 70.4564 433.397 72.0098 427.184C73.5632 422.524 75.1166 419.417 81.3302 419.417C90.6506 417.863 93.7574 406.99 99.971 400.776C107.738 391.456 115.505 382.135 115.505 368.155C115.505 365.048 117.058 360.388 118.612 358.834C131.039 351.067 134.146 335.533 146.573 326.213C152.787 321.553 157.447 313.786 157.447 306.019C157.447 292.038 165.214 285.825 174.534 278.058C179.194 273.397 182.301 267.184 183.854 260.97C185.408 246.99 194.728 240.776 207.155 243.883C213.369 245.436 218.029 242.329 221.136 237.669C225.796 233.009 228.903 226.795 233.563 222.135C232.01 217.475 227.35 219.028 225.796 217.475C221.136 214.368 219.583 212.815 224.243 208.155C242.884 189.514 256.864 167.766 277.058 150.679C283.272 144.465 289.486 138.252 300.359 142.912C305.02 144.465 314.34 144.465 312.787 133.591C312.787 130.485 312.787 128.931 315.893 128.931C339.194 124.271 354.728 105.63 373.369 93.2031C374.922 91.6497 376.476 90.0963 378.029 90.0963C398.223 85.4361 413.757 71.4556 432.398 62.1352C441.719 57.475 449.486 51.2614 457.253 45.0478C461.913 40.3876 466.573 38.8342 472.787 40.3876C480.554 41.941 488.321 40.3876 496.088 37.2808C519.389 31.0672 539.583 18.64 562.884 13.9798C575.311 10.873 587.738 10.873 600.165 12.4264C603.272 12.4264 606.379 12.4264 607.932 12.4264C643.66 -3.10756 682.495 -1.55416 719.777 -0.000765622C757.058 1.55263 792.787 3.10603 830.068 10.873C853.369 15.5332 875.117 21.7468 898.418 20.1934C899.971 20.1934 903.078 20.1934 904.631 21.7468C917.058 32.6206 932.592 32.6206 948.126 34.174C957.447 34.174 963.66 41.941 971.427 45.0478C1007.16 55.9216 1041.33 68.3488 1075.51 79.2225C1087.93 83.8827 1098.81 86.9895 1108.13 99.4167C1114.34 107.184 1126.77 111.844 1136.09 118.057C1159.39 132.038 1181.14 149.125 1205.99 164.659C1168.71 191.067 1145.41 226.795 1129.87 267.184C1125.21 278.058 1120.55 288.931 1112.79 298.252C1111.23 299.805 1111.23 299.805 1108.13 301.358C1111.23 274.951 1111.23 248.543 1106.57 222.135C1103.47 203.494 1100.36 186.407 1089.49 170.873C1087.93 169.32 1086.38 166.213 1084.83 164.659C1080.17 159.999 1075.51 155.339 1069.29 155.339C1063.08 156.892 1063.08 164.659 1063.08 169.32C1055.31 201.941 1064.63 233.009 1073.95 264.077C1078.61 279.611 1084.83 295.145 1095.7 307.572C1097.25 309.125 1100.36 310.679 1097.25 313.786C1083.27 330.873 1070.84 349.514 1056.86 368.155C1061.52 338.64 1059.97 309.125 1053.76 281.164C1050.65 262.524 1045.99 245.436 1032.01 231.456C1021.14 220.582 1016.48 220.582 1011.82 236.116C1008.71 250.096 1007.16 264.077 1010.26 279.611C1016.48 315.339 1022.69 349.514 1045.99 379.028C1047.54 382.135 1049.1 383.689 1047.54 386.795C1038.22 405.436 1027.35 424.077 1018.03 441.164C1016.48 442.718 1016.48 444.271 1013.37 442.718C1018.03 411.65 1014.92 380.582 1007.16 351.067C1004.05 335.533 997.835 321.553 985.408 312.232C976.088 304.465 972.981 306.019 969.874 316.892C962.107 341.747 965.214 368.155 972.981 393.009C979.194 417.863 985.408 444.271 1004.05 462.912C1008.71 467.572 1004.05 472.232 1002.5 475.339C993.175 497.087 993.175 497.087 969.874 489.32C963.66 487.766 957.447 483.106 952.787 479.999C937.253 467.572 920.165 456.698 899.971 452.038C868.903 445.825 845.602 456.698 826.961 479.999C805.214 507.96 785.02 539.028 764.825 568.543C757.058 579.417 750.845 590.291 739.971 598.058C729.097 605.825 724.437 604.271 719.777 591.844C713.563 573.203 712.01 553.009 707.35 534.368C702.689 509.514 694.922 484.66 682.495 461.359C671.622 441.164 652.981 433.397 632.787 427.184C583.078 411.65 530.262 403.883 479 399.223C412.204 391.456 345.408 388.349 277.058 389.902C252.204 389.902 227.35 391.456 202.495 396.116C199.388 396.116 197.835 397.669 196.282 397.669C191.621 399.223 183.854 400.776 183.854 406.99C183.854 413.203 188.515 416.31 194.728 419.417C221.136 433.397 250.651 439.611 280.165 445.825C342.301 458.252 404.437 467.572 468.126 475.339C469.68 475.339 471.233 475.339 472.787 479.999C457.253 479.999 443.272 479.999 427.738 479.999C373.369 481.553 319 483.106 264.631 490.873C255.311 492.426 247.544 493.98 238.223 497.087C233.563 498.64 227.35 500.193 227.35 504.854C227.35 509.514 233.563 512.621 236.67 514.174C249.097 518.834 261.524 521.941 273.952 525.048C332.981 537.475 393.563 545.242 454.146 553.009C455.699 553.009 457.253 553.009 458.806 554.562C435.505 556.116 410.651 556.116 387.35 557.669C356.282 559.223 323.66 560.776 294.146 570.096C284.825 571.65 272.398 573.203 273.952 584.077C273.952 594.951 286.379 596.504 294.146 599.611C326.767 608.931 359.388 608.931 392.01 610.485C421.524 610.485 451.039 610.485 477.447 610.485C454.146 615.145 426.185 621.359 399.777 627.572C381.136 632.232 362.495 636.893 345.408 644.659C340.748 647.766 331.427 649.32 332.981 655.533C334.534 661.747 342.301 661.747 348.515 663.3C370.262 667.961 392.01 666.407 413.757 664.854C430.845 663.3 447.932 661.747 465.02 663.3C455.699 667.961 446.379 671.067 435.505 675.727C424.631 680.388 413.757 685.048 404.437 692.815C401.33 695.922 396.67 697.475 398.223 703.689C399.777 708.349 404.437 709.902 410.651 709.902C429.291 711.456 447.932 708.349 466.573 703.689C471.233 702.135 475.893 702.135 480.554 702.135C480.554 702.135 480.554 702.135 482.107 703.689C441.719 736.31 395.117 761.164 342.301 765.825C286.379 772.038 232.01 773.592 176.088 784.465C168.321 786.019 162.107 787.572 155.893 792.232C151.233 795.339 146.573 796.893 146.573 803.106C146.573 809.32 151.233 812.427 155.893 813.98C165.214 818.64 177.641 821.747 188.515 823.3C218.029 826.407 249.097 826.407 278.612 823.3C284.825 823.3 291.039 823.3 297.253 823.3C255.311 837.281 214.922 846.601 180.748 869.902Z" fill="#0157B7"/>
<path d="M974.534 587.183C963.66 587.183 952.786 587.183 943.466 588.737C945.019 573.203 949.68 559.222 955.893 545.242C962.107 532.814 971.427 525.048 986.961 523.494C980.748 545.242 976.087 565.436 974.534 587.183Z" fill="#0157B7"/>
<path d="M479 700.581C480.554 699.028 482.107 699.028 482.107 700.581C483.661 702.134 482.107 702.134 479 700.581Z" fill="#0157B7"/>
<path d="M342.301 913.399C343.855 911.846 345.408 911.846 346.961 911.846C345.408 913.399 345.408 913.399 343.855 914.953C343.855 913.399 342.301 913.399 342.301 913.399Z" fill="#FED601"/>
<path d="M848.708 973.98C848.708 972.426 848.708 972.426 848.708 970.873C851.815 972.426 848.708 972.426 848.708 973.98Z" fill="#FED601"/>
<path d="M1120.55 301.359L1119 302.913C1117.45 301.359 1119 301.359 1120.55 301.359Z" fill="#0157B7"/>
<path d="M848.71 973.98C848.71 975.534 848.71 977.087 845.603 977.087C845.603 973.981 845.603 972.427 848.71 973.98Z" fill="#FED601"/>
</svg>
