<svg width="2685" height="451" viewBox="0 0 2685 451" fill="none" xmlns="http://www.w3.org/2000/svg">
<path d="M0.90625 390.624V93.2674H92.0955V341.064L67.5141 335.514L223.329 93.2674H343.857V390.624H252.668V137.276L276.853 142.827L117.866 390.624H0.90625Z" fill="black"/>
<path d="M539.762 397.364C507.516 397.364 479.234 393.003 454.917 384.28C430.864 375.293 412.097 362.738 398.617 346.615C385.401 330.227 378.397 310.932 377.604 288.73H469.586C471.436 301.152 478.177 310.668 489.806 317.276C501.436 323.619 518.088 326.791 539.762 326.791C559.85 326.791 575.181 324.28 585.753 319.258C596.59 314.236 602.009 306.703 602.009 296.659C602.009 287.672 597.251 281.329 587.736 277.628C578.22 273.664 562.758 271.681 541.348 271.681H488.617V211.417H540.159C552.846 211.417 563.154 210.492 571.084 208.642C579.278 206.527 585.357 203.487 589.322 199.523C593.286 195.294 595.269 190.404 595.269 184.853C595.269 178.774 593.022 173.752 588.529 169.787C584.3 165.558 578.088 162.386 569.894 160.272C561.701 158.157 551.657 157.1 539.762 157.1C520.203 157.1 504.873 160.272 493.771 166.615C482.934 172.695 476.591 181.549 474.74 193.179H383.155C384.476 173.62 391.349 155.778 403.771 139.655C416.194 123.532 434.168 110.712 457.692 101.197C481.48 91.4172 510.291 86.5273 544.124 86.5273C573.198 86.5273 598.573 90.0956 620.247 97.2321C641.921 104.369 658.705 114.281 670.599 126.968C682.758 139.391 688.837 153.928 688.837 170.58C688.837 184.06 684.872 196.351 676.943 207.452C669.013 218.553 656.194 227.408 638.485 234.016C621.04 240.624 598.044 243.796 569.498 243.531V235.205C595.93 233.884 618.529 235.602 637.295 240.36C656.326 244.853 670.863 252.386 680.907 262.959C691.216 273.267 696.37 286.879 696.37 303.796C696.37 322.033 690.291 338.157 678.132 352.166C665.974 366.174 648.264 377.276 625.005 385.47C601.745 393.399 573.331 397.364 539.762 397.364Z" fill="black"/>
<path d="M968.491 93.2674V175.338H787.302L828.932 134.104V390.624H736.553V93.2674H968.491Z" fill="black"/>
<path d="M1157.45 397.364C1121.77 397.364 1090.45 390.888 1063.49 377.936C1036.79 364.985 1015.91 346.879 1000.84 323.619C986.043 300.36 978.642 273.135 978.642 241.946C978.642 210.756 986.043 183.532 1000.84 160.272C1015.91 137.012 1036.79 118.906 1063.49 105.955C1090.45 93.003 1121.77 86.5273 1157.45 86.5273C1193.13 86.5273 1224.32 93.003 1251.02 105.955C1277.98 118.906 1298.86 137.012 1313.66 160.272C1328.73 183.532 1336.26 210.756 1336.26 241.946C1336.26 273.135 1328.73 300.36 1313.66 323.619C1298.86 346.879 1277.98 364.985 1251.02 377.936C1224.32 390.888 1193.13 397.364 1157.45 397.364ZM1157.45 315.293C1175.16 315.293 1190.36 312.386 1203.05 306.571C1216 300.492 1225.91 292.034 1232.78 281.197C1239.65 270.095 1243.09 257.012 1243.09 241.946C1243.09 226.879 1239.65 213.928 1232.78 203.091C1225.91 191.99 1216 183.532 1203.05 177.717C1190.36 171.637 1175.16 168.598 1157.45 168.598C1139.74 168.598 1124.41 171.637 1111.46 177.717C1098.77 183.532 1088.99 191.99 1082.12 203.091C1075.25 213.928 1071.81 226.879 1071.81 241.946C1071.81 257.012 1075.25 270.095 1082.12 281.197C1088.99 292.034 1098.77 300.492 1111.46 306.571C1124.41 312.386 1139.74 315.293 1157.45 315.293Z" fill="black"/>
<path d="M1375.4 390.624V93.2674H1466.59V341.064L1442.01 335.514L1597.83 93.2674H1718.36V390.624H1627.17V137.276L1651.35 142.827L1492.36 390.624H1375.4ZM1439.24 0.888672H1511C1514.44 8.81817 1519.06 14.8974 1524.88 19.1265C1530.96 23.0913 1538.09 25.0736 1546.29 25.0736C1554.74 25.0736 1561.88 23.0913 1567.7 19.1265C1573.77 14.8974 1578.4 8.81817 1581.57 0.888672H1653.73C1647.39 27.3203 1634.7 46.3512 1615.67 57.9811C1596.64 69.611 1573.51 75.426 1546.29 75.426C1519.59 75.426 1496.59 69.611 1477.3 57.9811C1458.27 46.3512 1445.58 27.3203 1439.24 0.888672Z" fill="black"/>
<path d="M1806.42 394.985C1797.17 394.985 1788.71 392.87 1781.05 388.641C1773.38 384.148 1767.3 378.069 1762.81 370.403C1758.58 362.738 1756.46 354.28 1756.46 345.029C1756.46 335.514 1758.58 327.055 1762.81 319.655C1767.3 311.989 1773.38 306.042 1781.05 301.813C1788.71 297.32 1797.17 295.073 1806.42 295.073C1815.94 295.073 1824.39 297.32 1831.79 301.813C1839.46 306.042 1845.41 311.989 1849.64 319.655C1854.13 327.055 1856.38 335.514 1856.38 345.029C1856.38 354.28 1854.13 362.738 1849.64 370.403C1845.41 378.069 1839.46 384.148 1831.79 388.641C1824.39 392.87 1815.94 394.985 1806.42 394.985Z" fill="black"/>
<path d="M1876.78 450.095V308.95H1946.95L1971.53 309.743H2172.94L2196.33 308.95H2287.13V450.095H2200.3V390.624H1963.6V450.095H1876.78ZM1937.44 93.2674H2235.98V366.835H2143.6V132.122L2185.23 173.355H1986.6L2024.26 142.43C2026.64 153.796 2027.96 164.765 2028.23 175.338C2028.76 185.91 2029.02 195.822 2029.02 205.073C2029.02 235.47 2026.25 260.844 2020.7 281.197C2015.15 301.549 2006.69 316.879 1995.32 327.188C1983.96 337.232 1969.81 342.254 1952.9 342.254L1914.44 310.536C1924.22 298.377 1931.49 281.99 1936.25 261.373C1941.27 240.756 1943.78 215.514 1943.78 185.646C1943.78 171.637 1943.25 156.968 1942.19 141.637C1941.14 126.307 1939.55 110.184 1937.44 93.2674Z" fill="black"/>
<path d="M2386.68 337.1V263.355H2590.47V337.1H2386.68ZM2551.22 93.2674L2684.44 390.624H2585.71L2477.87 133.311H2502.85L2394.61 390.624H2296.29L2429.11 93.2674H2551.22Z" fill="black"/>
</svg>
