<svg width="3065" height="917" viewBox="0 0 3065 917" fill="none" xmlns="http://www.w3.org/2000/svg">
<path d="M204.86 73.3883C231.928 73.3883 255.13 77.9457 274.465 87.0606C294.075 96.1755 308.991 109.019 319.21 125.592C329.43 141.888 334.54 161.223 334.54 183.596C334.54 205.692 329.43 225.027 319.21 241.599C308.991 258.172 294.075 271.016 274.465 280.13C255.13 289.245 231.928 293.803 204.86 293.803H71.8655V217.569H198.645C210.798 217.569 220.19 214.531 226.819 208.454C233.724 202.378 237.176 194.091 237.176 183.596C237.176 172.547 233.724 164.123 226.819 158.322C220.19 152.522 210.798 149.622 198.645 149.622H80.1517L123.655 105.705V384.123H27.1197V73.3883H204.86ZM696.316 391.166C659.028 391.166 626.297 384.399 598.124 370.865C570.227 357.331 548.406 338.411 532.662 314.104C517.195 289.798 509.461 261.348 509.461 228.756C509.461 196.163 517.195 167.714 532.662 143.407C548.406 119.101 570.227 100.181 598.124 86.6463C626.297 73.1121 659.028 66.345 696.316 66.345C733.604 66.345 766.197 73.1121 794.094 86.6463C822.267 100.181 844.088 119.101 859.555 143.407C875.299 167.714 883.171 196.163 883.171 228.756C883.171 261.348 875.299 289.798 859.555 314.104C844.088 338.411 822.267 357.331 794.094 370.865C766.197 384.399 733.604 391.166 696.316 391.166ZM696.316 305.404C714.822 305.404 730.704 302.365 743.962 296.289C757.496 289.936 767.854 281.097 775.036 269.773C782.217 258.172 785.808 244.5 785.808 228.756C785.808 213.012 782.217 199.478 775.036 188.153C767.854 176.552 757.496 167.714 743.962 161.637C730.704 155.284 714.822 152.108 696.316 152.108C677.81 152.108 661.79 155.284 648.256 161.637C634.998 167.714 624.778 176.552 617.597 188.153C610.415 199.478 606.824 213.012 606.824 228.756C606.824 244.5 610.415 258.172 617.597 269.773C624.778 281.097 634.998 289.936 648.256 296.289C661.79 302.365 677.81 305.404 696.316 305.404ZM1428.71 251.957C1425.39 279.578 1415.73 303.884 1399.71 324.876C1383.96 345.868 1362.97 362.164 1336.73 373.765C1310.77 385.366 1280.94 391.166 1247.24 391.166C1210.78 391.166 1178.88 384.399 1151.53 370.865C1124.19 357.331 1102.92 338.411 1087.73 314.104C1072.54 289.798 1064.94 261.348 1064.94 228.756C1064.94 196.163 1072.54 167.714 1087.73 143.407C1102.92 119.101 1124.19 100.181 1151.53 86.6463C1178.88 73.1121 1210.78 66.345 1247.24 66.345C1280.94 66.345 1310.77 72.1454 1336.73 83.7461C1362.97 95.3469 1383.96 111.643 1399.71 132.635C1415.73 153.351 1425.39 177.657 1428.71 205.554H1331.76C1329 193.677 1323.89 183.596 1316.43 175.309C1309.25 166.747 1299.86 160.256 1288.26 155.837C1276.66 151.141 1262.98 148.793 1247.24 148.793C1229.56 148.793 1214.37 151.97 1201.66 158.322C1188.96 164.675 1179.15 173.928 1172.25 186.081C1165.34 197.958 1161.89 212.183 1161.89 228.756C1161.89 245.328 1165.34 259.553 1172.25 271.43C1179.15 283.307 1188.96 292.56 1201.66 299.189C1214.37 305.542 1229.56 308.718 1247.24 308.718C1262.98 308.718 1276.66 306.647 1288.26 302.503C1299.86 298.084 1309.25 291.593 1316.43 283.031C1323.89 274.468 1329 264.11 1331.76 251.957H1428.71ZM1972.45 251.957C1969.13 279.578 1959.46 303.884 1943.44 324.876C1927.7 345.868 1906.71 362.164 1880.47 373.765C1854.5 385.366 1824.67 391.166 1790.98 391.166C1754.52 391.166 1722.61 384.399 1695.27 370.865C1667.93 357.331 1646.66 338.411 1631.47 314.104C1616.27 289.798 1608.68 261.348 1608.68 228.756C1608.68 196.163 1616.27 167.714 1631.47 143.407C1646.66 119.101 1667.93 100.181 1695.27 86.6463C1722.61 73.1121 1754.52 66.345 1790.98 66.345C1824.67 66.345 1854.5 72.1454 1880.47 83.7461C1906.71 95.3469 1927.7 111.643 1943.44 132.635C1959.46 153.351 1969.13 177.657 1972.45 205.554H1875.5C1872.73 193.677 1867.62 183.596 1860.17 175.309C1852.99 166.747 1843.59 160.256 1831.99 155.837C1820.39 151.141 1806.72 148.793 1790.98 148.793C1773.3 148.793 1758.11 151.97 1745.4 158.322C1732.7 164.675 1722.89 173.928 1715.99 186.081C1709.08 197.958 1705.63 212.183 1705.63 228.756C1705.63 245.328 1709.08 259.553 1715.99 271.43C1722.89 283.307 1732.7 292.56 1745.4 299.189C1758.11 305.542 1773.3 308.718 1790.98 308.718C1806.72 308.718 1820.39 306.647 1831.99 302.503C1843.59 298.084 1852.99 291.593 1860.17 283.031C1867.62 274.468 1872.73 264.11 1875.5 251.957H1972.45ZM2164.85 384.123V73.3883H2260.14V332.334L2234.45 326.534L2397.27 73.3883H2523.23V384.123H2427.93V119.377L2453.21 125.177L2287.07 384.123H2164.85ZM2971.15 208.869V276.402H2843.54L2843.12 274.33C2818.82 274.33 2797.55 270.325 2779.32 262.315C2761.09 254.029 2746.87 242.428 2736.65 227.513C2726.7 212.597 2721.73 195.196 2721.73 175.309C2721.73 154.87 2726.7 137.054 2736.65 121.863C2746.87 106.671 2761.09 94.7945 2779.32 86.232C2797.55 77.6695 2818.82 73.3883 2843.12 73.3883H3037.85V384.123H2941.32V98.2471L2984.82 141.75H2857.62C2845.47 141.75 2835.94 144.65 2829.04 150.451C2822.13 156.251 2818.68 164.537 2818.68 175.309C2818.68 186.081 2822.13 194.368 2829.04 200.168C2835.94 205.968 2845.47 208.869 2857.62 208.869H2971.15ZM2925.57 238.699L2823.65 384.123H2713.03L2818.68 238.699H2925.57ZM192.374 849.166C158.676 849.166 129.122 844.609 103.711 835.494C78.5759 826.103 58.965 812.983 44.8784 796.134C31.068 779.009 23.7484 758.846 22.9198 735.645H119.04C120.974 748.626 128.017 758.57 140.17 765.475C152.324 772.104 169.725 775.419 192.374 775.419C213.366 775.419 229.386 772.795 240.434 767.547C251.759 762.299 257.421 754.427 257.421 743.931C257.421 734.54 252.449 727.911 242.506 724.044C232.562 719.901 216.404 717.829 194.031 717.829H138.927V654.854H192.788C206.046 654.854 216.818 653.887 225.105 651.953C233.667 649.744 240.02 646.567 244.163 642.424C248.306 638.005 250.378 632.895 250.378 627.095C250.378 620.742 248.03 615.494 243.334 611.351C238.915 606.931 232.424 603.617 223.862 601.407C215.299 599.198 204.803 598.093 192.374 598.093C171.934 598.093 155.914 601.407 144.314 608.036C132.989 614.389 126.36 623.642 124.426 635.795H28.7202C30.1012 615.356 37.2827 596.712 50.2645 579.863C63.2463 563.014 82.0285 549.618 106.611 539.675C131.47 529.455 161.577 524.345 196.931 524.345C227.314 524.345 253.83 528.074 276.479 535.531C299.128 542.989 316.668 553.347 329.097 566.605C341.803 579.587 348.156 594.778 348.156 612.179C348.156 626.266 344.012 639.11 335.726 650.71C327.44 662.311 314.044 671.564 295.538 678.469C277.308 685.375 253.278 688.689 223.447 688.413V679.712C251.068 678.331 274.684 680.127 294.295 685.098C314.182 689.794 329.373 697.666 339.869 708.714C350.641 719.486 356.027 733.711 356.027 751.388C356.027 770.447 349.675 787.296 336.969 801.935C324.263 816.574 305.757 828.175 281.451 836.737C257.145 845.023 227.452 849.166 192.374 849.166ZM450.572 786.191V709.129H663.529V786.191H450.572ZM622.512 531.388L761.721 842.123H658.557L545.864 573.234H571.965L458.858 842.123H356.108L494.903 531.388H622.512ZM1211.07 531.388V842.123H1114.54V573.234L1158.04 616.737H927.268L970.771 573.234V842.123H874.236V531.388H1211.07ZM1339.24 842.123L1396.83 741.031H1398.08L1516.57 531.388H1620.56L1443.24 842.123H1339.24ZM1394.76 802.349L1238.98 531.388H1345.04L1463.54 739.373L1394.76 802.349ZM1889.4 531.388V617.151H1700.06L1743.56 574.063V842.123H1647.03V531.388H1889.4ZM1942.75 786.191V709.129H2155.7V786.191H1942.75ZM2114.69 531.388L2253.89 842.123H2150.73L2038.04 573.234H2064.14L1951.03 842.123H1848.28L1987.08 531.388H2114.69ZM2280.23 531.388H2376.76V842.123H2280.23V531.388ZM2522.19 531.388H2618.72V842.123H2522.19V531.388ZM2334.5 641.181H2561.13V726.53H2334.5V641.181ZM2739.81 786.191V709.129H2952.77V786.191H2739.81ZM2911.75 531.388L3050.96 842.123H2947.8L2835.1 573.234H2861.21L2748.1 842.123H2645.35L2784.14 531.388H2911.75Z" fill="black"/>
</svg>
