<svg width="366" height="596" viewBox="0 0 366 596" fill="none" xmlns="http://www.w3.org/2000/svg">
<path d="M107.885 5.56518C138.857 5.56518 140.078 13.9071 173.46 13.9071C173.46 13.9071 223.962 10.0042 251.699 2M107.885 5.56518C82.0467 10.0042 58.2026 17.4726 46.9954 25.6279C16.4371 47.8645 23.8854 101.722 13.2438 139.472M107.885 5.56518C110.259 80.6838 150.177 89.4794 171.385 94.2145C223.534 102.613 250.037 54.3109 253.184 14.8001C253.592 9.68361 254.108 6.46954 251.699 2M251.699 2C260.127 2 268.539 5.32623 275.274 10.0042C292.448 21.9335 324.53 21.0167 330.666 47.8092C335.367 68.3324 337.145 94.0246 346.484 112.868C353.209 126.436 351.136 132.007 351.136 132.007M13.2438 139.472C13.2438 139.472 30.6236 222.768 33.9789 239.249C34.5928 242.264 33.9789 256.583 33.9789 256.583M13.2438 139.472C-11.994 153.003 9.80608 235.12 33.9789 256.583M13.2438 139.472C16.6195 154.169 41.0103 252.383 33.9789 256.583M33.9789 256.583C46.5672 435.749 28.6141 485.205 33.4028 587.234C36.1304 594.378 44.0021 590.806 50.0085 590.806C106.411 587.234 132.486 600.449 175.035 587.829C196.604 584.118 198.741 584.119 224.852 589.351C263.287 597.053 279.103 593.917 315.818 587.234C324.424 585.668 323.126 579.535 324.424 570.828C316.68 455.579 326.973 341.008 326.973 225.789M33.9789 256.583C39.1409 219.959 42.7201 203.878 42.7201 166.534C39.4474 151.517 49.7964 165.427 33.9789 256.583ZM326.973 225.789C327.106 229.847 326.178 244.905 330.121 244.905C337.957 244.905 361.678 158.515 363.908 147.564C364.907 142.655 354.856 129.03 351.136 132.007M326.973 225.789C324.852 199.847 299.277 98.128 314.304 163.734C320.643 191.414 326.973 196.334 326.973 225.789ZM326.973 225.789C326.973 225.789 334.601 181.142 351.136 132.007M326.973 225.789C330.555 199.723 345.343 157.302 351.136 132.007" stroke="black" stroke-opacity="0.1" stroke-width="2.56462" stroke-linecap="round"/>
</svg>
