<?xml version="1.0" encoding="utf-8"?>
<!-- Generator: Adobe Illustrator 27.0.0, SVG Export Plug-In . SVG Version: 6.00 Build 0)  -->
<svg version="1.1" id="Layer_1" xmlns="http://www.w3.org/2000/svg" xmlns:xlink="http://www.w3.org/1999/xlink" x="0px" y="0px"
	 viewBox="0 0 100 150" style="enable-background:new 0 0 100 150;" xml:space="preserve">
<style type="text/css">
	.st0{fill:none;}
	.st1{fill:#FFFFFF;}
	.st2{fill:#CFD8DC;}
	.st3{fill:#546E7A;}
	.st4{fill:#2196F3;}
	.st5{fill:#3F51B5;}
</style>
<g>
	<path d="M6,3C4.3,3,3,4.3,3,6v20c0,1.7,1.3,3,3,3h0.4L8,27H6c-0.6,0-1-0.4-1-1V6c0-0.6,0.4-1,1-1h20c0.6,0,1,0.4,1,1v15h-3
		c-1.7,0-3,1.3-3,3v3h-5l1.6,2H21v3.4l2,1.7V24c0-0.6,0.4-1,1-1h20c0.6,0,1,0.4,1,1v20c0,0.6-0.4,1-1,1H24c-0.6,0-1-0.4-1-1v-2
		l-2,1.7V44c0,1.7,1.3,3,3,3h20c1.7,0,3-1.3,3-3V24c0-1.7-1.3-3-3-3H29V6c0-1.7-1.3-3-3-3H6z M16,8v2H8v2h11.9
		c-0.3,2.2-1.6,4.1-3.2,5.5c-2.5-2.2-3.8-4.5-3.8-4.5L11.2,14c0,0,1.3,2.4,3.9,4.8c-0.1,0-0.1,0.1-0.2,0.2c-2.6,1.8-5.3,2.7-5.3,2.7
		l0.6,1.9c0,0,2.9-1,5.8-3c0.2-0.1,0.4-0.3,0.6-0.5c1.1,0.8,2.5,1.6,4,2.2l0.8-1.9c-1.1-0.5-2.2-1.1-3.1-1.7c1.8-1.7,3.4-4,3.7-6.8
		H25v-2h-7V8H16z M12,25l-5,6h3v4h4v-4h3L12,25z M33,26.4l-5.2,13.8h2.5l1.1-3.2h5.3l1.1,3.2h2.5l-5.2-13.8H33z M34,29.4l2,5.7h-4
		L34,29.4z M19,33v3h-9l4,4h5v3l6-5L19,33z"/>
	<rect x="0" y="0" class="st0" width="50" height="50"/>
	<path class="st1" d="M56,3c-1.7,0-3,1.3-3,3v20c0,1.7,1.3,3,3,3h0.4l1.6-2h-2c-0.6,0-1-0.4-1-1V6c0-0.6,0.4-1,1-1h20
		c0.6,0,1,0.4,1,1v15h-3c-1.7,0-3,1.3-3,3v3h-5l1.6,2H71v3.4l2,1.7V24c0-0.6,0.4-1,1-1h20c0.6,0,1,0.4,1,1v20c0,0.6-0.4,1-1,1H74
		c-0.6,0-1-0.4-1-1v-2l-2,1.7V44c0,1.7,1.3,3,3,3h20c1.7,0,3-1.3,3-3V24c0-1.7-1.3-3-3-3H79V6c0-1.7-1.3-3-3-3H56z M66,8v2h-8v2
		h11.9c-0.3,2.2-1.6,4.1-3.2,5.5c-2.5-2.2-3.8-4.5-3.8-4.5L61.2,14c0,0,1.3,2.4,3.9,4.8c-0.1,0-0.1,0.1-0.2,0.2
		c-2.6,1.8-5.3,2.7-5.3,2.7l0.6,1.9c0,0,2.9-1,5.8-3c0.2-0.1,0.4-0.3,0.6-0.5c1.1,0.8,2.5,1.6,4,2.2l0.8-1.9
		c-1.1-0.5-2.2-1.1-3.1-1.7c1.8-1.7,3.4-4,3.7-6.8H75v-2h-7V8H66z M62,25l-5,6h3v4h4v-4h3L62,25z M83,26.4l-5.2,13.8h2.5l1.1-3.2
		h5.3l1.1,3.2h2.5l-5.2-13.8H83z M84,29.4l2,5.7h-4L84,29.4z M69,33v3h-9l4,4h5v3l6-5L69,33z"/>
	<rect x="50" y="0" class="st0" width="50" height="50"/>
</g>
<g>
	<rect x="0" y="50" class="st0" width="50" height="50"/>
	<path d="M6,53c-1.7,0-3,1.3-3,3v20c0,1.7,1.3,3,3,3h0.1l4.4-5.3l0.3-0.4c-0.3,0.1-0.5,0.2-0.6,0.2l-0.6-1.9c0.1,0,2.8-1,5.5-2.8
		c-2.6-2.3-3.9-4.7-3.9-4.8l1.8-0.9c0,0,1.3,2.3,3.8,4.5c1.6-1.5,3-3.3,3.3-5.5H8v-2h8v-2h2v2h7v2h-3.1c-0.3,2.8-1.8,5-3.7,6.8
		c0.8,0.5,1.6,1,2.5,1.4c0.9-0.7,2-1.2,3.2-1.2h5V56c0-1.7-1.3-3-3-3H6z M16.7,70.1c-1.4,1.1-2.9,1.9-4.1,2.4l1,1.2l4.4,5.3H19v-5
		c0-0.8,0.2-1.5,0.5-2.2C18.5,71.3,17.5,70.8,16.7,70.1z M24,71c-1.7,0-3,1.3-3,3v8.1l5.3,4.4l1.8,1.5l-1.8,1.5L21,94V94
		c0,1.7,1.3,3,3,3h20c1.7,0,3-1.3,3-3V74c0-1.7-1.3-3-3-3H24z M12,75l-5,6h3v4h4v-4h3L12,75z M33,76.4h2.1l5.2,13.8h-2.5L36.7,87
		h-5.3l-1.1,3.2h-2.5L33,76.4z M34,79.4l-2,5.7h4L34,79.4z M19,83v3h-9l4,4h5v3l6-5L19,83z"/>
	<rect x="50.1" y="50.1" class="st0" width="50" height="50"/>
	<path class="st1" d="M56.1,53.1c-1.7,0-3,1.3-3,3v20c0,1.7,1.3,3,3,3h0.1l4.4-5.3l0.3-0.4c-0.3,0.1-0.5,0.2-0.6,0.2l-0.6-1.9
		c0.1,0,2.8-1,5.5-2.8c-2.6-2.3-3.9-4.7-3.9-4.8l1.8-0.9c0,0,1.3,2.3,3.8,4.5c1.6-1.5,3-3.3,3.3-5.5H58.1v-2h8v-2h2v2h7v2H72
		c-0.3,2.8-1.8,5-3.7,6.8c0.8,0.5,1.6,1,2.5,1.4c0.9-0.7,2-1.2,3.2-1.2h5v-13c0-1.7-1.3-3-3-3H56.1z M66.8,70.2
		c-1.4,1.1-2.9,1.9-4.1,2.4l1,1.2l4.4,5.3h1.1v-5c0-0.8,0.2-1.5,0.5-2.2C68.5,71.4,67.6,70.8,66.8,70.2z M74.1,71.1
		c-1.7,0-3,1.3-3,3v8.1l5.3,4.4l1.8,1.5l-1.8,1.5L71.1,94v0.1c0,1.7,1.3,3,3,3h20c1.7,0,3-1.3,3-3v-20c0-1.7-1.3-3-3-3H74.1z
		 M62.1,75.1l-5,6h3v4h4v-4h3L62.1,75.1z M83.1,76.5h2.1l5.2,13.8h-2.5l-1.1-3.2h-5.3l-1.1,3.2h-2.5L83.1,76.5z M84.1,79.5l-2,5.7h4
		L84.1,79.5z M69.1,83.1v3h-9l4,4h5v3l6-5L69.1,83.1z"/>
</g>
<rect x="0" y="100" class="st0" width="50" height="50"/>
<g>
	<path class="st2" d="M14,111.6h30.6c1.3,0,2.4,1.1,2.4,2.4v30.6c0,1.3-1.1,2.4-2.4,2.4H27.5L14,111.6z"/>
	<path class="st3" d="M28.5,138.3l-1.1-2.2l1.1-0.6c0.1,0,7.5-3.9,11.1-11.1l0.5-1.1l2.2,1.1l-0.5,1.1c-4,7.9-11.8,12-12.1,12.2
		L28.5,138.3z"/>
	<path class="st3" d="M42.2,137.2l-1.1-0.6c-0.3-0.1-6.2-3.5-10.4-9.4l2-1.4c3.8,5.4,9.5,8.6,9.6,8.7l1.1,0.6L42.2,137.2z
		 M27.5,122.6h17.1v2.4H27.5V122.6z"/>
	<path class="st3" d="M34.8,120.1h2.4v4.9h-2.4V120.1z"/>
	<path class="st4" d="M36,138.5H5.5c-1.3,0-2.4-1.1-2.4-2.4v-30.6c0-1.3,1.1-2.4,2.4-2.4h17.1L36,138.5z"/>
	<path class="st5" d="M27.5,147l-3.7-8.6H36L27.5,147z"/>
	<path class="st1" d="M19.1,125h-5.3l-1.2,3.7H9.2l5.8-15.9h3l5.9,15.9h-3.4L19.1,125z M14.6,122.6h3.8l-1.9-5.8L14.6,122.6z"/>
</g>
</svg>
